<?xml version="1.0" encoding="utf-8"?>
<!-- Generator: Adobe Illustrator 27.5.0, SVG Export Plug-In . SVG Version: 6.00 Build 0)  -->
<svg version="1.1" id="Layer_1" xmlns="http://www.w3.org/2000/svg" xmlns:xlink="http://www.w3.org/1999/xlink" x="0px" y="0px"
	 viewBox="0 0 4000 4000" style="enable-background:new 0 0 4000 4000;" xml:space="preserve">
<g>
	
	<g>
		<g>
			<g>
				<path style="fill:#FFFFFF;" d="M1853.888,1787.089c-6.905,117.162-45.796,239.046-174.272,256.018
					c-255.841,33.723-234.68-289.341-234.68-289.341s-61.565-13.765-88.339-61.387c-10.87-19.378-18.086-37.821-22.809-54.482
					c-13.053-45.929-7.217-78.227-7.217-78.227h509.542C1836.113,1559.671,1860.704,1671.041,1853.888,1787.089z"/>
			</g>
			<g>
				<path style="fill:#371A45;" d="M1643.444,2063.395c-53.887,0-98.882-16.619-134.131-49.622
					c-77.915-72.949-83.179-203.381-82.627-246.848c-21.963-7.586-63.496-26.467-85.625-65.796
					c-43.555-77.42-32.52-141.919-32.031-144.627c1.538-8.476,8.921-14.641,17.534-14.641h509.556
					c8.359,0,15.596,5.813,17.402,13.977c2.539,11.516,61.152,283.65-37.622,424.634c-32.075,45.784-77.148,72.798-133.965,80.293
					C1668.644,2062.518,1655.807,2063.395,1643.444,2063.395z M1343.136,1577.501c-0.2,20.647,3.467,60.791,28.989,106.152
					c22.456,39.914,76.216,52.622,76.753,52.747c8.53,1.953,14.424,9.817,13.853,18.545c-0.103,1.557-9.141,157.942,71.016,232.886
					c35.161,32.876,83.442,45.527,143.53,37.603c47.163-6.223,82.959-27.62,109.434-65.41
					c77.969-111.286,45.195-325.869,34.756-382.522H1343.136z"/>
			</g>
			<g>
				<path style="fill:#FFFFFF;" d="M2555.607,1747.941c0.811-4.269,55.419-144.043,47.221-221.345
					c-7.147-67.397-113.697-228.408-258.084-275.942c-144.91-47.706-201.24,287.83-201.24,287.83L2555.607,1747.941z"/>
			</g>
			<g>
				<path style="fill:#FFFFFF;" d="M2568.219,1711.357c-7.039,21.16-12.34,35.282-12.607,36.574l-412.115-209.465
					c0,0,10.424-61.833,33.723-128.655c31.006-88.829,84.865-186.39,167.546-159.171c144.38,47.533,250.895,208.575,258.068,275.976
					C2608.49,1580.163,2584.033,1663.646,2568.219,1711.357z"/>
			</g>
			<g style="opacity:0.35;">
				<path style="fill:#371A45;" d="M2568.219,1711.357c-7.039,21.16-12.34,35.282-12.607,36.574l-412.115-209.465
					c0,0,10.424-61.833,33.723-128.655c21.472-7.796,45.617-8.865,72.614-0.624c173.426,53.057,305.957,218.999,316.871,287.113
					C2567.506,1701.111,2567.996,1706.145,2568.219,1711.357z"/>
			</g>
			<g>
				<path style="fill:#371A45;" d="M2568.688,1774.579l-444.927-226.138l2.168-12.905c1.592-9.473,40.078-232.651,138.701-292.2
					c26.895-16.243,55.718-19.468,85.684-9.609c151.44,49.856,262.612,219.111,270.234,290.989
					c5.054,47.642-10.293,122.263-45.615,221.797c-0.933,2.637-1.621,4.558-1.992,5.662L2568.688,1774.579z M2573.112,1751.263
					l-0.054,0.281C2573.083,1751.434,2573.097,1751.341,2573.112,1751.263z M2163.415,1528.617l382.061,194.187
					c37.964-109.873,42.612-166.238,39.634-194.329c-6.04-56.948-105.22-214.57-245.938-260.896
					c-19.917-6.563-38.267-4.507-56.104,6.255C2217.326,1313.512,2176.652,1460.66,2163.415,1528.617z"/>
			</g>
			<g>
				<path style="fill:#FFFFFF;" d="M2373.591,1539.776c0.969-40.707,21.075-127.969,65.25-123.533
					c44.176,4.436,133.396,67.766,107.592,187.044C2526.417,1695.812,2372.622,1580.483,2373.591,1539.776z"/>
			</g>
			<g style="opacity:0.35;">
				<path style="fill:#371A45;" d="M2548.973,1589.162c-0.668,4.588-1.514,9.31-2.539,14.122
					c-20.002,92.527-173.827-22.809-172.847-63.526c0.49-20.269,5.702-52.121,16.349-78.449
					C2405.484,1499.13,2487.675,1566.531,2548.973,1589.162z"/>
			</g>
			<g>
				<path style="fill:#371A45;" d="M2506.066,1656.166c-3.252,0-6.611-0.205-10.078-0.618
					c-57.295-6.814-141.157-76.313-140.21-116.194v-0.003c0.821-34.49,13.809-99.519,45.152-127.2
					c11.719-10.351,25.439-15.083,39.692-13.64c27.295,2.739,67.583,23.032,96.064,62.192
					c20.684,28.438,42.183,76.912,27.163,146.348C2557.008,1638.683,2536.188,1656.166,2506.066,1656.166z M2391.408,1540.155
					c0.732,16.008,64.102,76.221,110.591,80.19c15.879,1.352,23.482-4.485,27.017-20.828c12.237-56.548-4.751-95.3-21.152-117.852
					c-23.365-32.124-55.142-46.123-70.806-47.695c-2.676-0.259-6.928-0.059-12.539,4.895
					C2404.337,1456.686,2392.135,1510.045,2391.408,1540.155z M2391.403,1540.199L2391.403,1540.199c0,0,0,0,0,0.002V1540.199z"/>
			</g>
			<g>
				<path style="fill:#371A45;" d="M2464.459,1439.307c-2.386,11.143-4.464,22.673-6.199,34.048
					c-1.733,11.406-3.138,22.827-3.992,34.131c-0.848,11.272-1.198,22.551-0.343,33.013c0.438,5.186,1.194,10.212,2.413,14.304
					c1.083,4.099,3.254,6.97,3.481,6.58c6.956,6.963,6.951,18.245-0.011,25.2c-6.962,6.958-18.243,6.953-25.2-0.01
					c-3.837-4.343-6.547-9.075-7.95-13.171c-1.655-4.248-2.435-8.108-3.038-11.833c-1.119-7.417-1.14-14.155-0.876-20.698
					c0.624-13.025,2.635-25.183,5.061-37.144c2.446-11.941,5.417-23.604,8.696-35.132c3.3-11.555,6.836-22.832,10.852-34.277
					c1.631-4.651,6.722-7.097,11.372-5.466c4.29,1.506,6.704,5.955,5.771,10.286L2464.459,1439.307z"/>
			</g>
			<g>
				<path style="fill:#FFFFFF;" d="M2898.588,1744.189c-3.341,13.543-9.979,24.947-18.621,33.589
					c-38.891,38.802-104.554,5.168-117.919-2.316c-1.559-0.846-2.406-1.381-2.406-1.381s-2.673,15.726-9.622,39.693
					c-8.642,29.625-23.789,71.945-48.469,112.885c-102.416,169.729-290.811,22.185-290.811,22.185l-553.645-57.512l-122.597-12.741
					c0,0-103.842-40.405-107.851-295.666c-2.539-161.353,342.843-159.393,505.176-146.564
					c317.317,25.125,413.897,309.387,444.146,271.922c23.388-29.001,29.135-129.368,60.274-161.71
					c28.199-29.313,108.653-18.309,186.746,47.132C2891.683,1651.351,2907.988,1706.189,2898.588,1744.189z"/>
			</g>
			<g style="opacity:0.35;">
				<path style="fill:#371A45;" d="M2898.588,1744.189c-3.341,13.543-9.979,24.947-18.621,33.589
					c-38.891,38.802-104.554,5.168-117.919-2.316c-2.049-46.954-14.166-95.556-0.401-96.759
					C2779.421,1677.189,2798.176,1800.988,2898.588,1744.189z"/>
			</g>
			<g style="opacity:0.35;">
				<path style="fill:#371A45;" d="M2750.02,1813.774c-8.642,29.625-23.789,71.945-48.469,112.885
					c-102.416,169.729-290.811,22.185-290.811,22.185l-553.645-57.512c50.696-126.25,142.554-282.525,272.902-273.036
					c217.128,15.726,283.638,197.972,447.531,301.547c99.431,62.813,170.308-115.513,170.308-115.513
					S2748.594,1807.715,2750.02,1813.774z"/>
			</g>
			<g>
				<path style="fill:#371A45;" d="M2568.239,2026.139c-76.465,0-146.377-47.06-164.229-60.061l-673.74-70.012l-2.231-0.869
					c-4.697-1.826-115.044-47.774-119.214-312.004c-0.542-34.483,12.476-64.446,38.696-89.058
					c101.045-94.856,373.354-84.414,485.733-75.517c226.103,17.891,342.041,160.681,404.326,237.395
					c10.254,12.629,21.543,26.533,28.931,33.711c6.367-13.223,12.07-36.057,17.217-56.653c9.556-38.267,19.438-77.835,39.688-98.872
					c39.126-40.674,131.826-20.518,211.016,45.872c67.173,56.321,82.93,106.536,84.321,138.745
					c1.211,28.123-8.086,53.547-26.182,71.592c-37.177,37.058-90.727,22.478-120.434,9.834
					c-7.393,29.668-23.823,83.413-55.342,135.632c-29.697,49.207-69.15,78.64-117.271,87.481
					C2589.054,2025.277,2578.585,2026.139,2568.239,2026.139z M1739.474,1861.193l678.223,70.479l4.038,3.164
					c0.869,0.676,89.204,68.65,171.484,53.442c37.583-6.948,68.896-30.774,93.066-70.818c42.319-70.125,55.64-145.61,55.771-146.365
					l4.448-25.891l22.388,13.682c0.864,0.525,65.601,39.092,98.511,6.282c10.928-10.894,16.519-26.809,15.742-44.817
					c-1.528-35.413-26.963-75.535-71.616-112.971c-71.685-60.11-142.935-68.733-162.437-48.469
					c-13.657,14.187-22.759,50.637-30.791,82.798c-8.242,32.996-15.356,61.492-28.477,77.751c-5.21,6.458-12.393,10.02-20.22,10.032
					c-0.015,0-0.034,0-0.049,0c-18.222,0.002-32.07-17.056-59.643-51.016c-58.921-72.568-168.599-207.646-379.473-224.331
					c-173.105-13.696-384.448-3.562-458.53,65.974c-18.858,17.7-27.837,38.15-27.451,62.512
					C1647.911,1801.51,1726.676,1854.098,1739.474,1861.193z"/>
			</g>
			<g>
				<path style="fill:#371A45;" d="M2770.508,1677.966c1.371,8.213,2.478,16.165,3.462,24.287c0.973,8.091,1.774,16.221,2.41,24.402
					c1.248,16.37,1.779,32.927,0.873,50.015l-0.002,0.061c-0.522,9.871-8.95,17.451-18.822,16.926
					c-9.872-0.522-17.451-8.948-16.929-18.821c0.059-1.101,0.242-2.268,0.488-3.306c3.538-14.468,5.967-29.773,7.666-45.254
					c0.844-7.749,1.531-15.552,2.051-23.384c0.515-7.798,0.886-15.767,1.047-23.435l0.004-0.208
					c0.104-4.934,4.187-8.853,9.124-8.748C2766.246,1670.593,2769.817,1673.809,2770.508,1677.966z"/>
			</g>
			<g>
				<path style="fill:#371A45;" d="M2560.582,1683.501c5.839,7.188,11.001,14.082,16.243,21.274
					c5.182,7.151,10.211,14.407,15.057,21.807c9.629,14.844,18.685,30.193,25.752,46.948c1.917,4.546-0.214,9.783-4.758,11.702
					c-4.061,1.711-8.676,0.195-10.98-3.391l-0.129-0.203c-8.796-13.655-19.601-26.404-30.957-38.613
					c-5.712-6.094-11.594-12.051-17.594-17.878c-5.961-5.767-12.229-11.641-18.225-16.843c-7.469-6.465-8.281-17.761-1.815-25.232
					c6.466-7.468,17.762-8.281,25.232-1.814C2559.18,1681.926,2559.952,1682.739,2560.582,1683.501z"/>
			</g>
			<g>
				<path style="fill:#FFFFFF;" d="M2484.334,1720.311c-22.407,64.239-68.381,125.804-147.543,151.909l-83.573-54.082
					c0,0,73.816-40.539,108.965-114.444c4.365-9.222,8.197-18.131,11.449-26.729c34.347-90.299,11.761-147.633,11.761-147.633
					s50.562-40.495,93.195,3.92C2503.891,1559.626,2511.642,1641.951,2484.334,1720.311z"/>
			</g>
			<g style="opacity:0.35;">
				<path style="fill:#371A45;" d="M2484.334,1720.311c-22.407,64.239-68.381,125.804-147.543,151.909l-83.573-54.082
					c0,0,73.816-40.539,108.965-114.444c4.365-9.222,8.197-18.131,11.449-26.729c13.053,18.888,30.872,37.198,53.012,42.722
					C2447.804,1724.989,2467.317,1724.142,2484.334,1720.311z"/>
			</g>
			<g>
				<path style="fill:#371A45;" d="M2336.803,1890.033c-7.48,0-14.448-4.751-16.919-12.246c-3.081-9.346,1.997-19.421,11.343-22.502
					c97.109-32.012,131.792-117.925,143.823-166.287c17.231-69.267,5.644-127.803-9.341-143.425
					c-21.778-22.703-46.299-15.33-59.634-8.374c5.981,27.012,12.305,89.988-27.783,174.16
					c-37.232,78.179-113.296,120.622-116.514,122.39c-8.618,4.739-19.453,1.589-24.199-7.039
					c-4.731-8.623-1.587-19.448,7.026-24.189c1.142-0.637,69.443-39.15,101.509-106.484
					c45.854-96.279,22.876-159.685,22.642-160.315l-4.571-12.114l10.064-8.208c21.89-17.52,74.561-38.919,117.173,5.5
					c28.608,29.817,36.27,104.131,18.213,176.702c-23.491,94.424-84.448,164.236-167.246,191.531
					C2340.534,1889.742,2338.654,1890.033,2336.803,1890.033z"/>
			</g>
			<g>
				<g>
					<path style="fill:#FFA726;" d="M2361.395,3226.37c-382.285,212.409-864.338,74.733-1076.748-307.552
						c-36.826-66.263-63.13-135.512-79.434-205.843c-7.126-30.595-12.35-61.413-15.708-92.232
						c-33.654-307.291,115.477-619.058,402.656-778.635c134.878-74.92,282.143-106.298,425.64-98.724
						c263.227,13.88,513.618,158.831,651.108,406.238c43.28,77.867,72.01,159.876,87.12,242.929
						C2815.054,2717.117,2665.774,3057.241,2361.395,3226.37z"/>
				</g>
				<g style="opacity:0.35;">
					<path style="fill:#371A45;" d="M2361.41,3226.364c-382.285,212.409-864.338,74.733-1076.748-307.551
						c-36.825-66.265-63.13-135.512-79.434-205.844c-4.179-17.946-7.724-36.004-10.559-54.063
						c149.69,184.8,365.197,296.396,592.717,319.454l-3.619-3.806c-6.119-24.588-5.485-50.556,3.171-75.442
						c25.222-72.458,84.061-122.491,198.306-82.681c65.144,22.685,107.828,78.913,111.037,138.049
						c69.808-18.244,138.46-45.481,204.462-82.157c3.47-1.94,6.903-3.88,10.335-5.858c-11.566-45.892,1.082-100.888,37.87-144.915
						c52.421-62.682,135.326-81.113,191.926-45.072c94.993-110.925,159.727-243.041,190.396-383.068
						c10.484,32.759,18.692,65.853,24.774,99.135C2815.07,2717.111,2665.79,3057.234,2361.41,3226.364z"/>
				</g>
				<g style="opacity:0.4;">
					<path style="fill:#FFFFFF;" d="M2776.5,2394.518c-15.983-49.573-36.982-98.356-63.245-145.621
						c-155.264-279.387-451.905-430.579-750.994-413.804l0.037,0.147c11.488,45.724-36.761,97.244-107.744,115.079
						c-71.019,17.844-137.854-4.762-149.342-50.486c-0.537-2.139-0.964-4.305-1.234-6.472
						c-29.77,12.106-59.133,26.147-87.921,42.161c-310.552,172.582-462.69,519.756-401.938,850.8
						c-115.504-359.077,34.347-761.382,376.618-951.577c389.499-216.447,880.741-76.162,1097.198,313.373
						C2731.847,2227.094,2761.065,2310.309,2776.5,2394.518z"/>
				</g>
				<g>
					<path style="fill:#371A45;" d="M1982.111,3344.017c-74.746,0.002-149.907-10.439-223.76-31.533
						c-208.159-59.451-380.703-196.406-485.854-385.632c-217.061-390.627-75.854-885.019,314.771-1102.087
						c390.61-217.058,885.01-75.864,1102.085,314.771c105.151,189.229,130.317,408.079,70.864,616.235
						c-59.448,208.157-196.406,380.701-385.635,485.852C2252.492,3309.464,2118.034,3344.01,1982.111,3344.017z M1979.62,1760.17
						c-126.968,0-255.601,31.277-374.238,97.202c-372.646,207.075-507.354,678.713-300.278,1051.36
						c100.308,180.52,264.912,311.172,463.486,367.888c198.569,56.704,407.349,32.703,587.876-67.605
						c180.518-100.31,311.167-264.912,367.886-463.489c56.714-198.577,32.705-407.354-67.608-587.871
						C2515.597,1903.641,2251.481,1760.17,1979.62,1760.17z"/>
				</g>
				<g>
					<path style="fill:#371A45;" d="M2093.821,2903.975c3.883,7.834,7.246,16.042,9.666,24.607
						c2.363,8.569,3.973,17.419,4.651,26.409c0.713,8.989,0.366,18.083-0.753,27.1c-1.196,8.816-2.77,17.427-5.112,26.062
						c-4.628,17.188-11.803,34.209-22.407,49.612c-10.66,15.31-24.991,28.616-41.504,38.105
						c-16.512,9.524-34.905,15.051-53.083,17.524c-18.243,2.639-36.368,2.319-54.06,0.659c-8.868-1.052-17.428-2.302-26.281-4.082
						c-8.993-1.743-17.843-4.27-26.515-7.297c-8.684-3.008-17.148-6.694-25.304-10.991c-8.168-4.27-16.08-9.092-23.447-14.692
						c-14.8-11.069-28.099-24.297-38.861-39.517c-10.82-15.132-19.296-32.188-24.039-50.41
						c-10.027-36.304-5.291-76.602,13.356-108.906c18.191-32.7,48.938-56.309,82.369-68.447
						c33.628-12.085,70.293-13.313,103.478-4.18c2.97,0.818,4.714,3.889,3.898,6.858c-0.736,2.673-3.308,4.353-5.979,4.065
						c-32.153-3.435-64.542,1.406-92.498,14.771c-27.985,13.086-51.211,34.902-64.102,61.331
						c-12.806,26.411-15.399,57.222-6.628,84.829c8.463,27.715,26.924,52.468,50.963,69.683c12.063,8.521,25.137,15.83,39.21,20.779
						c7.008,2.512,14.18,4.648,21.516,6.123c7.448,1.572,15.354,2.8,22.999,3.774c15.355,1.868,30.747,2.644,45.533,0.952
						c14.824-1.533,28.936-5.488,41.749-11.755c25.569-12.725,44.313-37.366,54.592-66.592c2.585-7.258,4.908-14.854,6.704-22.402
						c1.775-7.368,2.809-14.932,3.17-22.583c0.814-15.303-1.355-30.957-6.039-46.128l-0.046-0.149
						c-1.127-3.647,0.918-7.52,4.568-8.647C2088.873,2899.421,2092.343,2900.984,2093.821,2903.975z"/>
				</g>
				<g style="opacity:0.4;">
					<path style="fill:#FFFFFF;" d="M2167.463,2490.524c-38.002,18.704-81.017,15.778-115.074-4.018
						c19.173,6.339,40.35,7.481,61.374,2.199c59.128-14.856,94.991-74.84,80.135-133.968c-14.847-59.092-74.804-95-133.931-80.145
						c-3.474,0.873-6.83,1.908-10.15,3.089c3.264-2.013,6.611-3.854,10.101-5.577c60.323-29.698,133.298-4.907,162.995,55.415
						C2252.622,2387.879,2227.786,2460.826,2167.463,2490.524z"/>
				</g>
				<g style="opacity:0.35;">
					
						<ellipse transform="matrix(0.7071 -0.7071 0.7071 0.7071 -1347.4297 1844.3672)" style="fill:#371A45;" cx="1552.633" cy="2548.675" rx="166.513" ry="166.513"/>
				</g>
				<g style="opacity:0.4;">
					<path style="fill:#FFFFFF;" d="M1783.948,2482.614c36.779,106.23-19.533,222.185-125.764,258.964
						c-106.266,36.791-222.22-19.521-258.999-125.751c-0.732-2.115-1.417-4.208-2.067-6.313
						c34.975,77.755,124.164,117.315,206.278,88.885c86.909-30.09,132.964-124.923,102.874-211.832
						c-30.09-86.909-124.923-132.964-211.832-102.875c-23.693,8.203-44.333,21.232-61.253,37.593
						c23.137-28.74,54.343-51.507,91.786-64.471C1631.202,2320.036,1747.157,2376.348,1783.948,2482.614z"/>
				</g>
				<g>
					<path style="fill:#371A45;" d="M1425.98,2419.358c26.216-29.79,63.933-50.068,104.263-56.255
						c40.424-6.66,83.256,1.418,119.537,21.726c18.107,10.251,34.424,23.677,48.256,39.351l5.103,5.964l2.544,2.993l2.271,3.201
						c2.987,4.299,6.067,8.55,8.94,12.932l7.701,13.726c2.526,4.6,4.374,9.531,6.494,14.333
						c7.648,19.509,12.678,40.117,13.807,61.162c1.006,20.996-1.122,42.212-6.981,62.419c-5.637,20.271-14.955,39.436-26.997,56.589
						c-12,17.185-26.733,32.473-43.667,44.822c-16.991,12.285-36.06,21.465-55.896,27.639c-5.024,1.34-9.928,3.137-15.046,4.05
						l-15.341,2.676c-10.338,0.928-20.677,1.912-31.034,1.235c-20.637-0.864-41.182-4.729-60.261-12.351
						c-19.021-7.681-36.744-18.247-52.166-31.411c-31.202-26.069-51.774-63.196-59.099-101.711c-0.574-3.02,1.409-5.935,4.43-6.509
						c2.754-0.525,5.42,1.079,6.305,3.655l0.049,0.146c11.995,34.829,33.419,65.798,62.727,86.184
						c14.426,10.325,30.276,18.462,46.97,23.823c16.752,5.176,34.163,7.71,51.466,7.473c8.671,0.161,17.256-1.201,25.784-2.351
						l12.621-2.869c4.221-0.859,8.221-2.566,12.34-3.777c16.215-5.657,31.57-13.655,45.089-24.116
						c26.619-21.187,47.426-50.283,56.033-83.293c4.333-16.394,6.466-33.357,5.737-50.332c-0.759-16.98-4.788-33.765-10.829-49.619
						c-11.664-32.122-35.313-59.058-64.114-77.766c-14.597-9.189-30.802-15.789-47.635-19.954
						c-16.81-4.197-34.478-6.05-52.001-4.275c-35.272,2.246-69.778,16.782-97.736,40.339c-2.916,2.468-7.281,2.107-9.751-0.808
						C1423.651,2425.752,1423.757,2421.892,1425.98,2419.358z"/>
				</g>
				<g>
					<path style="fill:#371A45;" d="M2501.682,2655.757c8.301,0.894,16.638,2.432,24.783,4.934
						c8.119,2.556,16.05,5.957,23.585,10.212c15.107,8.477,28.297,20.583,38.556,34.939c10.165,14.429,17.25,31.021,21.101,48.245
						c3.832,17.266,4.238,35.127,1.874,52.446c-2.235,17.366-7.236,34.265-14.362,50.151c-7.361,15.774-16.649,30.566-27.532,44.109
						c-11.353,13.115-24.008,25.059-38.08,35.332c-14.272,9.954-29.659,18.499-46.18,24.485
						c-16.537,5.92-34.021,9.404-51.766,10.269c-17.714,0.791-35.908-0.989-53.066-6.97c-17.163-5.757-33.304-15.005-46.797-27.148
						c-13.546-12.051-24.373-27.146-31.438-43.625c-14.252-33.123-13.877-70.02-3.817-102.266
						c5.26-16.138,12.539-31.399,21.72-45.288c9.407-13.762,20.605-25.996,32.848-36.785c2.307-2.034,5.825-1.812,7.859,0.496
						c1.831,2.075,1.833,5.134,0.132,7.207l-0.134,0.164c-9.788,11.953-18.29,24.651-25.256,38.015
						c-6.545,13.586-11.722,27.642-14.681,42.073c-6.133,28.772-3.112,58.752,9.146,83.386
						c12.631,24.465,34.979,42.646,60.957,50.178c26.09,7.585,55.168,5.247,81.531-4.531c13.11-5.19,25.754-11.711,37.495-19.792
						c11.58-8.32,22.12-18.101,31.619-28.806c9.21-10.928,17.334-22.742,23.821-35.454c6.252-12.813,10.701-26.392,13.508-40.251
						c0.509-3.484,1.356-6.965,1.637-10.474l0.797-10.549l-0.223-10.535c-0.029-3.53-0.815-6.938-1.073-10.449
						c-1.893-13.86-6.327-27.341-13.383-39.458c-13.595-24.8-38.61-42.803-67.596-50.671l-0.133-0.037
						c-3.687-1.001-5.863-4.8-4.862-8.486C2495.172,2657.493,2498.359,2655.396,2501.682,2655.757z"/>
				</g>
				<g style="opacity:0.35;">
					
						<ellipse transform="matrix(0.7071 -0.7071 0.7071 0.7071 -1072.8467 2173.2051)" style="fill:#371A45;" cx="2086.867" cy="2381.643" rx="110.372" ry="110.372"/>
				</g>
				<g>
					<path style="fill:#371A45;" d="M1992.92,2450.271c-16.134-19.353-24.855-45.442-24.32-71.704
						c0.118-13.186,2.867-26.396,7.478-38.938c4.761-12.498,11.628-24.272,20.273-34.68c17.402-20.635,42.112-35.737,69.167-40.847
						c13.464-2.485,27.323-3.25,40.989-1.26c13.618,2.036,26.958,6.145,39.193,12.461c24.646,12.397,44.347,33.606,55.835,58.381
						c5.691,12.456,9.043,25.872,10.294,39.341c1.447,13.464,0.12,27.119-3.171,40.122c-3.326,12.979-8.495,25.498-15.942,36.484
						c-7.452,10.95-16.501,20.679-26.891,28.523c-20.667,15.911-46.737,23.547-71.461,22.346c-3.081-0.151-5.458-2.769-5.308-5.85
						c0.128-2.637,2.063-4.756,4.548-5.22l0.194-0.037c22.01-4.111,42.216-13.75,56.935-28.918
						c7.411-7.417,13.715-15.779,18.439-24.897c4.598-9.18,7.854-18.882,9.453-28.804c0.977-4.934,1.045-9.983,1.26-14.954
						l-0.365-7.483c-0.051-2.49-0.634-4.941-0.895-7.405c-1.594-9.783-4.519-19.272-8.948-28.02
						c-9.131-17.275-23.345-31.956-40.844-40.486c-8.712-4.243-17.983-7.288-27.572-8.755c-9.587-1.421-19.46-1.182-29.054,0.386
						c-19.336,2.886-37.196,12.913-51.377,26.821c-7.001,7.109-12.721,15.481-17.207,24.514c-4.543,9.001-7.899,18.831-9.139,29.097
						c-3.417,20.537,0.293,42.361,9.973,62.212l0.038,0.076c1.682,3.447,0.25,7.605-3.197,9.287
						C1998.367,2453.494,1994.919,2452.668,1992.92,2450.271z"/>
				</g>
				<g style="opacity:0.3;">
					<path style="fill:#FFFFFF;" d="M2580.296,2312.824c-14.851,17.916-37.084,20.833-58.622,10.551
						c11.043,2.326,21.922,0.675,31.278-5.587c26.313-17.611,30.801-65.016,10.042-105.878
						c-20.747-40.837-58.901-59.702-85.215-42.09c-1.546,1.035-2.996,2.173-4.396,3.411c1.184-1.832,2.448-3.549,3.811-5.198
						c23.572-28.444,65.754-19.11,94.227,20.878C2599.907,2228.925,2603.869,2284.381,2580.296,2312.824z"/>
					<path style="fill:#371A45;" d="M2546.085,2331.371c-8.12,0-16.675-2.021-25.298-6.138l-15.537-7.422l16.851,3.55
						c10.854,2.29,21.123,0.461,29.707-5.281c25.425-17.021,29.624-63.333,9.351-103.237c-12.085-23.787-30.859-41.006-50.22-46.062
						c-11.733-3.074-22.803-1.416-32.017,4.749c-1.421,0.952-2.783,2.012-4.17,3.242l-11.235,9.956l8.14-12.612
						c1.211-1.88,2.505-3.645,3.95-5.393c9.766-11.785,22.715-17.698,37.656-17.178c21.309,0.781,43.12,14.695,59.834,38.174
						c28.936,40.64,32.871,97.351,8.779,126.418C2572.452,2325.514,2559.899,2331.371,2546.085,2331.371z M2536.046,2326.153
						c16.543,3.474,31.87-1.614,42.666-14.644l0,0c22.979-27.725,18.955-82.185-8.965-121.404
						c-15.972-22.429-36.612-35.715-56.636-36.45c-11.377-0.403-21.387,3.276-29.605,10.732c8.653-3.672,18.365-4.233,28.472-1.589
						c20.483,5.349,40.239,23.359,52.852,48.179c21.182,41.699,16.367,90.383-10.737,108.521
						C2548.61,2323.172,2542.516,2325.404,2536.046,2326.153z"/>
				</g>
				<g style="opacity:0.35;">
					
						<ellipse transform="matrix(0.9338 -0.3579 0.3579 0.9338 -636.4501 1048.9113)" style="fill:#371A45;" cx="2515.366" cy="2243.8" rx="56.554" ry="83.502"/>
				</g>
				<g style="opacity:0.4;">
					<path style="fill:#FFFFFF;" d="M2583.875,2313.857c-11.529,7.724-25.11,9.141-38.766,5.261
						c0.747-0.411,1.455-0.858,2.202-1.344c26.304-17.611,30.781-64.996,10.036-105.85c-17.386-34.252-47.011-53.019-71.636-47.833
						c3.806-6.12,8.656-11.268,14.402-15.111c29.326-19.588,71.823,1.381,94.955,46.937
						C2618.201,2241.438,2613.164,2294.232,2583.875,2313.857z"/>
				</g>
				<g>
					<path style="fill:#371A45;" d="M2480.503,2305.317c-12.739-10.586-22.34-24.81-28.928-40.33
						c-6.581-15.571-10.081-32.971-8.619-51.13c0.719-9.067,2.709-18.354,6.842-27.427c4.083-9.009,10.441-17.886,19.427-24.607
						c8.979-6.675,20.316-10.645,31.426-10.918c11.13-0.332,21.588,2.402,30.472,6.716c17.866,8.689,30.82,22.278,40.271,37.153
						c9.556,14.932,15.356,31.516,18.103,48.56c2.482,17.097,1.423,34.98-4.94,51.643c-3.308,8.22-7.92,16.243-14.594,22.6
						c-6.523,6.404-15.034,11.045-23.816,12.312c-3.076,0.444-5.93-1.689-6.375-4.766c-0.341-2.363,0.839-4.595,2.798-5.703
						l0.254-0.142c11.611-6.536,17.513-18.218,19.446-30.903c0.997-6.328,1.239-12.856,0.674-19.377
						c-0.638-6.531-1.917-13.027-3.69-19.368c-3.691-12.69-9.558-24.792-17.111-35.078c-7.505-10.261-17.032-18.801-26.741-23.245
						c-9.862-4.47-18.208-4.194-24.84,0.22c-6.84,4.268-12.651,14.534-14.91,26.619c-2.458,12.061-2.037,25.608,0.66,38.96
						c2.413,13.54,7.62,26.643,14.648,39.209l0.116,0.21c1.886,3.372,0.681,7.632-2.69,9.517
						C2485.795,2307.493,2482.664,2307.104,2480.503,2305.317z"/>
				</g>
				<g style="opacity:0.4;">
					<path style="fill:#FFFFFF;" d="M2088.457,2073.088c-29.22,14.381-62.293,12.131-88.479-3.09
						c14.742,4.874,31.025,5.752,47.19,1.691c45.463-11.422,73.038-57.544,61.615-103.006
						c-11.416-45.435-57.516-73.045-102.979-61.622c-2.671,0.671-5.251,1.467-7.804,2.375c2.51-1.548,5.083-2.963,7.767-4.288
						c46.382-22.834,102.491-3.774,125.326,42.608C2153.935,1994.165,2134.839,2050.253,2088.457,2073.088z"/>
				</g>
				<g style="opacity:0.35;">
					
						<ellipse transform="matrix(0.7071 -0.7071 0.7071 0.7071 -813.1523 2015.6162)" style="fill:#371A45;" cx="2026.488" cy="1989.37" rx="84.864" ry="84.864"/>
				</g>
				<g>
					<path style="fill:#371A45;" d="M1952.92,2043.01c-13.152-14.822-20.436-35.374-20.358-56.228
						c0.029-20.955,7.665-42.251,21.459-58.953c13.835-16.57,33.566-28.821,55.28-32.991c10.8-2.017,21.917-2.666,32.896-1.069
						c10.935,1.631,21.663,4.915,31.477,10.007c19.775,9.98,35.558,27.041,44.663,46.958c4.521,10.005,7.148,20.776,8.071,31.558
						c1.072,10.774-0.027,21.68-2.712,32.056c-2.786,10.342-7.069,20.256-13.101,28.921c-6.045,8.633-13.32,16.27-21.653,22.351
						c-16.577,12.319-37.301,17.959-56.625,16.421c-3.086-0.247-5.389-2.947-5.144-6.033c0.204-2.554,2.086-4.57,4.478-5.054
						l0.103-0.017c33.503-6.741,58.182-33.618,61.724-63c2.327-14.521-0.681-29.419-6.997-41.973
						c-6.749-12.417-17.045-22.949-29.673-29.06c-6.292-3.025-12.95-5.244-19.857-6.304c-6.901-1.028-14.031-0.906-20.959,0.195
						c-13.956,1.978-26.958,9.045-37.407,19.038c-5.11,5.139-9.486,11.086-12.916,17.637c-3.486,6.511-6.136,13.679-7.219,21.235
						c-2.961,15.129-0.687,31.416,6.011,46.736l0.065,0.149c1.542,3.528-0.067,7.639-3.595,9.182
						C1958.091,2046.013,1954.872,2045.205,1952.92,2043.01z"/>
				</g>
				<g>
					<g>
						<path style="fill:#FFA726;" d="M1583.185,2002.19c-3.79-22.169,24.325-60.009,67.95-76.52s82.025-4.417,90.028,16.728"/>
					</g>
					<g>
						<path style="fill:#371A45;" d="M1576.873,2003.269c-1.931-5.371-2.147-11.016-1.556-16.24
							c0.524-5.298,2.025-10.232,3.754-14.978c3.629-9.443,8.978-17.827,15.149-25.403c12.505-15.007,28.611-26.748,46.61-34.404
							c17.91-7.605,38.046-11.335,58.19-8.496c10.02,1.453,20.076,4.548,29.149,10.205c4.465,2.939,8.756,6.394,12.288,10.735
							c1.744,2.195,3.296,4.58,4.603,7.097c1.195,2.61,2.19,5.31,2.679,8.125c0.673,3.87-1.919,7.551-5.79,8.225
							c-2.556,0.444-5.031-0.537-6.609-2.368l-0.753-0.879c-4.194-4.893-10.022-7.922-16.664-9.751
							c-6.625-1.836-13.813-2.571-21.08-2.422c-14.572,0.334-29.376,3.882-43.462,9.587c-14.032,5.747-27.329,13.792-38.995,23.735
							c-5.818,4.963-11.194,10.447-15.717,16.355c-4.542,5.884-8.06,12.312-9.172,18.718l-0.187,1.077
							c-0.609,3.513-3.951,5.867-7.465,5.256C1579.479,2007.034,1577.637,2005.376,1576.873,2003.269z"/>
					</g>
				</g>
				<g style="opacity:0.35;">
					
						<ellipse transform="matrix(0.9098 -0.4151 0.4151 0.9098 -669.3851 868.0743)" style="fill:#371A45;" cx="1662.003" cy="1973.719" rx="91.701" ry="44.827"/>
				</g>
			</g>
			<g style="opacity:0.3;">
				<path style="fill:#293856;" d="M1403.534,2171.198c3.332-4.555,6.705-9.11,10.247-13.621
					C1410.281,2162.089,1406.866,2166.602,1403.534,2171.198z"/>
			</g>
			<g>
				<g style="opacity:0.35;">
					<path style="fill:#371A45;" d="M2241.056,1772.21c-7.618,24.323-17.775,48.914-31.228,72.391
						c-7.796,13.676-16.706,27.041-26.907,39.693c-9.444,11.76-20.002,22.987-31.763,33.411
						c-25.615,22.764-58.091,35.059-91.858,40.583c-76.801,12.651-160.151-9.934-184.118-25.125
						c-31.184-19.779-65.531-49.181-70.831-125.314c-0.268-3.564-0.446-7.217-0.579-11.003c-16.082,2.361-32.342,3.965-48.647,4.9
						c-10.469,0.579-20.938,0.891-31.451,0.891c-28.823-0.089-57.779-2.405-86.646-7.172c-23.922-3.92-47.8-9.444-71.411-16.706
						c-27.442-8.33-54.482-18.978-81.078-31.986c-8.776-4.366-17.418-8.821-25.838-13.543c-17.285-9.622-33.856-20.091-49.76-31.317
						c-27.264-19.245-52.389-40.717-75.153-64.016c-13.053-45.929-7.217-78.227-7.217-78.227h509.542
						c0,0,17.953,81.256,18.933,177.346c2.495-0.401,5.034-0.802,7.573-1.158c7.484-1.114,14.924-2.094,22.408-2.94
						c3.074-0.401,6.148-0.713,9.222-1.025h0.044c3.43-0.401,6.905-0.713,10.335-1.025c0.045,0,0.045,0,0.045,0
						c3.386-0.312,6.771-0.624,10.157-0.891h0.267c3.43-0.267,6.905-0.534,10.335-0.757c6.949-0.446,13.899-0.802,20.849-1.069
						c3.43-0.134,6.86-0.267,10.335-0.356c0,0,0,0,0.044,0c3.43-0.089,6.861-0.134,10.291-0.178
						c3.474-0.044,6.949-0.089,10.379-0.089c3.564,0,7.083,0.045,10.603,0.089c2.005,0,4.009,0.045,6.014,0.089h0.134
						c2.094,0.045,4.188,0.089,6.281,0.134c3.43,0.134,6.816,0.267,10.157,0.401c2.005,0.045,4.054,0.134,6.058,0.267h0.223
						c2.851,0.134,5.747,0.312,8.598,0.49c3.786,0.223,7.529,0.446,11.315,0.758c0.357,0,0.668,0.045,1.025,0.089
						c3.742,0.267,7.529,0.579,11.271,0.891c2.094,0.223,4.188,0.401,6.281,0.624c5.48,0.535,10.959,1.114,16.438,1.782
						c0.044,0,0.044,0,0.044,0c3.43,0.401,6.905,0.846,10.335,1.292c0.045,0,0.045,0,0.045,0c1.96,0.267,3.965,0.534,5.925,0.802
						c0.223,0.045,0.446,0.089,0.668,0.089c2.628,0.356,5.212,0.757,7.796,1.158c4.321,0.623,8.643,1.336,12.919,2.049
						c1.247,0.223,2.45,0.401,3.697,0.624c0.713,0.134,1.381,0.223,2.094,0.357c6.148,1.069,12.295,2.227,18.443,3.475
						c6.86,1.336,13.676,2.807,20.448,4.321c3.386,0.802,6.771,1.559,10.157,2.406c3.386,0.802,6.727,1.604,10.112,2.495h0.045
						c3.341,0.847,6.727,1.738,10.068,2.629c3.341,0.891,6.682,1.782,10.023,2.762h0.045c3.341,0.935,6.637,1.871,9.979,2.895h0.044
						c3.341,0.98,6.638,1.96,9.934,2.985h0.044c6.638,2.049,13.231,4.188,19.78,6.415c0.044,0,0.044,0,0.044,0
						C2236.646,1770.651,2238.829,1771.408,2241.056,1772.21z"/>
				</g>
				<g>
					<path style="fill:#FFFFFF;" d="M1212.67,1436.662c39.35,82.525,99.475,155.564,177.427,210.579
						c15.902,11.21,32.481,21.672,49.788,31.297c8.406,4.708,17.052,9.199,25.842,13.559c26.556,12.996,53.637,23.63,81.053,31.986
						c23.613,7.26,47.492,12.787,71.4,16.711c28.871,4.753,57.856,7.079,86.672,7.148c10.509-0.01,20.986-0.299,31.429-0.863
						c191.134-10.75,371.003-121.611,461.116-305.802c132.801-271.303,20.483-598.87-250.774-731.669
						c-52.262-25.539-106.644-42.092-161.294-50.029c-6.378-0.989-12.811-1.795-19.25-2.465c-17.211-1.91-34.415-2.993-51.566-3.249
						c-39.668-0.579-79.082,3.213-117.496,11.089c-38.411,7.832-75.915,19.791-111.718,35.592
						c-11.387,5.017-22.609,10.41-33.666,16.224c-16.563,8.72-32.705,18.241-48.387,28.702
						c-78.202,51.851-144.077,124.566-188.296,214.957C1138.553,1116.489,1143.286,1291.141,1212.67,1436.662z"/>
					<path style="fill:#371A45;" d="M1704.855,1749.723c-29.224-0.071-58.477-2.483-86.963-7.173
						c-24.341-3.994-48.442-9.634-71.636-16.763c-27.705-8.445-55.064-19.243-81.309-32.09c-9.663-4.792-18.14-9.241-25.933-13.604
						c-17.026-9.47-33.828-20.034-49.941-31.399c-76.201-53.774-137.754-126.829-178.008-211.267
						c-72.627-152.319-71.797-326.465,2.285-477.783c42.822-87.537,108.149-162.109,188.911-215.659
						c15.269-10.185,31.602-19.873,48.545-28.794c10.869-5.715,22.231-11.191,33.775-16.277
						c35.918-15.852,73.628-27.869,112.08-35.708c38.809-7.956,78.477-11.655,117.876-11.125c17.163,0.256,34.57,1.355,51.738,3.262
						c6.738,0.698,13.247,1.533,19.331,2.476c55.791,8.103,110.234,24.99,161.797,50.188
						c271.738,133.032,384.605,462.327,251.597,734.053c-87.129,178.088-264.395,295.647-462.622,306.799
						C1725.939,1749.422,1715.333,1749.713,1704.855,1749.723z M1706.657,655.587c-36.572,0-73.291,3.733-109.282,11.111
						c-38.203,7.791-75.669,19.727-111.357,35.478c-11.465,5.051-22.754,10.493-33.55,16.17
						c-16.831,8.862-33.062,18.486-48.227,28.606c-80.244,53.203-145.142,127.292-187.686,214.26
						c-73.599,150.337-74.429,323.352-2.275,474.683c39.995,83.887,101.147,156.467,176.846,209.89
						c16.011,11.289,32.71,21.787,49.624,31.196c7.749,4.336,16.177,8.757,25.771,13.518c26.069,12.761,53.252,23.489,80.776,31.88
						c23.047,7.083,46.987,12.685,71.172,16.655c28.301,4.658,57.363,7.056,86.392,7.124c10.41-0.01,20.952-0.298,31.323-0.859
						c196.938-11.077,373.052-127.874,459.614-304.807c132.148-269.961,20.015-597.114-249.956-729.282
						c-51.235-25.037-105.322-41.814-160.762-49.868c-6.045-0.935-12.495-1.76-19.185-2.456c-17.065-1.895-34.36-2.986-51.406-3.24
						C1711.881,655.607,1709.269,655.587,1706.657,655.587z"/>
				</g>
				<g style="opacity:0.35;">
					<path style="fill:#371A45;" d="M1212.671,1436.643c39.35,82.525,99.475,155.564,177.427,210.578
						c15.902,11.211,32.481,21.672,49.789,31.297c8.406,4.708,17.052,9.199,25.841,13.559c26.556,12.996,53.637,23.63,81.053,31.986
						c23.614,7.26,47.492,12.787,71.4,16.711c28.871,4.753,57.856,7.079,86.672,7.148c10.509-0.01,20.986-0.299,31.429-0.863
						c191.134-10.75,371.003-121.611,461.116-305.802c48.125-98.329,64.064-204.092,51.885-305.255
						c-9.188,42.2-23.544,84.019-43.393,124.571c-33.792,69.072-88.545,94.369-143.442,141.404
						c-91.495,78.392-198.215,157.679-317.674,164.398c-10.443,0.564-20.92,0.853-31.429,0.863
						c-28.816-0.069-57.801-2.395-86.672-7.148c-23.908-3.923-47.786-9.451-71.4-16.711c-27.417-8.356-54.497-18.99-81.053-31.986
						c-8.79-4.36-17.435-8.85-25.841-13.56c-17.307-9.624-33.887-20.086-49.789-31.296
						c-77.952-55.016-138.077-128.053-177.427-210.578c-25.646-53.841-42.477-111.674-49.598-171.07
						C1145.351,1205.22,1161.289,1328.91,1212.671,1436.643z"/>
				</g>
				<g>
					<path style="fill:#371A45;" d="M1704.865,1760.035c-29.805-0.071-59.619-2.529-88.648-7.309
						c-24.795-4.067-49.355-9.814-72.993-17.08c-28.203-8.599-56.074-19.597-82.813-32.686c-9.863-4.895-18.491-9.421-26.436-13.867
						c-17.319-9.634-34.434-20.396-50.85-31.968c-77.642-54.795-140.356-129.229-181.372-215.259
						c-73.989-155.176-73.14-332.593,2.334-486.755c43.628-89.18,110.186-165.159,192.476-219.722
						c15.542-10.366,32.183-20.237,49.439-29.324c11.084-5.828,22.661-11.409,34.419-16.589
						c36.587-16.147,75.005-28.386,114.18-36.374c39.522-8.103,79.937-11.921,120.088-11.333
						c17.495,0.261,35.234,1.379,52.725,3.323c6.836,0.71,13.516,1.565,19.771,2.534c56.758,8.242,112.222,25.447,164.751,51.116
						c276.851,135.535,391.836,471.018,256.328,747.852c-88.765,181.436-269.356,301.201-471.304,312.561
						C1726.315,1759.73,1715.524,1760.026,1704.865,1760.035z M1706.657,665.902c-35.874,0-71.904,3.66-107.207,10.898
						c-37.495,7.646-74.253,19.358-109.268,34.81c-11.255,4.961-22.329,10.298-32.915,15.864
						c-16.514,8.694-32.432,18.135-47.305,28.057c-78.74,52.207-142.407,124.89-184.146,210.212
						c-72.207,147.495-73.018,317.239-2.227,465.713l0,0c39.233,82.295,99.224,153.496,173.481,205.901
						c15.713,11.079,32.095,21.379,48.691,30.613c7.617,4.263,15.898,8.606,25.342,13.291c25.527,12.498,52.197,23.02,79.199,31.253
						c22.622,6.953,46.108,12.449,69.834,16.343c27.759,4.57,56.27,6.921,84.746,6.99c10.195-0.01,20.552-0.293,30.742-0.845
						c193.198-10.867,365.982-125.454,450.908-299.041c129.643-264.856,19.634-585.82-245.23-715.488
						c-50.264-24.563-103.325-41.025-157.71-48.923c-5.972-0.925-12.246-1.729-18.765-2.405
						c-16.816-1.868-33.779-2.937-50.498-3.186C1711.774,665.919,1709.215,665.902,1706.657,665.902z"/>
				</g>
				<g>
					<path style="fill:#371A45;" d="M1704.87,1765.76c-30.132-0.071-60.254-2.556-89.585-7.385
						c-25.044-4.111-49.858-9.917-73.74-17.258c-28.481-8.682-56.641-19.795-83.647-33.018c-9.98-4.949-18.691-9.519-26.719-14.011
						c-17.48-9.724-34.771-20.596-51.348-32.285c-78.442-55.359-141.807-130.559-183.242-217.473l0,0
						c-74.746-156.763-73.887-335.994,2.358-491.736c44.072-90.093,111.314-166.851,194.453-221.975
						c15.693-10.466,32.505-20.439,49.937-29.617c11.201-5.891,22.9-11.528,34.78-16.763
						c36.958-16.313,75.767-28.677,115.342-36.748c39.917-8.186,80.693-12.043,121.313-11.445
						c17.681,0.264,35.601,1.394,53.276,3.357c6.89,0.715,13.662,1.582,20.015,2.566c57.285,8.32,113.325,25.698,166.382,51.628
						c279.693,136.926,395.855,475.845,258.96,755.513c-89.673,183.291-272.114,304.285-476.123,315.759
						C1726.525,1765.45,1715.631,1765.751,1704.87,1765.76z M1706.657,671.625c-35.488,0-71.133,3.623-106.06,10.784
						c-37.099,7.566-73.462,19.15-108.101,34.438c-11.143,4.91-22.095,10.188-32.568,15.693
						c-16.333,8.601-32.08,17.94-46.792,27.754c-77.905,51.653-140.884,123.557-182.178,207.964
						c-71.435,145.918-72.236,313.848-2.202,460.735l0,0c38.813,81.411,98.159,151.846,171.616,203.689
						c15.542,10.96,31.753,21.15,48.174,30.286c7.549,4.224,15.747,8.523,25.103,13.167c25.229,12.349,51.611,22.761,78.325,30.903
						c22.388,6.882,45.62,12.319,69.092,16.172c27.461,4.519,55.664,6.846,83.833,6.912c10.073-0.01,20.327-0.291,30.42-0.835
						c191.118-10.752,362.061-124.111,446.074-295.842c128.257-262.021,19.424-579.551-242.607-707.832
						c-49.722-24.299-102.217-40.586-156.016-48.398c-5.928-0.918-12.104-1.709-18.53-2.375c-16.675-1.853-33.452-2.91-49.995-3.157
						C1711.715,671.644,1709.186,671.625,1706.657,671.625z"/>
				</g>
				<g>
					<path style="fill:#371A45;" d="M1288.71,1554.389c308.468,240.083,751.967,103.089,794.819-281.684
						c29.154-261.777-204.645-492.431-457.859-504.333c-184.293-8.662-368.005,63.503-459.642,345.855
						c0,0-21.263,131.257,9.99,220.985s76.792,171.718,76.792,171.718L1288.71,1554.389z"/>
				</g>
				<g style="opacity:0.35;">
					<path style="fill:#111A28;" d="M1978.824,947.468c33.033,68.66,48.586,145.496,39.706,225.237
						c-42.689,383.298-482.941,520.664-791.25,284.375c14.705,30.347,25.531,49.849,25.531,49.849l35.9,47.461
						c308.468,240.083,751.967,103.088,794.819-281.685C2097.043,1151.372,2054.042,1036.746,1978.824,947.468z"/>
				</g>
				<g>
					<path style="fill:#371A45;" d="M1626.911,1743.553c-27.202,0-54.629-1.875-82.046-5.681l-2.144-0.474
						c-28.325-8.633-56.289-19.668-83.115-32.8c-9.898-4.91-18.55-9.451-26.524-13.911c-17.368-9.663-34.541-20.459-51.006-32.07
						c-77.896-54.973-140.82-129.653-181.973-215.964c-74.229-155.684-73.374-333.679,2.344-488.345
						c43.769-89.47,110.547-165.698,193.11-220.439l1.201-0.801l1.348-0.535c67.124-26.692,144.043-38.21,228.643-34.228
						c150.688,7.082,301.948,83.14,404.619,203.455c94.351,110.561,138.101,245.117,123.198,378.879
						c-16.206,145.378-82.246,266.909-190.977,351.455C1870.368,1704.581,1750.944,1743.553,1626.911,1743.553z M1549.786,1710.445
						c144.692,19.795,289.214-16.743,396.714-100.332c102.661-79.827,165.039-194.822,180.391-332.559
						c14.043-126.033-27.402-253.076-116.704-357.722c-97.768-114.573-241.597-186.99-384.746-193.716
						c-80.01-3.762-152.598,6.921-215.708,31.758c-77.881,51.951-140.893,124.077-182.275,208.672
						c-71.963,146.992-72.769,316.157-2.217,464.124l0,0c39.097,82.014,98.882,152.969,172.886,205.195
						c15.654,11.04,31.982,21.306,48.526,30.508c7.598,4.253,15.849,8.582,25.264,13.252
						C1497.018,1691.913,1523.234,1702.289,1549.786,1710.445z"/>
				</g>
				<g>
					<path style="fill:#371A45;" d="M1627.506,1691.51c-121.924,0-245.752-42.126-349.736-123.059l-1.855-1.441l-38.682-51.428
						c-1.89-3.403-46.646-84.368-78.042-174.507c-32.363-92.92-11.65-224.155-10.752-229.697l0.64-2.651
						c80.737-248.75,241.328-369.267,477.427-358.154c135.537,6.372,271.553,74.744,363.853,182.898
						c84.927,99.514,124.302,220.689,110.884,341.206c-19.37,173.901-120.171,311.479-276.553,377.458
						C1762.028,1678.57,1695.05,1691.51,1627.506,1691.51z M1301.495,1541.751c151.172,116.677,346.118,146.416,509.341,77.546
						c144.146-60.815,237.085-187.864,254.985-348.567c12.319-110.625-24.111-222.183-102.573-314.126
						c-86.025-100.803-212.534-164.517-338.413-170.432c-217.642-10.256-366.113,101.528-441.416,332.187
						c-2.026,13.618-18.35,131.245,9.424,210.994c28.467,81.721,69.58,158.013,74.961,167.861L1301.495,1541.751z"/>
				</g>
				<g>
					<path style="fill:#FFFFFF;" d="M2042.564,1277.168c0,0.78,0,1.609,0.049,2.389c1.95,106.725,66.113,189.318,144.073,184.93
						c78.545-4.387,141.343-95.463,140.318-203.359c-0.829-83.226-39.443-152.215-93.172-177.276
						c-15.845-7.459-33.056-11.067-50.949-10.043C2104.338,1078.245,2041.492,1169.32,2042.564,1277.168z"/>
				</g>
				<g style="opacity:0.35;">
					<path style="fill:#371A45;" d="M2042.613,1279.557c1.95,106.725,66.113,189.318,144.073,184.93
						c78.545-4.387,141.343-95.463,140.318-203.359c-0.18-18.072-2.142-35.473-5.653-51.899
						c-14.931-69.848-110.09-81.453-142.735-17.924l-35.128,68.36c0,0-19.892,45.83-64.698,45.83
						C2063.578,1305.495,2051.682,1294.33,2042.613,1279.557z"/>
				</g>
				<g>
					<path style="fill:#371A45;" d="M2180.612,1482.496c-32.73,0-63.774-12.932-90.195-37.661
						c-41.084-38.457-65.029-99.5-65.689-167.473c-1.133-117.087,69.36-216.372,157.144-221.321
						c35.298-2.017,68.94,10.962,97.251,37.463c41.084,38.459,65.024,99.502,65.684,167.471l0,0
						c1.142,117.087-69.355,216.372-157.144,221.321C2185.309,1482.43,2182.951,1482.496,2180.612,1482.496z M2188.786,1091.483
						c-1.631,0-3.267,0.046-4.912,0.139c-69.052,3.894-124.463,87.061-123.51,185.393c0.562,57.424,20.898,110.435,54.409,141.802
						c21.021,19.678,45.415,29.319,70.889,27.898c69.058-3.894,124.468-87.06,123.511-185.393l0,0
						c-0.557-57.422-20.894-110.432-54.404-141.799C2235.104,1101.117,2212.384,1091.483,2188.786,1091.483z"/>
				</g>
				<g>
					
						<ellipse transform="matrix(0.0769 -0.997 0.997 0.0769 780.394 3408.4482)" style="fill:#FFFFFF;" cx="2230.905" cy="1282.778" rx="152.97" ry="115.8"/>
					<path style="fill:#371A45;" d="M2225.939,1437.374c-14.219,0-28.325-3.354-41.533-10.039
						c-59.6-30.168-87.388-119.49-61.938-199.114c14.146-44.272,42.217-78.02,77.017-92.59c25.684-10.757,53.359-9.834,77.92,2.59
						c59.6,30.166,87.388,119.487,61.938,199.114l0,0c-14.146,44.273-42.217,78.02-77.017,92.59
						C2250.456,1434.896,2238.156,1437.374,2225.939,1437.374z M2235.948,1131.744c-11.675,0-23.452,2.422-35.044,7.276
						c-33.809,14.155-61.123,47.075-74.941,90.32c-24.917,77.981,2.041,165.33,60.103,194.714
						c23.916,12.109,49.805,12.964,74.839,2.483c33.809-14.155,61.123-47.075,74.941-90.32l0,0
						c24.922-77.983-2.041-165.332-60.103-194.714C2262.902,1135.001,2249.489,1131.744,2235.948,1131.744z"/>
				</g>
				<g style="opacity:0.35;">
					<path style="fill:#371A45;" d="M2119.885,1345.735c-7.447-28.452-7.116-59.047-0.488-87.839
						c22.442,63.445,80.592,88.853,134.827,56.598c35.054-20.827,60.39-60.976,70.622-105.534c1.442,3.992,2.702,8.193,3.84,12.505
						c18.927,72.459-8.039,167.001-65.708,201.313C2205.309,1457.09,2138.811,1418.153,2119.885,1345.735z"/>
				</g>
				<g>
					<path style="fill:#371A45;" d="M2227.409,1458.216c-24.365,0.002-47.598-9.7-67.515-28.269
						c-33.34-31.079-53.442-84.148-53.779-141.955c-0.571-98.735,53.506-179.583,123.115-184.06
						c26.475-1.694,51.934,8.003,73.472,28.081c33.335,31.079,53.438,84.148,53.77,141.955
						c0.576,98.733-53.501,179.58-123.11,184.058C2231.373,1458.153,2229.386,1458.216,2227.409,1458.216z M2235.065,1139.383
						c-1.167,0-2.349,0.037-3.55,0.115c-49.101,3.157-90.21,71.065-89.765,148.286c0.283,48.181,16.147,91.582,42.446,116.094
						c9.888,9.216,25.962,19.968,46.88,18.581c49.106-3.157,90.21-71.064,89.76-148.284v-0.003
						c-0.278-48.179-16.142-91.58-42.436-116.094C2269.079,1149.393,2254.191,1139.383,2235.065,1139.383z"/>
				</g>
				<g style="opacity:0.7;">
					<path style="fill:#FFFFFF;" d="M1463.587,881.129c3.06-4.319-15.829,0.566-15.829,0.566l-13.458,0.965
						c0,0-23.913,2.767-35.658,4.988c-11.854,2.242-23.56,5.046-35.071,8.395c-13.831,4.024-26.381,11.736-35.784,22.648
						c-39.899,46.307-70.078,102.257-86.463,165.444c-32.873,126.784-6.953,223.611,60.922,316.751
						c0,0-12.712-66.971,13.119-199.607C1329.813,1127.091,1353.104,1037.052,1463.587,881.129z"/>
				</g>
				<g style="opacity:0.7;">
					
						<ellipse transform="matrix(0.0769 -0.997 0.997 0.0769 562.3041 2932.9854)" style="fill:#FFFFFF;" cx="1865.091" cy="1162.824" rx="85.189" ry="73.105"/>
				</g>
				<g style="opacity:0.7;">
					
						<ellipse transform="matrix(0.1608 -0.987 0.987 0.1608 242.7083 2970.1277)" style="fill:#FFFFFF;" cx="1867.89" cy="1342.343" rx="35.177" ry="30.187"/>
				</g>
			</g>
			<g>
				<path style="fill:#FFFFFF;" d="M2038.43,1657.563c167.302-44.826,154.99-179.122,134.711-207.368
					c-28.275-39.383-146.299-24.142-189.206,65.319c-42.025,87.622-116.429,56.355-127.292,190.342
					c-9.743,120.165,28.246,158.611,62.044,182.753c30.606,21.861,170.579,59.041,245.091-15.451
					c119.353-119.321,98.687-339.916,98.687-339.916"/>
			</g>
			<g style="opacity:0.35;">
				<path style="fill:#371A45;" d="M2050.776,1657.848c0,0,7.536,70.909,43.24,69.494c35.704-1.415,61.643-141.651,61.643-141.651
					S2123.201,1640.465,2050.776,1657.848z"/>
			</g>
			<g style="opacity:0.35;">
				<path style="fill:#371A45;" d="M2163.765,1873.156c-74.485,74.484-214.455,37.331-245.06,15.458
					c-33.812-24.145-71.812-62.59-62.056-182.737c0.267-3.564,0.624-6.994,1.025-10.335c8.331,61.744,35.817,87.671,61.031,105.668
					c30.605,21.873,170.575,59.026,245.06-15.458c70.832-70.832,92.393-177.346,98.184-252.188l0.534-0.312
					C2262.484,1533.253,2283.11,1753.856,2163.765,1873.156z"/>
			</g>
			<g>
				<path style="fill:#371A45;" d="M2036.892,1651.826c28.638-17.395,55.808-31.741,78.318-51.013
					c11.115-9.673,20.956-20.364,28.997-32.207c7.925-11.882,14.303-24.841,18.064-38.718c3.884-13.799,5.243-28.486,3.871-42.576
					c-0.668-7.002-2.109-13.921-4.18-19.805c-1.036-2.756-2.328-5.618-3.24-6.816c-1.278-1.494-2.549-3.159-4.678-4.539
					c-3.898-2.947-9.606-5.278-15.912-6.658c-6.31-1.421-13.218-2.007-20.242-1.895c-14.104,0.173-28.616,3.347-42.34,8.269
					c-27.48,10.129-51.78,28.687-67.434,52.927c-1.842,3.098-3.864,6.096-5.469,9.336l-2.499,4.807l-3.214,5.95
					c-2.22,3.994-4.281,8.057-6.674,11.968l-7.911,11.387c-11.16,14.817-25.245,27.329-39.017,37.5
					c-13.783,10.276-26.659,18.882-36.393,28.975c-9.845,9.968-16.782,21.758-21.941,35.198c-2.131,6.992-4.673,13.765-5.875,21.333
					c-0.726,3.704-1.614,7.339-2.236,11.096l-1.353,11.514c-0.399,3.865-1.042,7.61-1.256,11.57l-0.701,11.855
					c-0.657,7.927-0.414,15.735-0.608,23.599c0.32,31.14,4.559,62.224,17.848,87.456c6.484,12.7,15.619,23.32,26.604,32.808
					c2.902,2.295,5.673,4.653,8.802,6.875c1.531,1.14,3.156,2.354,4.125,2.927c1.03,0.742,2.632,1.541,3.975,2.322
					c5.99,3.12,13.008,5.935,20.143,8.367c28.871,9.661,60.386,14.473,90.897,13.906c30.511-0.579,60.657-7.332,85.057-22.568
					c6.036-3.86,11.825-8.074,17.01-12.954l3.921-3.65l3.921-4.182c2.559-2.844,5.37-5.442,7.736-8.474
					c10.143-11.487,18.871-24.28,26.89-37.507c8.018-13.252,14.91-27.285,20.863-41.777c5.972-14.48,11.167-29.363,15.426-44.59
					c4.248-15.229,7.783-30.715,10.569-46.377c2.838-15.662,4.163-31.592,5.289-47.49c2.737-31.858,3.995-63.389,14.506-96.177
					l0.05-0.159c1.077-3.359,4.674-5.21,8.035-4.133c1.682,0.54,2.996,1.726,3.743,3.184c4.198,8.24,6.628,16.477,8.734,24.871
					c2,8.374,3.242,16.816,3.916,25.273c1.193,16.909,0.863,33.892-1.116,50.72c-1.97,16.836-5.046,33.521-8.042,50.22
					c-3.048,16.694-6.777,33.311-11.385,49.751c-4.602,16.44-10.244,32.661-16.808,48.569
					c-6.544,15.913-14.181,31.489-23.177,46.379c-8.995,14.866-18.901,29.341-30.519,42.537c-2.72,3.442-5.933,6.484-8.882,9.739
					l-4.524,4.802l-5.089,4.768c-6.813,6.37-14.352,11.902-22.164,16.873c-15.76,9.746-32.911,16.799-50.388,21.101
					c-17.473,4.473-35.216,6.499-52.792,6.882c-35.217,0.571-69.675-4.663-103.175-15.803c-8.411-2.891-16.727-6.135-25.327-10.608
					c-2.222-1.257-4.308-2.31-6.665-3.901c-2.52-1.602-4.17-2.878-5.942-4.185c-3.571-2.546-7.094-5.486-10.619-8.313
					c-13.932-11.885-26.597-26.694-35.092-43.345c-8.71-16.555-14.034-34.187-17.345-51.655c-3.452-17.532-4.237-34.932-4.645-52.19
					c0.186-8.569-0.033-17.227,0.652-25.696l0.759-12.764c0.234-4.248,0.935-8.633,1.388-12.942l1.552-12.976
					c0.714-4.346,1.737-8.721,2.606-13.076c1.439-8.713,4.504-17.446,7.277-26.145c6.467-17.273,16.531-34.338,29.883-47.764
					c13.23-13.552,28.025-23.169,40.507-32.583c12.631-9.368,23.253-19.004,31.952-30.457l6.167-8.86
					c1.885-3.098,3.511-6.404,5.303-9.58l2.676-4.883l3.177-6.14c2.074-4.114,4.612-7.988,7.001-11.926
					c20.137-31.13,50.85-54.387,85.006-66.958c17.178-6.16,35.225-10.173,54.048-10.457c9.403-0.142,18.998,0.588,28.734,2.771
					c9.691,2.202,19.711,5.803,29.075,12.656c4.702,3.245,9.023,7.754,12.745,12.747c3.853,5.537,5.739,10.342,7.634,15.239
					c3.405,9.626,5.145,18.958,6.158,28.293c1.901,18.625,0.596,37.219-3.668,55.264c-4.171,18.059-11.667,35.405-21.786,50.989
					c-10.306,15.461-23.317,28.923-37.848,39.792c-28.99,22.009-63.795,33.574-98.363,33.582c-3.396,0-6.149-2.751-6.15-6.147
					c0-2.224,1.179-4.17,2.947-5.251L2036.892,1651.826z"/>
			</g>
			<g>
				<path style="fill:#371A45;" d="M2103.112,1640.295c0.818,7.036,0.349,14.478-0.071,21.66c-0.474,7.234-1.542,14.431-2.33,21.65
					c-0.728,7.195-1.393,14.348-1.613,21.482c-0.195,7.175-0.117,14.08,2.522,20.83l0.189,0.483
					c0.399,1.021-0.105,2.173-1.127,2.571c-0.627,0.247-1.316,0.144-1.837-0.205c-1.698-1.152-3.768-2.38-5.339-3.936
					c-1.45-1.55-3.055-3.237-4.31-5.007c-1.2-1.758-2.389-3.601-3.485-5.491c-0.933-1.87-1.924-3.762-2.815-5.708
					c-3.308-7.72-5.621-15.681-7.246-23.625c-1.545-7.932-2.756-15.911-2.854-23.84c-0.028-7.981,0.378-15.691,2.625-23.757
					c2.09-7.507,9.869-11.897,17.377-9.807c5.686,1.582,9.584,6.431,10.232,11.951L2103.112,1640.295z"/>
			</g>
			<g>
				<path style="fill:#371A45;" d="M1447.318,1736.118c5.077,1.401,10.743,2.715,16.174,3.916c5.49,1.191,11.012,2.314,16.521,3.252
					c10.999,1.88,22.133,3.32,32.606,3.188l0.471-0.007c4.943-0.061,9,3.894,9.063,8.838c0.052,4.153-2.74,7.681-6.564,8.74
					c-12.401,3.428-24.512,4.873-36.595,5.95c-6.045,0.53-12.061,0.862-18.092,1.116c-6.089,0.227-11.93,0.4-18.32,0.33
					l-0.242-0.002c-9.932-0.11-17.894-8.25-17.784-18.181c0.109-9.932,8.248-17.893,18.18-17.783
					C1444.291,1735.491,1445.883,1735.732,1447.318,1736.118z"/>
			</g>
		</g>
	</g>
</g>
</svg>
