<svg xmlns="http://www.w3.org/2000/svg" xmlns:xlink="http://www.w3.org/1999/xlink" version="1.1" x="0px" y="0px" viewBox="0 0 700 500" style="enable-background:new 0 0 700 500;" xml:space="preserve">
<g id="BACKGROUND">
	<rect y="373.423" style="fill:#43b7ff;" width="700" height="126.577"/>
</g>
<g id="OBJECTS">
	<g>
		<g>
			
			
			
			<g>
				<g>
					<g>
						
					</g>
				</g>
				<g>
					<g>
						
					</g>
				</g>
			</g>
			
			<g>
				<g>
					
				</g>
				<g>
					
				</g>
			</g>
		</g>
		<g>
			<path style="fill:#385AA3;" d="M549.857,430.864H150.028V171.591c0-5.732,4.647-10.379,10.379-10.379h379.07     c5.732,0,10.379,4.647,10.379,10.379V430.864z"/>
			<path style="fill:#304F91;" d="M219.412,161.212h-59.005c-5.732,0-10.379,4.647-10.379,10.379v259.273h339.036L219.412,161.212z"/>
			<path style="fill:#ededf4;" d="M529.942,415.367H169.943V188.121c0-5.161,4.184-9.345,9.345-9.345h341.308     c5.161,0,9.345,4.184,9.345,9.345V415.367z"/>
			
			<path style="fill:#4972C7;" d="M537.976,465.991H161.908c-19.114,0-34.609-15.495-34.609-34.61l0,0     c0-1.427,1.157-2.584,2.584-2.584h440.12c1.427,0,2.584,1.157,2.584,2.584l0,0C572.586,450.496,557.091,465.991,537.976,465.991z     "/>
			<path style="fill:#547CD1;" d="M570.002,428.797H367.967l37.193,37.193h132.816c19.114,0,34.609-15.495,34.609-34.61     C572.586,429.954,571.429,428.797,570.002,428.797z"/>
		</g>
		<g>
			<path style="fill:#FEC164;" d="M247.706,275.148l-7.992-8.288v-9.715c0-2.748-2.228-4.976-4.976-4.976h-48.086     c-2.748,0-4.976,2.228-4.976,4.976v16.208c0,2.748,2.228,4.976,4.976,4.976h41.966h6.12h11.616     C248.011,278.328,248.856,276.34,247.706,275.148z"/>
			<g>
				<path style="fill:#FFFFFF;" d="M200.143,265.328c0,2.578-2.09,4.667-4.667,4.667c-2.577,0-4.667-2.09-4.667-4.667      s2.09-4.667,4.667-4.667C198.054,260.661,200.143,262.751,200.143,265.328z"/>
				<path style="fill:#FFFFFF;" d="M215.363,265.169c0,2.578-2.09,4.667-4.667,4.667c-2.578,0-4.667-2.09-4.667-4.667      c0-2.578,2.09-4.667,4.667-4.667C213.273,260.502,215.363,262.591,215.363,265.169z"/>
				<path style="fill:#FFFFFF;" d="M230.582,265.169c0,2.578-2.089,4.667-4.667,4.667s-4.667-2.09-4.667-4.667      c0-2.578,2.09-4.667,4.667-4.667S230.582,262.591,230.582,265.169z"/>
			</g>
		</g>
		<g>
			<g>
				<path style="fill:#FEC164;" d="M490.311,125.358c-0.316,0-0.633-0.096-0.902-0.29l-39.961-28.607      c-0.065,0.292-0.106,0.592-0.106,0.904v41.773c0,2.284,1.852,4.136,4.136,4.136h73.666c2.284,0,4.136-1.852,4.136-4.136V97.365      c0-0.618-0.145-1.199-0.388-1.726l-39.658,29.414C490.96,125.256,490.636,125.358,490.311,125.358z"/>
				<path style="fill:#FEC164;" d="M528.575,93.498c-0.448-0.166-0.926-0.27-1.432-0.27h-73.666c-0.838,0-1.616,0.253-2.268,0.682      l39.085,27.98L528.575,93.498z"/>
			</g>
			<g>
				
					<ellipse transform="matrix(0.2314 -0.9729 0.9729 0.2314 314.6917 586.4968)" style="fill:#DCEDFD;" cx="528.513" cy="94.095" rx="16.283" ry="16.283"/>
				<g>
					<path style="fill:#385AA3;" d="M531.6,103.763c0,1.705-1.382,3.087-3.088,3.087c-1.705,0-3.088-1.382-3.088-3.087       c0-1.705,1.382-3.088,3.088-3.088C530.218,100.675,531.6,102.057,531.6,103.763z"/>
					<path style="fill:#385AA3;" d="M527.082,97.839l-1.4-13.357c-0.164-1.563,0.971-2.964,2.534-3.127       c1.563-0.164,2.963,0.971,3.127,2.534c0.021,0.196,0.018,0.405,0,0.593l-1.4,13.357c-0.083,0.79-0.791,1.364-1.581,1.281       C527.674,99.048,527.151,98.501,527.082,97.839z"/>
				</g>
			</g>
		</g>
		<g>
			<path style="fill:#FEC164;" d="M279.442,185.526l-17.447-18.093v-51.729c0-4.537-3.678-8.214-8.214-8.214h-63.89     c-4.537,0-8.214,3.678-8.214,8.214v67.186c0,4.537,3.678,8.214,8.214,8.214h55.428l-0.083,0.122h31.784     C279.988,191.225,281.501,187.662,279.442,185.526z"/>
			<path style="fill:#FFFFFF;" d="M217.755,144.48l-2.658-5.02l6.356-3.366c1.567-0.83,2.165-2.773,1.335-4.34l-5.589-10.555     c-0.83-1.567-2.773-2.165-4.34-1.335l-3.462,1.833c-7.929,4.199-10.953,14.03-6.755,21.96l3.65,6.893l3.712,7.01l6.169,11.46     c4.199,7.929,14.03,10.953,21.96,6.755l3.462-1.833c1.567-0.83,2.165-2.773,1.335-4.34l-5.589-10.555     c-0.83-1.567-2.773-2.165-4.34-1.335l-6.356,3.365l-5.177-9.587L217.755,144.48z"/>
		</g>
		<g>
			<path style="fill:#F3AA81;" d="M514.99,314.001c7.369-11.55,15.773-22.44,25.078-32.496c0.675-0.729,1.371-1.481,1.716-2.413     c0.344-0.932,0.248-2.103-0.499-2.759c-1.19-1.045-3.036-0.222-4.35,0.662c-3.069,2.064-5.837,4.039-8.591,6.507     c3.217-4.892,6.435-9.784,9.652-14.676c0.484-0.736,0.976-1.49,1.186-2.346c0.21-0.855,0.086-1.846-0.536-2.47     c-0.618-0.621-1.605-0.75-2.454-0.533c-0.849,0.218-1.588,0.73-2.286,1.26c-4.414,3.353-7.913,7.74-11.363,12.078     c3.826-6.245,7.196-12.769,10.073-19.503c0.593-1.387,1.13-3.105,0.207-4.298c-0.681-0.882-1.974-1.105-3.045-0.796     c-1.071,0.309-1.959,1.051-2.758,1.827c-5.129,4.98-7.802,11.898-10.328,18.585c1.492-5.798,2.858-11.271,3.235-17.252     c0.09-1.431-0.037-3.192-1.328-3.814c-0.914-0.44-2.054-0.044-2.771,0.673c-0.717,0.717-1.105,1.691-1.47,2.637     c-2.227,5.764-4.32,11.58-6.277,17.441c-0.358,1.071-3.484,12.671-6.402,8.695c-0.423-0.577-0.57-1.305-0.706-2.007     c-0.444-2.297-0.888-4.594-1.332-6.89c-0.227-1.176-0.476-2.401-1.216-3.342c-1.555-1.981-3.905-1.181-4.325,1.122     c-1.919,10.522,3.703,21.074,3.191,31.758C504.149,303.708,510.697,308.272,514.99,314.001z"/>
			<path style="fill:#226B9E;" d="M229.876,415.367c0,0,19.842-82.74,28.803-104.502c8.961-21.763,15.028-33.037,45.919-42.122     c30.89-9.084,88.497-6.844,106.74,8.838c18.242,15.682,45.766,83.21,45.766,83.21l39.685-61.127c0,0,14.402,5.761,20.163,13.762     c0,0-40.005,97.292-59.847,98.572c-19.842,1.28-48.006-61.127-48.006-61.127l10.561,64.498H229.876z"/>
			<path style="fill:#1A5680;" d="M265.512,307.176c1.855-7.222,4.124-14.46,7.14-21.31c-6.031,6.53-9.672,14.555-13.973,24.999     c-8.961,21.763-28.804,104.503-28.804,104.503h7.976C237.93,415.213,263.143,316.401,265.512,307.176z"/>
			<path style="fill:#1A5680;" d="M515.544,315.379c-6.819,8.572-13.638,17.365-20.008,26.259     c-7.049,9.842-12.414,20.795-20.733,29.73c-9.239,9.923-23.098,14.565-34.19,4.454c-6.368-5.805-9.925-14.443-14.101-21.812     c-4.798-8.467-9.652-16.909-14.03-25.604c-2.388-4.742-4.631-9.562-6.653-14.459c-0.028,2.257-0.022,4.511,0.069,6.753     c0.464,11.514,2.727,23.117,5.199,34.412c6.764,14.024,29.325,57.959,46.007,56.883c18.988-1.225,56.433-90.355,59.624-98.034     C516.334,314.436,515.928,314.897,515.544,315.379z"/>
			<path style="fill:#214A6A;" d="M392.008,265.659c-5.393-2.53-10.903-4.811-16.505-6.835c-4.345-1.57-8.45-3.919-13.034-4.415     c-11.131-1.204-22.628-0.034-33.363,3.084c-11.864,3.445-22.946,8.07-34.408,12.949c-3.124,1.329-6.486,2.873-8.045,5.889     c-2.174,4.204,0.106,9.341,2.997,13.089c2.852,3.697,6.321,6.908,8.934,10.778c2.613,3.87,4.335,8.713,3.094,13.214     c-1.523,5.527-7.096,9.288-8.392,14.873c-0.94,4.052,0.565,8.226,2.046,12.113c3.007,7.892,6.013,15.784,9.02,23.676     c5.291,13.887,11.19,28.585,23.286,37.218c5.234,3.736,12.002,6.133,18.122,4.157c5.287-1.707,9.069-6.287,12.299-10.808     c9.116-12.759,16.282-26.776,22.704-41.046c2.742-6.092,5.672-11.953,8.569-17.83c2.531-5.136,1.71-12.061-2.574-16.027     c-2.038-1.887-4.754-3.253-5.867-5.797c-1.513-3.457,0.594-7.331,2.525-10.573c5.119-8.596,9.467-17.65,12.976-27.018     c0.781-2.086,1.52-4.42,0.685-6.484C396.234,267.779,394.046,266.615,392.008,265.659z"/>
			<path style="fill:#FFFFFF;" d="M324.737,255.809c0,0-17.043,79.419-9.883,159.557c0,0,57.9,0,58.212,0     s-6.943-128.144-2.227-154.746L324.737,255.809z"/>
			<path style="fill:#DDE1EB;" d="M327.507,415.367h0.609c-0.059-1.062-0.099-2.124-0.151-3.186     C327.809,413.242,327.657,414.304,327.507,415.367z"/>
			<path style="fill:#DDE1EB;" d="M370.839,260.621l-7.749-0.809c-4.085,25.918-3.737,52.501-2.792,78.653     c0.632,17.476,1.585,34.921,1.995,52.407c0.19,8.108,0.242,16.148,1.666,24.151c0.02,0.115,0.042,0.229,0.062,0.343h9.044     C373.377,415.367,366.122,287.222,370.839,260.621z"/>
			<g>
				<path style="fill:#E6996F;" d="M368.51,218.539c0.254-0.181,0.507-0.358,0.76-0.532c0.965,2.89,0.716,6.024,0.505,9.063      c-0.376,5.425-0.801,10.794-0.99,16.227c-0.174,5.012,0.804,9.491,1.816,14.435c0.195,0.952,0.39,1.929,0.237,2.888      c-0.175,1.093-0.789,2.066-1.483,2.928c-5.094,6.332-14.184,7.628-22.307,7.372c-6.764-0.213-14.131-1.222-19.861-5.113      c-3.429-2.329-2.284-3.399-2.206-7.038c0.058-2.705,0.031-4.918,0.563-7.654c0.385-1.979,3.482-18.517,0.848-18.476      c7.492-0.123,14.948-1.472,22.056-3.829c3.458-1.147,6.967-2.51,10.303-3.913C362.206,223.445,365.399,220.753,368.51,218.539z"/>
				<path style="fill:#CC835B;" d="M370.602,257.733c-1.012-4.944-1.99-9.423-1.816-14.435c0.188-5.433,0.614-10.802,0.99-16.227      c0.211-3.04,0.46-6.174-0.505-9.063c-0.253,0.173-0.507,0.351-0.761,0.532c-3.111,2.214-6.304,4.907-9.759,6.359      c-3.335,1.403-6.845,2.766-10.302,3.913c-7.108,2.357-14.564,3.706-22.056,3.829c1.69-0.026,1.02,6.763,0.222,12.162      c8.854,4.182,20.329,0.141,27.94,7.607c4.362,4.279,6.351,10.287,7.614,16.334c2.785-1.142,5.27-2.81,7.188-5.194      c0.694-0.862,1.308-1.835,1.483-2.928C370.993,259.661,370.797,258.684,370.602,257.733z"/>
				<path style="fill:#464559;" d="M386.621,142.677c2.787,4.283,4.46,9.837,5.891,14.72c1.344,4.589,2.044,9.367,2.066,14.149      c0.023,5.042,0.364,9.924-0.458,14.943c-1.207,7.368-4.011,14.413-8.316,20.519c-4.395,6.234-10.302,10.699-15.263,16.398      c-1.348,1.549-3.459,3.926-5.804,2.55c-1.742-1.022-1.555-3.55-1.215-5.541c1.724-10.108,1.474-20.542-0.709-30.56      c-2.1-9.637-5.155-18.822-6.303-28.726c-0.712-6.14-5.248-3.533-9.233-2.185c-5.17,1.748-10.833,2.943-16.161,1.137      c-1.769-0.6-3.432-1.512-5.25-1.941c-1.906-0.45-3.892-0.349-5.848-0.246c-10.821,0.573-20.257,3.008-30.711-1.615      c-6.492-2.871-10.61-9.259-9.087-16.577c1.555-7.472,9.2-12.858,16.754-12.003c2.244,0.254,4.465,1.003,6.711,0.765      c2.907-0.308,3.728-2.486,5.429-4.391c1.862-2.085,4.405-3.799,6.805-5.193c5.011-2.909,10.717-4.579,16.48-5.063      c13.197-1.107,29.679,2.611,37.397,14.275c1.042,1.575,1.96,3.301,3.46,4.449c1.313,1.005,2.946,1.469,4.457,2.143      C381.407,136.331,384.415,139.286,386.621,142.677z"/>
				<g>
					<path style="fill:#3C3B4D;" d="M384.155,209.184c3.324-7.69,5.518-15.65,1.576-23.333c-2.572-5.013-6.352-7.597-6.558-13.555       c-0.233-6.756,0.627-13.57-0.919-20.237c-1.573-6.783-6.482-15.387-11.833-19.898c-5.236-4.414-12.876-7.279-19.429-8.959       c-7.232-1.854-14.653-1.826-22.05-1.329c-5.278,0.355-10.469,1.415-15.702,2.07c-0.04,0.044-0.084,0.086-0.124,0.13       c-1.701,1.905-2.522,4.083-5.429,4.391c-2.246,0.238-4.467-0.511-6.711-0.765c-0.794-0.09-1.589-0.096-2.378-0.053       c-1.433,3.3-1.18,7.32,2.525,8.588c2.224,0.761,5.023,0.55,7.343,0.521c7.871-0.097,16.251-5.07,24.17-5.044       c11.533,0.038,24.589,0.568,33.836,8.449c9.769,8.326,9.137,29.427,8.529,40.945c-0.428,8.11-2.643,15.554-6.448,22.284       c0.254,5.691-0.072,11.408-1.03,17.025c-0.34,1.991-0.527,4.518,1.215,5.541c2.344,1.376,4.456-1.001,5.804-2.55       C374.906,218.392,380,214.331,384.155,209.184z"/>
				</g>
				<path style="fill:#F3AA81;" d="M327.248,149.34c-8.147,1.206-14.28,7.039-22.267,8.656c-0.13,0.026-0.276,0.062-0.344,0.176      c-0.065,0.108-0.036,0.245-0.004,0.367c0.862,3.377,1.892,6.567,2.203,10.067c0.597,6.741,0.599,13.67-0.463,20.366      c-1.054,6.644-2.687,13.324-2.066,20.099c0.745,8.129,4.899,15.892,11.25,21.021c8.818,7.123,21.139,8.154,31.908,5.766      c18.03-3.999,28.743-22.393,27.665-40.125c-0.029-0.472-0.041-1.01,0.299-1.338c0.172-0.167,0.408-0.247,0.636-0.323      c4.007-1.33,7.505-3.124,8.811-7.517c0.527-1.773,0.564-3.776-0.34-5.39c-2.858-5.103-9.908-1.36-11.97,2.357      c-0.711,1.281-0.61,2.237-2.164,2.69c-2.709,0.79-3.876,0.584-4.908-2.176c-1.237-3.308-0.081-6.205-0.081-9.538      c0-3.529,0.442-6.343-1.436-9.332c-0.956-1.521-2.266-2.822-3.018-4.453c-0.764-1.657-0.894-3.534-0.855-5.358      c0.07-3.219,0.636-6.427,1.67-9.476c-2.319,1.927-4.774,3.788-7.623,4.774c-4.284,1.482-8.987,0.837-13.436-0.031      C336.264,149.757,331.732,148.676,327.248,149.34z"/>
				<path style="fill:#E6996F;" d="M384.533,181.167c-2.858-5.103-9.908-1.36-11.97,2.357c-0.711,1.281-0.61,2.237-2.164,2.69      c-2.709,0.79-3.876,0.584-4.908-2.176c-1.237-3.308-0.081-6.205-0.081-9.538c0-3.529,0.442-6.343-1.435-9.332      c-0.956-1.521-2.266-2.822-3.018-4.453c-0.764-1.657-0.894-3.534-0.855-5.358c0.07-3.219,0.636-6.427,1.67-9.475      c-2.319,1.927-4.773,3.788-7.623,4.774c-4.284,1.482-8.987,0.837-13.436-0.031c-4.449-0.868-8.982-1.949-13.466-1.285      c-8.147,1.206-14.28,7.039-22.267,8.656c-0.13,0.026-0.276,0.062-0.344,0.176c-0.065,0.108-0.035,0.245-0.004,0.367      c0.141,0.551,0.288,1.092,0.434,1.635c3.572-0.319,7.11-0.854,10.57-1.818c3.438-0.958,6.69-2.432,10.085-3.519      c2.842-0.91,5.804-1.596,8.807-1.512c3.131,0.088,6.125,1.113,9.139,1.862c3.349,0.832,7.945,0.048,9.43,3.895      c1.397,3.619,0.769,7.814,1.015,11.597c0.398,6.135,2.454,12.123,3.487,18.165c0.967,5.652,1.282,11.348,0.574,17.053      c-1.224,9.869-5.072,20.119-12.917,26.604c-2.124,1.756-4.454,3.154-6.897,4.294c3.063-0.049,6.117-0.273,9.104-0.936      c18.031-3.999,28.744-22.393,27.665-40.125c-0.029-0.472-0.041-1.01,0.299-1.338c0.172-0.167,0.408-0.247,0.636-0.323      c4.007-1.33,7.505-3.124,8.811-7.517C385.4,184.783,385.437,182.78,384.533,181.167z"/>
				<g>
					<path style="fill:#464559;" d="M320.245,161.91c-1.027-1.691-4.129-1.626-5.675-0.972c-3.595,1.52-8.818,5.79-9.999,9.665       c-0.195,0.64-0.107,1.409,0.382,1.866c0.498,0.466,1.285,0.497,1.926,0.263c0.641-0.233,1.174-0.685,1.706-1.112       c2.386-1.914,5.034-3.499,7.848-4.697c1.105-0.471,2.27-0.903,3.126-1.746C320.417,164.336,320.869,162.937,320.245,161.91z"/>
				</g>
				<g>
					<path style="fill:#464559;" d="M342.675,161.22c1.027-1.691,4.13-1.626,5.675-0.972c3.595,1.52,8.818,5.79,9.999,9.664       c0.195,0.64,0.106,1.409-0.382,1.866c-0.498,0.466-1.285,0.497-1.926,0.263c-0.641-0.233-1.174-0.685-1.707-1.112       c-2.385-1.913-5.034-3.499-7.848-4.696c-1.105-0.471-2.27-0.903-3.126-1.746C342.503,163.645,342.051,162.247,342.675,161.22z"/>
				</g>
				<g>
					<path style="fill:#313042;" d="M321.165,178.559c0,1.722-1.396,3.119-3.119,3.119c-1.723,0-3.119-1.396-3.119-3.119       c0-1.723,1.396-3.119,3.119-3.119C319.768,175.44,321.165,176.836,321.165,178.559z"/>
				</g>
				<g>
					<path style="fill:#313042;" d="M345.682,178.559c0,1.722-1.396,3.119-3.119,3.119s-3.119-1.396-3.119-3.119       c0-1.723,1.396-3.119,3.119-3.119S345.682,176.836,345.682,178.559z"/>
				</g>
			</g>
			<path style="fill:#CC835B;" d="M330.437,172.887c0.241,3.584,0.597,7.171,0.739,10.795c0.044,1.815,0.185,3.605-0.028,5.529     c-0.214,1.886-0.777,3.753-1.744,5.445c-0.485,0.843-1.08,1.638-1.79,2.333c-0.712,0.712-1.55,1.253-2.234,1.744     c-0.699,0.497-1.276,1.02-1.5,1.567c-0.227,0.518-0.182,1.229,0.103,1.827c0.283,0.606,0.812,1.134,1.437,1.479     c0.623,0.342,1.353,0.481,2.118,0.449c1.54-0.097,3.114-0.911,4.496-1.929l0.009-0.007c0.23-0.17,0.555-0.121,0.724,0.11     c0.151,0.206,0.129,0.486-0.041,0.664c-1.287,1.354-2.946,2.519-5.019,2.82c-2.063,0.352-4.454-0.708-5.434-2.764     c-0.504-1.011-0.62-2.264-0.128-3.405c0.509-1.124,1.398-1.786,2.148-2.326c0.784-0.547,1.473-0.986,2.041-1.547     c0.583-0.56,1.086-1.213,1.506-1.926c0.843-1.428,1.344-3.077,1.602-4.756c0.242-1.656,0.172-3.484,0.179-5.266     c-0.049-3.579-0.201-7.182-0.215-10.799c-0.001-0.285,0.229-0.518,0.515-0.519C330.193,172.404,330.418,172.618,330.437,172.887z     "/>
			<g>
				<path style="fill:#FFFFFF;" d="M328.962,212.211c-2.07,0.523-4.113,1.104-6.069,1.828c-1.442,0.534-1.739,0.169-1.786,1.681      c-0.026,0.808,0.76,2.019,1.17,2.682c0.98,1.585,2.44,2.973,4.155,3.735c3.073,1.432,6.896,1.102,9.678-0.834      c1.939-1.35,3.301-3.4,3.818-5.703c0.369-1.645,0.885-6.309-1.78-5.603C335.159,210.789,332.031,211.436,328.962,212.211z"/>
			</g>
			<g>
				<g>
					
						<ellipse transform="matrix(0.7071 -0.7071 0.7071 0.7071 -19.9153 322.1483)" style="fill:#E6F5FF;" cx="378.91" cy="185.114" rx="12.208" ry="12.208"/>
					<circle style="fill:#226B9E;" cx="378.91" cy="185.114" r="6.336"/>
				</g>
				<path style="fill:#E6F5FF;" d="M378.224,178.373c-1.356-0.072-2.436-1.189-2.444-2.564c-0.041-7.068-0.084-14.377-1.353-21.356      c-1.39-7.651-4.11-13.914-8.083-18.618c-3.55-4.202-8.073-7.473-13.141-9.6c-5.799-2.434-12.126-3.384-18.387-3.419      c-9.573-0.054-19.143,1.911-28.204,4.91c-0.987,0.327-1.957,0.72-2.946,1.035c-0.215,0.068-0.453,0.13-0.66,0.042      c-0.247-0.106-0.368-0.401-0.353-0.669c0.067-1.178,1.305-2.447,2.061-3.259c2.973-3.194,7.519-4.162,11.615-5.143      c5.571-1.335,11.344-1.965,17.063-2.064c6.63-0.101,13.334,0.704,19.602,2.937c6.706,2.389,12.697,6.453,17.296,11.898      c4.564,5.402,7.665,12.477,9.219,21.027c1.349,7.422,1.394,14.96,1.436,22.25c0.008,1.426-1.141,2.589-2.568,2.598      C378.326,178.377,378.275,178.376,378.224,178.373z"/>
				<g>
					<path style="fill:#E6F5FF;" d="M347.914,226c-0.652,0-1.259-0.415-1.473-1.07c-0.266-0.814,0.179-1.688,0.992-1.954       c6.922-2.259,15.537-5.071,20.703-11.264c4.422-5.302,5.991-12.597,7.376-19.034c0.181-0.837,1.01-1.366,1.841-1.189       c0.836,0.18,1.369,1.004,1.189,1.841c-1.46,6.787-3.115,14.479-8.027,20.367c-5.737,6.877-14.822,9.843-22.121,12.225       C348.236,225.975,348.074,226,347.914,226z"/>
					<path style="fill:#226B9E;" d="M346.514,229.576l-2.65,0.734c-2.461,0.681-5.008-0.761-5.689-3.222l0,0       c-0.681-2.461,0.761-5.008,3.221-5.689l2.65-0.734c2.461-0.681,5.008,0.761,5.689,3.222l0,0       C350.417,226.347,348.975,228.894,346.514,229.576z"/>
				</g>
			</g>
			<polygon style="fill:#1A5680;" points="270.82,415.367 280.391,354.121 278.454,415.367    "/>
		</g>
	</g>
</g>
</svg>