<svg xmlns="http://www.w3.org/2000/svg" xmlns:xlink="http://www.w3.org/1999/xlink" version="1.1" id="Ñëîé_1" x="0px" y="0px" viewBox="0 0 3300 2000" style="enable-background:new 0 0 3300 2000;" xml:space="preserve">
<g>
	<rect id="_x31_1" style="fill:#D9E8FF;" width="3300" height="2000"/>
	<rect id="_x31_0" y="1200.394" style="fill:#9AB1E8;" width="3300" height="799.607"/>
	<g id="_x39_">
		<path style="fill:#1D3F70;" d="M2702.735,1502.445c-0.989-0.016-24.56-0.448-53.423-7.291    c-26.851-6.365-63.308-19.736-84.509-47.286c-20.702-26.903-30.957-57.718-28.715-83.585    c-31.825-4.29-68.269-13.622-108.889-27.905c-66.455-23.368-136.949-29.178-199.145-34.304    c-65.411-5.391-121.902-10.046-163.93-32.193c-46.869-24.7-68.699-68.367-68.699-137.425h7    c0,66.176,20.643,107.876,64.963,131.231c40.763,21.481,96.594,26.083,161.241,31.41c62.616,5.16,133.587,11.01,200.892,34.677    c40.189,14.132,76.168,23.354,107.491,27.574c0.839-4.604,2.111-9.015,3.831-13.169c6.465-15.621,22.418-35.319,61.701-40.459    c25.794-3.37,40.669,5.882,45.984,15.668c4.48,8.249,3.039,18.006-3.855,26.099c-6.585,7.729-24.049,20.799-67.017,21.497    c-10.803,0.177-22.366-0.439-34.648-1.84c-2.043,24.036,7.734,52.976,27.341,78.454c38.324,49.801,131.556,51.832,132.492,51.847    L2702.735,1502.445z M2543.956,1358.211c11.917,1.352,23.131,1.941,33.588,1.774c29.375-0.478,51.9-7.416,61.803-19.038    c5.017-5.889,6.122-12.529,3.032-18.218c-4.015-7.391-16.619-14.983-38.925-12.067c-28.469,3.724-47.883,16.24-56.142,36.194    C2545.829,1350.442,2544.713,1354.241,2543.956,1358.211z"/>
		<polygon style="fill:#234270;" points="2569.719,1565.633 2772.443,1422.089 3192.329,1489.558 3007.322,1635.949   "/>
		<polygon style="fill:#B8D2FF;" points="3001.825,1612.304 2627.615,1552.175 2777.939,1445.733 3140.844,1504.59   "/>
		<polygon style="fill:#163260;" points="2569.719,1565.633 2569.719,1582.92 3007.322,1653.235 3007.322,1635.949   "/>
		<polygon style="fill:#163260;" points="3192.329,1489.558 3192.329,1508.909 3007.322,1653.235 3007.322,1635.949   "/>
	</g>
	<g id="_x38_">
		<path style="fill:#7689D6;" d="M645.317,640.414c-4.138,242.284-364.53,242.246-368.633-0.008    C280.822,398.131,641.215,398.168,645.317,640.414z"/>
		<path style="fill:#A4C2FC;" d="M617.983,640.414c-3.524,206.353-310.47,206.321-313.964-0.006    C307.543,434.061,614.489,434.094,617.983,640.414z"/>
		<path style="fill:#7689D6;" d="M461.004,648.152c-0.224,5.533-58.535-56.13-59.456-56.247c-3.022-3.023-3.022-7.923,0-10.945    c3.02-3.023,7.922-3.023,10.942,0l40.772,40.771v-95.124c0-4.274,3.466-7.738,7.74-7.738c4.274,0,7.74,3.465,7.74,7.738v113.807    C468.817,644.591,465.165,648.224,461.004,648.152z"/>
	</g>
	<g id="_x37_">
		<rect x="822.16" y="1641.49" style="fill:#17426D;" width="1667.734" height="36.81"/>
		<polygon style="fill:#255084;" points="2489.895,1641.49 822.16,1641.49 956.744,1356.401 2355.31,1356.401   "/>
		<path style="fill:#17426D;" d="M2335.309,1382.983H976.353c-1.104,0-2-0.896-2-2s0.896-2,2-2h1358.955c1.104,0,2,0.896,2,2    S2336.413,1382.983,2335.309,1382.983z"/>
		<path style="fill:#17426D;" d="M2350.858,1422.597H960.276c-1.104,0-2-0.896-2-2s0.896-2,2-2h1390.582c1.104,0,2,0.896,2,2    S2351.963,1422.597,2350.858,1422.597z"/>
		<path style="fill:#17426D;" d="M2374.745,1469.443H939.851c-1.104,0-2-0.896-2-2s0.896-2,2-2h1434.894c1.104,0,2,0.896,2,2    S2375.85,1469.443,2374.745,1469.443z"/>
		<path style="fill:#17426D;" d="M2422.745,1584.75H890.83c-1.104,0-2-0.896-2-2s0.896-2,2-2h1531.916c1.104,0,2,0.896,2,2    S2423.85,1584.75,2422.745,1584.75z"/>
		<path style="fill:#17426D;" d="M2396.191,1523.011H915.395c-1.105,0-2-0.896-2-2s0.895-2,2-2h1480.796c1.104,0,2,0.896,2,2    S2397.296,1523.011,2396.191,1523.011z"/>
	</g>
	<g id="_x36_">
		<path style="fill:#8A9EDD;" d="M2927.23,1055.5h-66.452C2673.351,367.516,3120.591,508.161,2927.23,1055.5z"/>
		<path style="fill:#3A72AA;" d="M2927.23,1055.5c0,0-49.753,11.793-47.731,0c51.482-300.17,2.827-464.607,2.827-464.607    C3063.335,578.714,2927.23,1055.5,2927.23,1055.5z"/>
		<path style="fill:#7689D6;" d="M3111.887,755.313c-10.09,110.513-80.141,209.399-137.19,300.175l-74.578-0.011    c6.74-104.664,23.637-218.166,81.682-308.323C3008.83,682.414,3112.054,666.63,3111.887,755.313z"/>
		<path style="fill:#8A9EDD;" d="M3111.887,755.313c0,4.08-1.427,12.709-1.427,12.709c-53.985-8.629-85.775-34.617-102.78-55.015    c0,0,4.643-4.061,10.705-7.443C3033.928,724.184,3062.492,747.258,3111.887,755.313z"/>
		<path style="fill:#8A9EDD;" d="M3099.629,818.855c-1.252,3.975-2.329,8.239-3.788,12.319    c-77.17-9.407-110.777-53.643-121.552-71.938c2.347-4.079,4.903-8.107,7.51-12.082    C2988.989,761.384,3022.994,810.517,3099.629,818.855z"/>
		<path style="fill:#8A9EDD;" d="M3079.894,873.068c-1.774,3.976-3.573,8.084-5.399,12.059    c-73.388-3.347-113.298-38.599-130.824-61.769c1.774-4.707,3.599-9.414,5.582-14.017    C2963.567,831.33,3007.366,870.463,3079.894,873.068z"/>
		<path style="fill:#8A9EDD;" d="M3045.995,940.208c-2.192,3.975-4.722,8.049-6.86,11.919    c-60.975-4.498-97.888-30.051-118.282-52.489c0,0,1.631-8.699,3.569-14.876C2946.741,907.538,2981.88,936.076,3045.995,940.208z"/>
		<path style="fill:#8A9EDD;" d="M3006.003,1006.195c-2.503,3.975-4.923,7.742-7.374,11.612    c-45.484-7.427-73.473-27.185-90.843-44.236c0.73-5.335,1.461-10.67,2.347-16.057    C2925.989,974.251,2958.851,999.239,3006.003,1006.195z"/>
		<path style="fill:#7689D6;" d="M2793.296,1055.5h-75.039C2482.148,740.221,2774.366,679.415,2793.296,1055.5z"/>
		<path style="fill:#8A9EDD;" d="M2793.296,1055.5h-45.609c-82.107-114.778-99.964-209.004-100.054-254.52    C2754.761,743.7,2793.538,1055.254,2793.296,1055.5z"/>
		<path style="fill:#3A72AA;" d="M2872.995,1055.477h-92.167c1.645,3.931-29.38-54.519-41.154-82.899h-0.052    c-25.598-60.355-58.835-141.694-45.694-206.856c7.326-51.487,80.649-71.792,115.432-36.61    C2877.979,790.074,2875.815,992.146,2872.995,1055.477z"/>
		<path style="fill:#7689D6;" d="M2872.525,945.537c-0.4-6.437-0.752-13.277-1.356-19.875l-50.752,70.556l-20.291-80.964    l57.403-86.153c-1.312-5.959-2.824-11.832-4.453-17.579l-57.122,87.153l-24.151-96.446l46.214-64.176    c-2.712-3.243-5.633-6.276-8.659-8.944l-41.572,57.062l-17.743-73.358c-4.433,0.789-8.818,2.105-12.837,3.474l18.583,74.121    l-62.017-23.85c-0.934,3.743-1.334,7.817-1.82,11.928l67.645,27.142l24.464,97.649l-82.609-35.266    c1.355,5.296,2.922,10.631,4.506,15.903l81.962,34.792l20.447,81.645l-68.746-27.773c2.356,5.922,5.064,11.433,7.436,16.705    l65.171,26.288c3.272,5.551,6.92,47.32,16.48,46.288c15.226,0.654-5.178-43.422-4.274-49.583l48.091-66.633    C2872.525,945.589,2872.525,945.589,2872.525,945.537z"/>
		<rect x="2717.483" y="1055.488" style="fill:#EB5648;" width="257.781" height="260.915"/>
		<path style="fill:#CE3932;" d="M2975.264,1055.488v260.915h-257.781C2717.483,1316.403,2975.264,1312.366,2975.264,1055.488z"/>
	</g>
	<g id="_x35_">
		<path style="fill:#EB5648;" d="M199.861,1359.656l175.32-124.14l355.146,57.067c3.055,0.491,4.068,4.379,1.642,6.299    l-153.659,121.586L199.861,1359.656z"/>
		<polygon style="fill:#F4D4BE;" points="532.039,1370.616 340.526,1339.843 417.459,1285.368 603.187,1315.49   "/>
		<polygon style="fill:#CE3932;" points="199.861,1359.656 199.861,1408.504 578.309,1470 578.309,1420.467   "/>
		<polygon style="fill:#FFFFFF;" points="732.671,1298.325 734.799,1344.192 578.309,1469.314 578.309,1420.467   "/>
		<path style="fill:#F4D4BE;" d="M323.707,1336.903c-0.709,0-1.406-0.332-1.846-0.954c-0.722-1.019-0.481-2.429,0.538-3.149    l76.932-54.474c1.017-0.723,2.428-0.48,3.149,0.539c0.721,1.018,0.481,2.429-0.537,3.149l-76.934,54.474    C324.614,1336.768,324.158,1336.903,323.707,1336.903z"/>
		<path style="fill:#F4D4BE;" d="M547.782,1376.89c-0.668,0-1.329-0.295-1.774-0.86c-0.774-0.979-0.607-2.4,0.373-3.173    l70.645-55.798c0.977-0.774,2.4-0.608,3.173,0.373c0.774,0.979,0.607,2.4-0.373,3.173l-70.645,55.798    C548.768,1376.731,548.273,1376.89,547.782,1376.89z"/>
		<path style="fill:#CE3932;" d="M578.312,1469.88c-0.837,0-1.667-0.371-2.224-1.08c-0.963-1.227-0.749-3.002,0.478-3.967    l156.489-122.863c1.227-0.963,3.004-0.749,3.967,0.478c0.963,1.227,0.749,3.002-0.478,3.967l-156.489,122.863    C579.537,1469.683,578.922,1469.88,578.312,1469.88z"/>
	</g>
	<g id="_x34_">
		<polygon style="fill:#1D3F70;" points="616.006,1809.922 475.037,1809.922 448.234,1579.067 642.808,1579.067   "/>
		<path style="fill:#F49F9F;" d="M643.847,1613.827H447.195c-10.221,0-16.861-10.765-12.275-19.899l8.318-16.564    c3.062-6.099,9.304-9.949,16.128-9.949h172.308c6.825,0,13.066,3.85,16.128,9.949l8.318,16.564    C660.708,1603.062,654.068,1613.827,643.847,1613.827z"/>
		<path style="fill:#F9C0C0;" d="M636.164,1569.883H454.879l7.352-9.74c6.402-8.481,16.411-13.466,27.037-13.466h112.507    c10.625,0,20.635,4.985,27.037,13.466L636.164,1569.883z"/>
		<path style="fill:#F49F9F;" d="M621.959,1757.873H468.378c-3.114,0-5.733-2.334-6.09-5.427l-9.573-82.931    c-0.42-3.64,2.426-6.833,6.09-6.833h172.727c3.664,0,6.51,3.193,6.09,6.833l-9.573,82.931    C627.692,1755.539,625.073,1757.873,621.959,1757.873z"/>
	</g>
	<g id="_x33_">
		<rect x="1532.886" y="930.013" style="fill:#255084;" width="220.4" height="377.179"/>
		<path style="fill:#255084;" d="M1853.112,1312.138h-420.053c-21.516,0-38.958-17.442-38.958-38.958l0,0    c0-21.516,17.442-38.958,38.958-38.958h420.053c21.516,0,38.958,17.442,38.958,38.958l0,0    C1892.071,1294.696,1874.629,1312.138,1853.112,1312.138z"/>
		
			<rect x="1168.045" y="-132.233" transform="matrix(-1.836970e-16 1 -1 -1.836970e-16 2312.9971 -973.1729)" style="fill:#255084;" width="950.08" height="1604.29"/>
		<rect x="896.926" y="247.185" style="fill:#B8D2FF;" width="1492.319" height="845.454"/>
		<rect x="934.852" y="279.64" style="fill:#FFFFFF;" width="1416.467" height="780.544"/>
		<rect x="1542.276" y="317.165" style="fill:#B0C7F5;" width="771.68" height="510.283"/>
		<rect x="1542.276" y="823.215" style="fill:#255084;" width="771.68" height="64.443"/>
		<path style="fill:#BFD2F9;" d="M2269.213,859.881h-210.899c-2.471,0-4.474-1.99-4.474-4.444c0-2.455,2.003-4.444,4.474-4.444    h210.899c2.471,0,4.474,1.99,4.474,4.444C2273.687,857.892,2271.684,859.881,2269.213,859.881z"/>
		<path style="fill:#EB5648;" d="M2058.313,859.881h-444.45c-2.471,0-4.474-1.99-4.474-4.444c0-2.455,2.004-4.444,4.474-4.444    h444.45c2.471,0,4.474,1.99,4.474,4.444C2062.788,857.892,2060.784,859.881,2058.313,859.881z"/>
		<ellipse style="fill:#677CC1;" cx="2058.314" cy="855.437" rx="14.326" ry="14.23"/>
		<path style="fill:#BFD2F9;" d="M1569.121,874.325c-2.471,0-4.474-1.99-4.474-4.444v-28.888c0-2.455,2.003-4.444,4.474-4.444    c2.471,0,4.474,1.99,4.474,4.444v28.888C1573.595,872.336,1571.592,874.325,1569.121,874.325z"/>
		<path style="fill:#BFD2F9;" d="M1585.261,874.325c-2.471,0-4.474-1.99-4.474-4.444v-28.888c0-2.455,2.003-4.444,4.474-4.444    s4.474,1.99,4.474,4.444v28.888C1589.735,872.336,1587.732,874.325,1585.261,874.325z"/>
		<rect x="1541.231" y="316.775" style="fill:#CCE6FF;" width="772.725" height="505.832"/>
		<circle style="fill:#FBB03B;" cx="1931.477" cy="446.819" r="43.198"/>
		<path style="fill:#9AB1E8;" d="M1787.609,694.116c0,0,259.281-90.881,526.347-36.191v164.682h-547.978L1787.609,694.116z"/>
		<path style="fill:#7689D6;" d="M1787.609,694.116c0,0,231.876-14.899,397.793,129.099l-134.476-0.608L1787.609,694.116z"/>
		<path style="fill:#ABC1EF;" d="M1541.231,657.925c0,0,343.173,8.684,509.695,164.682h-509.695V657.925z"/>
		<g>
			<g>
				<path style="fill:#7689D6;" d="M2251.072,500.818c6.222-23.756-14.953-35.172-24.453-41.385      c-14.532-9.503-22.271-19.278-27.808-41.371c-10.314-41.152-50.019-37.131-51.805,21.083      c-1.339,43.622-39.239,41.277-32.288,81.754c7.073,26.998-15.844,28.344-10.517,53.02c4.454,20.631,46.843,36.971,73.133,36.971      c50.127,0,86.435-15.926,89.671-40.894C2271.021,539.012,2244.001,527.816,2251.072,500.818z"/>
			</g>
			<path style="fill:#3B679B;" d="M2201.394,486.275c-0.987-0.987-2.586-0.987-3.573,0l-16.266,16.274V464.4     c0-1.396-1.131-2.528-2.527-2.528c-1.396,0-2.527,1.132-2.527,2.528v93.864l-12.498-12.505c-0.987-0.987-2.586-0.987-3.573,0     c-0.987,0.988-0.987,2.587,0,3.575l16.071,16.08v111.825c0,1.396,1.131,2.528,2.527,2.528c1.396,0,2.527-1.132,2.527-2.528     V509.698l19.839-19.849C2202.381,488.863,2202.381,487.262,2201.394,486.275z"/>
		</g>
		<rect x="976.354" y="685.959" style="fill:#B0C7F5;" width="517.894" height="349.507"/>
		<rect x="1040.133" y="636.297" style="fill:#B0C7F5;" width="454.114" height="24.362"/>
		<rect x="1067.528" y="721.254" style="fill:#FFFFFF;" width="396.72" height="24.362"/>
		<rect x="1067.528" y="721.254" style="fill:#677CC1;" width="123.047" height="24.362"/>
		<rect x="1067.528" y="784.968" style="fill:#FFFFFF;" width="396.72" height="24.362"/>
		<rect x="1067.528" y="784.968" style="fill:#677CC1;" width="272.408" height="24.362"/>
		<rect x="1067.528" y="847.7" style="fill:#677CC1;" width="396.72" height="24.362"/>
		<rect x="1067.528" y="910.884" style="fill:#FFFFFF;" width="396.72" height="24.362"/>
		<rect x="1067.528" y="910.884" style="fill:#677CC1;" width="43.387" height="24.362"/>
		<rect x="1067.528" y="973.842" style="fill:#FFFFFF;" width="396.72" height="24.362"/>
		<rect x="1067.528" y="973.842" style="fill:#677CC1;" width="333.685" height="24.362"/>
		<rect x="1040.133" y="423.282" style="fill:#B0C7F5;" width="454.114" height="24.362"/>
		<rect x="1040.133" y="476.536" style="fill:#B0C7F5;" width="454.114" height="24.362"/>
		<rect x="1040.133" y="583.043" style="fill:#B0C7F5;" width="454.114" height="24.362"/>
		<rect x="1040.133" y="529.789" style="fill:#B0C7F5;" width="454.114" height="24.362"/>
		<rect x="976.354" y="316.775" style="fill:#677CC1;" width="77.772" height="77.772"/>
		<rect x="1001.247" y="966.58" style="fill:#677CC1;" width="38.886" height="38.886"/>
		<rect x="1001.247" y="903.622" style="fill:#677CC1;" width="38.886" height="38.886"/>
		<rect x="1001.247" y="840.664" style="fill:#677CC1;" width="38.886" height="38.886"/>
		<rect x="1001.247" y="777.706" style="fill:#677CC1;" width="38.886" height="38.886"/>
		<rect x="1001.247" y="713.992" style="fill:#677CC1;" width="38.886" height="38.886"/>
		<rect x="1123.061" y="316.775" style="fill:#B0C7F5;" width="77.772" height="77.772"/>
		<rect x="1269.768" y="316.775" style="fill:#677CC1;" width="77.772" height="77.772"/>
		<rect x="1416.475" y="316.775" style="fill:#B0C7F5;" width="77.772" height="77.772"/>
		<rect x="1542.276" y="1012.915" style="fill:#B0C7F5;" width="771.68" height="22.551"/>
		<rect x="1542.276" y="907.461" style="fill:#B0C7F5;" width="771.68" height="22.551"/>
		<rect x="1542.276" y="977.764" style="fill:#B0C7F5;" width="771.68" height="22.551"/>
		<rect x="1542.276" y="942.612" style="fill:#B0C7F5;" width="771.68" height="22.551"/>
		<rect x="1951.426" y="907.461" style="fill:#EB5648;" width="252.766" height="22.551"/>
		<rect x="1837.902" y="942.612" style="fill:#EB5648;" width="431.873" height="22.551"/>
		<rect x="1682.83" y="1012.915" style="fill:#EB5648;" width="334.697" height="22.551"/>
		<rect x="1569.121" y="977.764" style="fill:#EB5648;" width="197.49" height="22.551"/>
		<path style="fill:#3B679B;" d="M2170.286,430.317v3.4c-47.022-1.14-79.847,16.415-99.297,31.618    c-15.691,12.263-25.371,24.961-29.581,31.144h-5.931v8.681h8.681v-8.681h-0.323c4.467-6.379,13.767-18.143,28.385-29.568    c19.197-15.003,51.604-32.337,98.065-31.192v3.28h8.681v-8.681H2170.286z"/>
		<g>
			<g>
				<path style="fill:#7689D6;" d="M1634.157,548.606c-6.222-23.756,14.953-35.172,24.453-41.385      c14.532-9.504,22.27-19.278,27.808-41.371c10.314-41.152,50.019-37.131,51.806,21.083c1.339,43.622,39.239,41.277,32.288,81.754      c-7.073,26.998,15.844,28.344,10.517,53.02c-4.453,20.631-46.843,36.971-73.133,36.971c-50.127,0-86.435-15.926-89.671-40.894      C1614.208,586.8,1641.228,575.604,1634.157,548.606z"/>
			</g>
			<path style="fill:#3B679B;" d="M1683.834,534.063c0.987-0.987,2.586-0.987,3.573,0l16.266,16.274v-38.149     c0-1.396,1.131-2.528,2.527-2.528s2.527,1.132,2.527,2.528v93.864l12.498-12.505c0.987-0.987,2.586-0.987,3.573,0     c0.987,0.987,0.987,2.587,0,3.575l-16.071,16.08v111.824c0,1.396-1.131,2.528-2.527,2.528s-2.527-1.132-2.527-2.528V557.486     l-19.839-19.849C1682.848,536.651,1682.848,535.05,1683.834,534.063z"/>
		</g>
		<path style="fill:#3B679B;" d="M1843.82,544.266c-4.21-6.183-13.89-18.881-29.581-31.144    c-19.452-15.202-52.286-32.76-99.296-31.618v-3.399h-8.681v8.681h8.681v-3.281c46.425-1.148,78.805,16.16,97.995,31.138    c14.646,11.432,23.975,23.23,28.454,29.623h-0.321v8.681h8.681v-8.681H1843.82z"/>
		<path style="fill:#FBB03B;" d="M1931.477,396.011c-1.381,0-2.5-1.119-2.5-2.5v-36.255c0-1.381,1.119-2.5,2.5-2.5    s2.5,1.119,2.5,2.5v36.255C1933.977,394.892,1932.857,396.011,1931.477,396.011z"/>
		<path style="fill:#FBB03B;" d="M1931.477,538.51c-1.381,0-2.5-1.119-2.5-2.5v-36.255c0-1.381,1.119-2.5,2.5-2.5s2.5,1.119,2.5,2.5    v36.255C1933.977,537.391,1932.857,538.51,1931.477,538.51z"/>
		<path style="fill:#FBB03B;" d="M2020.617,449.319h-36.256c-1.381,0-2.5-1.119-2.5-2.5c0-1.381,1.119-2.5,2.5-2.5h36.256    c1.381,0,2.5,1.119,2.5,2.5C2023.117,448.2,2021.998,449.319,2020.617,449.319z"/>
		<path style="fill:#FBB03B;" d="M1878.404,449.319h-36.255c-1.381,0-2.5-1.119-2.5-2.5c0-1.381,1.119-2.5,2.5-2.5h36.255    c1.381,0,2.5,1.119,2.5,2.5C1880.904,448.2,1879.785,449.319,1878.404,449.319z"/>
		<path style="fill:#FBB03B;" d="M1893.859,411.703c-0.64,0-1.279-0.244-1.768-0.732l-25.636-25.637    c-0.977-0.976-0.977-2.559,0-3.535c0.977-0.977,2.559-0.977,3.535,0l25.636,25.637c0.977,0.976,0.977,2.559,0,3.535    C1895.139,411.458,1894.499,411.703,1893.859,411.703z"/>
		<path style="fill:#FBB03B;" d="M1968.993,411.703c-0.64,0-1.279-0.244-1.768-0.732c-0.977-0.976-0.977-2.559,0-3.535    l25.637-25.637c0.977-0.977,2.559-0.977,3.535,0c0.977,0.976,0.977,2.559,0,3.535l-25.637,25.637    C1970.272,411.458,1969.633,411.703,1968.993,411.703z"/>
		<path style="fill:#FBB03B;" d="M1868.224,512.473c-0.64,0-1.279-0.244-1.768-0.733c-0.977-0.976-0.977-2.559,0-3.535    l25.636-25.636c0.977-0.977,2.559-0.977,3.535,0c0.977,0.976,0.977,2.559,0,3.535l-25.636,25.636    C1869.503,512.229,1868.863,512.473,1868.224,512.473z"/>
		<path style="fill:#FBB03B;" d="M1994.63,512.473c-0.64,0-1.279-0.244-1.768-0.733l-25.637-25.636    c-0.977-0.976-0.977-2.559,0-3.535c0.977-0.977,2.559-0.977,3.535,0l25.637,25.636c0.977,0.976,0.977,2.559,0,3.535    C1995.909,512.229,1995.27,512.473,1994.63,512.473z"/>
		<path style="fill:#3B679B;" d="M1949.082,430.117c-0.381-0.4-1.013-0.417-1.414-0.037c-0.4,0.38-0.417,1.013-0.037,1.414    c3.942,4.153,6.113,9.596,6.113,15.326c0,12.279-9.989,22.268-22.268,22.268s-22.268-9.989-22.268-22.268    c0-6.789,3.131-13.167,8.339-17.359l-0.645,6.367l14.574-12.276l-18.963-1.872l4.683,5.531    c-6.214,4.538-9.988,11.826-9.988,19.608c0,13.381,10.887,24.268,24.268,24.268s24.268-10.887,24.268-24.268    C1955.744,440.575,1953.378,434.644,1949.082,430.117z"/>
		<path style="fill:#FFFFFF;" d="M1895.265,722.834c-6.235,0-13.488-3.433-15.347-4.367c-1.233-0.62-1.729-2.122-1.11-3.355    c0.618-1.233,2.123-1.732,3.355-1.112c5.123,2.57,13.919,5.278,16.525,2.929c0.549-0.493,0.557-1.07-0.475-3.517    c-0.764-1.81-1.713-4.063-0.196-6.01c1.481-1.9,4.345-2.252,10.57-1.299c1.364,0.209,2.302,1.485,2.092,2.85    c-0.209,1.365-1.477,2.3-2.85,2.093c-2.946-0.452-4.537-0.491-5.361-0.435c0.113,0.292,0.245,0.605,0.353,0.859    c0.904,2.145,2.588,6.138-0.787,9.176C1900.256,722.245,1897.848,722.834,1895.265,722.834z"/>
		<path style="fill:#FFFFFF;" d="M1953.654,745.735c-7.007,0-16.478-2.3-23.324-5.833c-1.227-0.633-1.708-2.141-1.075-3.368    s2.139-1.708,3.368-1.075c9.503,4.904,21.194,5.89,24.922,4.976c-0.228-0.198-0.525-0.434-0.915-0.707    c-5.493-3.845-10.278-10.158-7.806-14.934c2.578-4.981,11.298-4.844,25.914,0.406c1.3,0.467,1.975,1.898,1.508,3.198    c-0.467,1.299-1.896,1.974-3.197,1.508c-17.423-6.258-19.767-2.85-19.785-2.813c-0.538,1.04,1.174,4.997,6.233,8.539    c4.572,3.2,3.928,5.875,3.137,7.184C1961.406,744.848,1958.005,745.735,1953.654,745.735z"/>
		<path style="fill:#FFFFFF;" d="M2005.041,780.011c-0.439,0-0.885-0.116-1.289-0.359c-3.43-2.068-20.502-12.818-19.737-21.427    c0.187-2.096,1.376-3.083,2.068-3.483c2.862-1.656,7.064,0.285,13.432,3.223c6.759,3.12,15.172,7,20.657,5.402    c0.624-0.182,0.956-0.356,1.118-0.462c-0.475-1.711-5.413-5.778-8.113-8.002c-5.412-4.457-8.739-7.341-8.964-10.358    c-0.083-1.121,0.268-2.152,1.015-2.981c4.527-5.026,24.141,0.973,35.43,4.998c1.3,0.464,1.979,1.894,1.515,3.194    c-0.463,1.3-1.891,1.977-3.194,1.516c-12.951-4.615-26.051-7.499-29.491-6.577c1.073,1.577,4.631,4.506,6.868,6.349    c5.756,4.74,10.726,8.833,9.877,12.969c-0.405,1.974-1.974,3.372-4.659,4.155c-7.285,2.124-16.637-2.193-24.153-5.662    c-2.874-1.327-6.677-3.082-8.398-3.346c0.539,4.286,10.428,12.061,17.313,16.211c1.182,0.713,1.563,2.249,0.85,3.432    C2006.715,779.58,2005.888,780.011,2005.041,780.011z"/>
		<path style="fill:#FFFFFF;" d="M2066.834,814.024c-11.196,0-29.103-14.922-32.991-18.282c-1.044-0.903-1.159-2.481-0.257-3.526    c0.903-1.044,2.483-1.158,3.525-0.258c9.945,8.589,26.332,19.443,31.631,16.699c0.113-0.059,0.191-0.109,0.244-0.147    c-0.271-1.586-4.714-5.735-7.399-8.244c-7.001-6.539-15.713-14.677-9.594-21.377c6.404-7.015,16.314,1.534,25.058,9.074    c4.695,4.049,11.104,9.593,13.664,9.083c-0.396-2.134-5.069-7.841-7.647-10.989c-5.712-6.975-8.896-11.082-7.909-14.372    c0.487-1.622,1.637-2.826,3.237-3.388c4.827-1.696,15.006,2.771,30.245,13.282c1.137,0.784,1.423,2.341,0.639,3.478    c-0.782,1.137-2.342,1.422-3.477,0.639c-17.911-12.354-24.743-13.311-25.809-12.662c0.26,1.696,4.428,6.785,6.941,9.855    c6.135,7.49,9.829,12.271,8.56,16.018c-0.296,0.873-1.154,2.423-3.582,2.994c-4.977,1.166-11.078-4.074-18.128-10.153    c-6.67-5.752-14.971-12.913-18.101-9.488c-2.785,3.049,3.925,9.316,9.315,14.352c5.297,4.948,9.48,8.855,8.955,12.688    c-0.154,1.122-0.784,2.691-2.91,3.794C2069.808,813.738,2068.384,814.024,2066.834,814.024z M2069.076,808.435L2069.076,808.435    L2069.076,808.435z"/>
		<rect x="976.354" y="629.035" style="fill:#677CC1;" width="38.886" height="38.886"/>
		<polygon style="fill:#B0C7F5;" points="1007.896,648.478 985.689,635.657 985.689,661.299   "/>
		<rect x="976.354" y="575.781" style="fill:#677CC1;" width="38.886" height="38.886"/>
		<polygon style="fill:#B0C7F5;" points="1007.896,595.224 985.689,582.403 985.689,608.046   "/>
		<rect x="976.354" y="522.528" style="fill:#677CC1;" width="38.886" height="38.886"/>
		<polygon style="fill:#B0C7F5;" points="1007.896,541.971 985.689,529.15 985.689,554.792   "/>
		<rect x="976.354" y="416.02" style="fill:#677CC1;" width="38.886" height="38.886"/>
		<polygon style="fill:#B0C7F5;" points="1007.896,435.463 985.689,422.642 985.689,448.284   "/>
		<rect x="976.354" y="469.274" style="fill:#677CC1;" width="38.886" height="38.886"/>
		<polygon style="fill:#B0C7F5;" points="1007.896,488.717 985.689,475.896 985.689,501.538   "/>
		<rect x="1216.127" y="414.723" style="fill:#677CC1;" width="8.17" height="41.481"/>
		<rect x="1408.637" y="574.484" style="fill:#677CC1;" width="8.17" height="41.481"/>
		<rect x="1269.768" y="467.977" style="fill:#677CC1;" width="8.17" height="41.481"/>
		<rect x="1190.574" y="627.738" style="fill:#677CC1;" width="8.17" height="41.481"/>
		<rect x="1105.853" y="521.23" style="fill:#677CC1;" width="8.17" height="41.481"/>
	</g>
	<g id="_x32__12_">
		<path style="fill:#F69D85;" d="M2295.13,1669.735c-32.993-21.61-61.77-49.811-83.729-82.587    c-2.567-4.349-7.03-11.087-9.221-15.611c-5.7-8.29-9.586-21.301,1.677-26.979c10.107-5.543,18.25,3.273,23.119,11.204    c23.615,30.64,55.948,54.609,90.871,70.919C2354.599,1639.234,2326.692,1692.505,2295.13,1669.735z"/>
		<path style="fill:#F69D85;" d="M2246.421,1577.934c-6.809-40.44-22.467-79.311-43.249-114.74    c-10.625-18.115,8.232-30.853,20.611-15.367c17.162,21.471,35.197,53.119,44.542,67.463    c16.157,25.436,17.231,25.827,26.434,54.637C2304.481,1605.118,2248.576,1614.431,2246.421,1577.934z"/>
		<path style="fill:#F69D85;" d="M2331.891,1601.767c7.624-67.075-7.087-82.573-15.802-122.675    c-4.456-20.504,13.568-25.261,23.69-8.285c7.966,13.362,21.068,47.458,25.805,63.885c10.795,37.433,14.509,79.062,14.459,109.305    C2378.574,1680.473,2323.016,1637.158,2331.891,1601.767z"/>
		<path style="fill:#F69D85;" d="M2309.632,1593.097c3.131-40.89-13.291-78.154-24.927-117.545    c-5.95-20.141,14.288-27.867,22.963-10.04c7.48,15.371,22.995,56.27,31.345,83.8c8.746,28.837,6.141,21.622,8.133,51.8    C2348.107,1637.609,2302.933,1629.039,2309.632,1593.097z"/>
		<path style="fill:#F69D85;" d="M2285.828,1590.808c-1.095-40.995-18.1-68.706-35.838-118.433    c-7.056-19.78,12.09-29.177,22.554-12.338c9.023,14.52,22.304,40.231,31.186,62.664c11.093,28.018,16.954,38.338,22.043,68.151    C2330.487,1627.057,2282.865,1627.249,2285.828,1590.808z"/>
		<path style="fill:#F69D85;" d="M2248.267,1591.359l22.622,60.696l56.996,204.29c0,0,91.216-1.003,139.109-48.842    c0,0-74.359-145.797-109.363-218.914L2248.267,1591.359z"/>
		<path style="fill:#EB5648;" d="M2569.453,2000h-47.97l-176.381-144.76l-22.735-18.665l-28.961-23.77l-33.656-27.625l8.681-92.256    l1.659-17.598l1.831-19.548c0,0,0.593-0.549,1.756-1.497c3.78-3.059,13.635-10.253,28.659-15.767    c7.324-2.682,15.896-4.976,25.59-6.182c2.94-0.366,5.977-0.635,9.122-0.786h0.011c12.719-0.592,27.097,0.733,42.929,5.245    c0.441,0.119,0.894,0.248,1.335,0.377c0,0,0.011,0.011,0.032,0.043c0.108,0.129,0.474,0.571,1.077,1.303    c3.35,4.093,14.087,17.34,28.842,36.812C2465.953,1747.486,2575.839,1905.245,2569.453,2000z"/>
		<path style="fill:#F69D85;" d="M1058.484,1669.735c32.993-21.61,61.77-49.811,83.729-82.587c2.567-4.349,7.03-11.087,9.221-15.611    c5.7-8.29,9.586-21.301-1.677-26.979c-10.107-5.543-18.25,3.273-23.119,11.204c-23.615,30.64-55.948,54.609-90.871,70.919    C999.015,1639.234,1026.922,1692.505,1058.484,1669.735z"/>
		<path style="fill:#F69D85;" d="M1107.193,1577.934c6.809-40.44,22.467-79.311,43.249-114.74    c10.625-18.115-8.232-30.853-20.61-15.367c-17.162,21.471-35.197,53.119-44.542,67.463    c-16.158,25.436-17.232,25.827-26.434,54.637C1049.133,1605.118,1105.038,1614.431,1107.193,1577.934z"/>
		<path style="fill:#F69D85;" d="M1021.723,1601.767c-7.623-67.075,7.087-82.573,15.802-122.675    c4.456-20.504-13.569-25.261-23.69-8.285c-7.966,13.362-21.068,47.458-25.805,63.885c-10.795,37.433-14.509,79.062-14.459,109.305    C975.04,1680.473,1030.598,1637.158,1021.723,1601.767z"/>
		<path style="fill:#F69D85;" d="M1043.982,1593.097c-3.131-40.89,13.29-78.154,24.927-117.545    c5.95-20.141-14.288-27.867-22.963-10.04c-7.48,15.371-22.995,56.27-31.345,83.8c-8.746,28.837-6.141,21.622-8.133,51.8    C1005.507,1637.609,1050.681,1629.039,1043.982,1593.097z"/>
		<path style="fill:#F69D85;" d="M1078.494,1569.88c1.095-40.995,18.1-68.706,35.839-118.433    c7.056-19.78-12.09-29.177-22.554-12.338c-9.023,14.52-22.304,40.23-31.186,62.664c-11.094,28.018-16.954,38.338-22.044,68.151    C1033.835,1606.128,1081.456,1606.321,1078.494,1569.88z"/>
		<path style="fill:#F69D85;" d="M1105.347,1591.359l-22.622,60.696l-56.996,204.29c0,0-91.216-1.003-139.109-48.842    c0,0,74.359-145.797,109.363-218.914L1105.347,1591.359z"/>
		<path style="fill:#EB5648;" d="M1093.062,1785.179l-13.395,8.128L855.48,1929.421l-116.235,70.574    c-23.374-103.733,230.865-358.411,230.865-358.411c68.025-20.009,112.611,10.47,112.611,10.47l6.549,84.319L1093.062,1785.179z"/>
		<path style="fill:#CE3932;" d="M2293.408,1812.811l-33.663-27.632l10.341-109.854c0,0,116.52,91.528,192.762,171.408    C2510.411,1896.574,2390.397,1852.79,2293.408,1812.811z"/>
		<path style="fill:#CE3932;" d="M1089.27,1736.374c-3.041,18.093-6.303,37.442-9.603,56.933    c-13.965,82.546-28.551,167.331-29.56,167.667c-1.243,0.414-124.712-5.966-194.626-31.553    c-41.195-15.065-63.805-36.795-31.89-67.714c86.092-83.4,259.131-209.652,259.131-209.652L1089.27,1736.374z"/>
		<path style="fill:#EB5648;" d="M1576.866,1402.867c0,0-3.964,14.044-11.039,37.717c-12.87,42.994-36.026,117.77-64.448,197.931    c-4.319,12.181-8.756,24.48-13.301,36.812c-44.297,120.258-98.459,243.521-146.138,284.027c-1.82,1.54-3.63,2.983-5.428,4.276    c-13.85,9.995-33.279,22.66-56.801,36.37H739.239v-0.054c0-0.011,0-0.011,0-0.011c-0.635-48.691,34.539-102.423,84.351-138.233    c19.246-13.829,41.809-29.758,68.422-49.165c45.665-33.268,103.241-76.726,176.402-137.21c3.36-2.779,6.753-5.59,10.178-8.444    c1.648-1.368,3.296-2.746,4.954-4.136c9.359-7.797,18.955-15.875,28.81-24.233c18.341-15.563,37.555-32.116,57.684-49.725    c145.729-127.485,280.699-167.571,352.621-180.161c32.999-5.784,52.73-5.773,54.13-5.762    C1576.845,1402.867,1576.866,1402.867,1576.866,1402.867z"/>
		<path style="fill:#EB5648;" d="M2567.568,2000h-578.749c-7.162-4.19-13.667-8.239-19.451-12.062    c-3.145-2.1-6.064-4.125-8.756-6.063c-50.425-36.414-108.314-174.668-154.324-306.547c-4.308-12.353-8.519-24.653-12.601-36.812    c-26.807-79.72-48.444-153.193-60.431-195.314c-6.591-23.177-10.264-36.866-10.264-36.866s0.021,0,0.075,0    c1.389,0.011,21.249,0.237,55.336,6.731c70.834,13.495,203.069,54.012,358.361,175.724c22.294,17.469,43.317,34.033,63.166,49.725    c16.23,12.838,31.686,25.094,46.397,36.812c7.561,6.01,14.917,11.879,22.1,17.598c6.074,4.847,12.019,9.585,17.824,14.238    l0.011,0.011c64.642,51.631,113.483,91.071,152.557,121.249c8.444,6.527,16.435,12.623,24.028,18.309    c7.119,5.342,13.893,10.318,20.366,14.97C2533.061,1897.523,2568.236,1951.298,2567.568,2000z"/>
		<path style="fill:#CE3932;" d="M1341.94,1959.354c-1.82,1.54-3.63,2.983-5.428,4.276c-13.85,9.995-33.279,22.66-56.801,36.37    h-50.641c38.987-125.062,99.407-277.543,99.407-277.543v0.065L1341.94,1959.354z"/>
		<path style="fill:#CE3932;" d="M2043.703,2000h-54.884c-7.162-4.19-13.667-8.239-19.451-12.062l-15.218-276.919    c0.011,0.022,0.011,0.032,0.011,0.043C1955.131,1713.97,2006.558,1868.918,2043.703,2000z"/>
		<rect x="1584.857" y="1276.479" style="fill:#F99370;" width="130.359" height="153.905"/>
		<path style="fill:#EB5648;" d="M2009.81,2000h-741.591c18.395-95.056,38.804-191.556,60.258-277.479    c4.028-16.134,8.088-31.89,12.181-47.194c3.36-12.59,6.753-24.879,10.156-36.812c28.648-100.495,58.47-176.187,87.291-200.71    c24.491-12.59,53.807-21.734,85.805-27.808c16.974-3.231,34.712-5.579,52.881-7.13c0.022,0,0.043-0.011,0.075-0.011    c0,0,0,0,0.011,0c2.649-0.226,5.31-0.431,7.981-0.625c0.409-0.032,0.819-0.054,1.228-0.086h0.011    c40.948-2.854,83.823-1.712,125.062,2.789c1.357,0.151,2.714,0.302,4.06,0.452c2.596,0.301,5.18,0.614,7.765,0.937    c0.022,0.011,0.054,0.011,0.086,0.011c18.18,2.294,35.972,5.245,53.064,8.788c0.011,0,0.011,0,0.011,0    c35.983,7.474,68.831,17.598,95.638,29.865c20.646,28.971,43.209,100.484,65.729,193.526c2.897,11.933,5.783,24.222,8.67,36.812    c2.66,11.642,5.32,23.554,7.97,35.692c0.011,0.022,0.011,0.032,0.011,0.043C1973.537,1799.678,1992.514,1900.517,2009.81,2000z"/>
		<path style="fill:#103663;" d="M1583.105,1401.176c95.896,31.612,133.985,0.081,133.985,0.081l-0.367-0.081l-1.507-39.922    c0,0-38.619,21.835-130.359,0L1583.105,1401.176z"/>
		<path style="fill:#F99370;" d="M1716.683,1337.069c-112.208,44.907-215.861,18.315-271.929-39.419    c-91.089-92.728,9.615-202.911,12.75-301.446c2.134-26.572,1.155-45.641,1.155-45.641    C1838.794,993.097,1736.769,1335.418,1716.683,1337.069z"/>
		<path style="fill:#F99370;" d="M1722.983,1323.263v83.065c0,0-61.891,44.984-146.107-3.464v-128.619L1722.983,1323.263z"/>
		<path style="fill:#E57D61;" d="M1648.071,1308.39c-19.69-2.47-97.087-14.67-103.772-55.237    c-6.668-40.604-14.969-57.103-14.969-57.103l-39.905-67.64c9.816-62.199-30.626-130.061-31.901-132.153    c-0.02-0.052-0.02-0.052-0.02-0.052c2.134-26.572,1.155-45.641,1.155-45.641c9.388,1.529,18.497,3.193,27.327,4.992l63.795,42.58    l71.245,71.593C1621.026,1069.729,1667.724,1310.843,1648.071,1308.39z"/>
		<path style="fill:#662948;" d="M1507.062,1106.722c0,0-4.189-87.797-48.252-136.705c-94.338-104.716,6.344-151.098,75.931-161.201    c69.587-10.104,318.275,64.76,284.624,185.629c0,0,86.893,31.628,2.958,226.028c-29.264,67.777-99.34,109.633-99.34,109.633    s-32.49-17.544-74.935-21.707c-30.579-2.998-78.499-25.55-82.903-55.959C1557.558,1200.032,1541.128,1129.488,1507.062,1106.722z"/>
		<path style="fill:#F99370;" d="M1553.983,1157.209c-10.767,31.332-39.956,49.707-65.197,41.039    c-25.241-8.667-36.975-41.093-26.209-72.423c10.766-31.333,39.956-49.706,65.197-41.039    C1553.014,1093.452,1564.749,1125.877,1553.983,1157.209z"/>
		<path style="fill:#C16256;" d="M1497.752,1106.96c1.051-0.264,25.946-6.487,37.769,7.53c3.013,3.565,4.754,8.1,5.389,13.461    c0.002,0.012,0,0.024,0.004,0.035c0.059,0.5,0.174,0.957,0.213,1.473c0.001,0.01,0.004,0.017,0.004,0.023    c-0.001,0.002-0.004,0.005-0.001,0.005c0.722,9.925-2.361,22.688-9.268,38.21c-0.777,1.729-2.677,2.623-4.468,2.182    c-0.217-0.054-0.43-0.13-0.651-0.221c-1.952-0.869-2.836-3.165-1.967-5.115c5.61-12.581,8.447-23.024,8.645-31.152    c-22.642,1.214-36.824,24.635-36.966,24.889c-0.885,1.521-2.65,2.216-4.28,1.816c-0.343-0.085-0.685-0.23-1.016-0.421    c-1.855-1.064-2.479-3.429-1.414-5.282c0.69-1.171,16.205-27.387,42.804-28.962c-0.648-2.29-1.568-4.324-2.931-5.941    c-8.685-10.303-29.744-5.081-29.938-5.031c-2.099,0.516-4.175-0.737-4.714-2.802    C1494.438,1109.597,1495.685,1107.497,1497.752,1106.96z"/>
		<path style="fill:#CE3932;" d="M1522.663,1408.627c0,0,41.284,48.095,120.422,53.382c79.138,5.287,135.32-48.941,135.32-48.941    s-28.228-11.534-55.423-6.74c0,0-31.015,16.029-73.053,16.029s-73.053-19.493-73.053-19.493S1558.377,1394.237,1522.663,1408.627z    "/>
	</g>
	<g id="_x31_">
		<path style="fill:#1D3F70;" d="M2226.35,2000H1059.83c6.72-23.88,14.9-47.15,24.44-69.7c89.95-212.66,300.51-361.87,545.93-361.87    h25.77C1927.42,1568.43,2156.24,1750.97,2226.35,2000z"/>
		<path style="fill:#163356;" d="M2188.06,2000H1098.11c96.49-196.4,298.5-331.57,532.09-331.57h25.77    C1889.56,1668.43,2091.58,1803.6,2188.06,2000z"/>
	</g>
</g>
</svg>