<?xml version="1.0" encoding="utf-8"?>
<!-- Generator: Adobe Illustrator 27.5.0, SVG Export Plug-In . SVG Version: 6.00 Build 0)  -->
<svg version="1.1" id="Ñëîé_1" xmlns="http://www.w3.org/2000/svg" xmlns:xlink="http://www.w3.org/1999/xlink" x="0px" y="0px"
	 viewBox="0 0 2600 2000" style="enable-background:new 0 0 2600 2000;" xml:space="preserve">
<rect id="_x38_" style="fill:#d9e8ff;" width="2600" height="2000"/>
<g>
	<g id="_x37_">
		<path style="fill:#CFDDF9;" d="M184.595,1578.901c0,0-13.986,74.05,50.826,93.289c88.65,26.315,609.016,95.455,482.601,147.994
			c-71.362,29.658,36.429,69.931,384.012,84.76c347.583,14.829,944.008-43.276,743.439-129.248
			c-200.569-85.972,618.793-17.968,569.017-196.795H184.595z"/>
		<path style="fill:#D4E8FF;" d="M578.134,1574.811c0,0-262.532-679.381-73.605-830.662
			c126.279-101.117,260.129,121.79,419.888,3.867c142.23-104.984-56.064-369.453,181.251-438.638
			c249.44-72.72,453.795,516.197,663.094,434.771c253.97-98.806,506.603,101.772,288.282,831.959L578.134,1574.811z"/>
		<path style="fill:#DCE6FF;" d="M372.722,1516.565c-4.407-13.505-8.768-27.498-12.96-41.59l10.332-3.073
			c4.165,14.001,8.497,27.903,12.875,41.318L372.722,1516.565z M2221.105,1499.125l-10.698-1.321
			c1.776-14.375,3.463-28.853,5.014-43.031l10.715,1.172C2224.58,1470.173,2222.887,1484.7,2221.105,1499.125z M347.862,1433.082
			c-3.773-13.927-7.432-28.114-10.876-42.165l10.47-2.566c3.423,13.967,7.06,28.068,10.81,41.912L347.862,1433.082z
			 M2230.549,1412.695l-10.73-1.014c1.364-14.433,2.627-28.952,3.754-43.152l10.745,0.851
			C2233.187,1383.635,2231.919,1398.208,2230.549,1412.695z M327.137,1348.504c-3.113-14.189-6.076-28.536-8.805-42.645
			l10.583-2.047c2.712,14.02,5.656,28.279,8.75,42.38L327.137,1348.504z M2237.411,1326.008l-10.758-0.681
			c0.912-14.423,1.713-28.972,2.378-43.241l10.767,0.502C2239.131,1296.916,2238.328,1311.525,2237.411,1326.008z M310.607,1263.003
			c-2.397-14.363-4.616-28.846-6.596-43.049l10.676-1.488c1.967,14.107,4.171,28.494,6.552,42.763L310.607,1263.003z
			 M2241.444,1239.128l-10.775-0.313c0.421-14.487,0.71-29.052,0.862-43.289l10.779,0.114
			C2242.158,1209.943,2241.867,1224.575,2241.444,1239.128z M298.602,1176.731c-1.607-14.508-3.006-29.098-4.158-43.367
			l10.744-0.868c1.144,14.163,2.532,28.646,4.127,43.048L298.602,1176.731z M2231.575,1152.234
			c-0.127-14.498-0.402-29.058-0.819-43.276l10.775-0.315c0.418,14.291,0.695,28.925,0.823,43.496L2231.575,1152.234z
			 M291.618,1089.883c-0.715-14.593-1.189-29.244-1.409-43.547l10.778-0.167c0.218,14.183,0.688,28.713,1.397,43.186
			L291.618,1089.883z M2229.024,1065.721c-0.74-14.479-1.65-29.007-2.704-43.18l10.749-0.8c1.061,14.255,1.976,28.868,2.72,43.429
			L2229.024,1065.721z M301.089,1002.967l-10.777-0.221c0.3-14.632,0.879-29.287,1.721-43.558l10.761,0.634
			C301.959,973.956,301.385,988.472,301.089,1002.967z M2222.581,979.448c-1.44-14.476-3.071-28.935-4.846-42.975l10.694-1.352
			c1.787,14.134,3.428,28.689,4.878,43.26L2222.581,979.448z M306.211,916.79l-10.726-1.077c1.465-14.577,3.249-29.146,5.306-43.303
			l10.667,1.55C309.425,887.961,307.659,902.371,306.211,916.79z M2211.7,893.662c-2.243-14.385-4.705-28.716-7.318-42.594
			l10.593-1.995c2.635,13.989,5.116,28.432,7.376,42.928L2211.7,893.662z M936.857,892.141c-14.978-2.362-25.812-9.18-40.82-20.954
			l6.813-8.353c13.147,10.288,22.643,16.459,35.155,18.589L936.857,892.141z M974.255,866.495l-9.599-4.902
			c4.935-9.662,9.296-23.071,12.966-39.853l10.53,2.302C984.231,841.975,979.685,855.862,974.255,866.495z M864.401,840.272
			c-8.587-9.562-17.764-20.568-28.054-33.645l8.471-6.666c10.145,12.892,19.175,23.722,27.604,33.109L864.401,840.272z
			 M318.659,831.431l-10.582-2.054c2.793-14.387,5.952-28.733,9.391-42.64l10.464,2.588
			C324.536,803.056,321.416,817.222,318.659,831.431z M2195.67,808.754c-3.192-14.237-6.636-28.351-10.235-41.95l10.421-2.758
			c3.634,13.731,7.109,27.98,10.33,42.35L2195.67,808.754z M995.404,780.659l-10.691-1.376c1.655-12.867,3.139-26.956,4.536-43.075
			l10.739,0.931C998.579,753.408,997.079,767.643,995.404,780.659z M809.946,771.898c-8.762-11.833-17.85-24.341-25.681-35.136
			l8.726-6.33c7.816,10.774,16.885,23.256,25.619,35.051L809.946,771.898z M1599.122,771.011c-8.394,0-16.631-2.508-24.48-7.454
			l5.747-9.12c11.791,7.443,23.39,7.46,35.915,1.523l4.638,9.73C1613.536,769.222,1606.195,771.011,1599.122,771.011z
			 M339.398,747.786l-10.308-3.152c4.283-14.005,8.982-27.935,13.966-41.401l10.109,3.741
			C348.252,720.247,343.621,733.979,339.398,747.786z M1656.19,737.51l-7.92-7.312c8.173-8.852,16.934-19.77,26.785-33.381
			l8.733,6.32C1673.683,717.098,1664.656,728.341,1656.19,737.51z M1543.992,730.098c-6.976-10.761-13.889-23.435-21.134-38.743
			l9.743-4.611c7.039,14.872,13.723,27.135,20.437,37.491L1543.992,730.098z M2173.526,725.326
			c-4.342-13.967-8.976-27.715-13.772-40.864l10.127-3.694c4.855,13.311,9.545,27.226,13.938,41.358L2173.526,725.326z
			 M758.719,701.62c-9.862-13.478-18.081-24.543-25.865-34.822l8.594-6.507c7.821,10.327,16.073,21.437,25.971,34.964
			L758.719,701.62z M1003.231,693.609l-10.757-0.696c0.817-12.629,1.649-26.823,2.541-43.395l10.764,0.58
			C1004.884,666.708,1004.051,680.94,1003.231,693.609z M369.323,667.073l-9.862-4.352c5.917-13.402,12.223-26.562,18.924-39.431
			l9.558,4.983C381.349,640.936,375.146,653.885,369.323,667.073z M1708.482,667.071l-9.007-5.923
			c7.66-11.646,15.573-23.985,23.582-36.449l9.068,5.827C1724.096,643.023,1716.175,655.372,1708.482,667.071z M1505.506,651.13
			c-4.883-12.247-9.928-25.608-15.424-40.848l10.139-3.657c5.457,15.126,10.46,28.378,15.298,40.513L1505.506,651.13z
			 M2143.897,644.407c-5.795-13.499-11.925-26.612-18.22-38.974l9.607-4.891c6.401,12.571,12.632,25.899,18.519,39.613
			L2143.897,644.407z M706.24,632.642c-9.781-12.141-18.885-22.947-27.833-33.035l8.064-7.153
			c9.062,10.217,18.274,21.15,28.164,33.425L706.24,632.642z M1008.022,606.616l-10.766-0.543
			c0.726-14.401,1.448-28.809,2.217-43.47l10.765,0.565C1009.469,577.822,1008.747,592.222,1008.022,606.616z M1755.757,594.12
			l-8.993-5.944c9.006-13.627,17.061-25.415,24.626-36.037l8.78,6.253C1772.679,568.911,1764.693,580.598,1755.757,594.12z
			 M409.32,591.078l-9.085-5.801c8.471-13.266,17.204-25.247,25.958-35.61l8.235,6.956
			C425.981,566.621,417.534,578.214,409.32,591.078z M1475.689,569.148c-4.944-14.486-9.794-28.981-13.885-41.249l10.225-3.411
			c4.087,12.251,8.929,26.722,13.862,41.177L1475.689,569.148z M648.769,568.394c-11.017-10.726-21.85-20.202-32.198-28.164
			l6.573-8.543c10.677,8.216,21.828,17.967,33.144,28.983L648.769,568.394z M2104.748,567.933
			c-7.724-12.604-15.822-24.524-24.07-35.43l8.596-6.502c8.459,11.185,16.759,23.398,24.664,36.3L2104.748,567.933z
			 M464.662,527.296l-6.538-8.57c12.873-9.82,26.27-16.901,39.82-21.047l3.154,10.308
			C488.774,511.757,476.516,518.253,464.662,527.296z M1806.169,523.999l-8.374-6.787c10.109-12.473,19.688-23.206,29.285-32.812
			l7.625,7.618C1825.375,501.358,1816.041,511.819,1806.169,523.999z M1012.653,519.76l-10.76-0.641
			c0.933-15.668,1.86-29.897,2.833-43.499l10.752,0.769C1014.508,489.949,1013.584,504.136,1012.653,519.76z M580.933,517.504
			c-13.451-6.693-26.681-10.966-39.323-12.698l1.463-10.68c13.806,1.892,28.16,6.51,42.662,13.727L580.933,517.504z
			 M2052.948,500.079c-10.377-10.632-21.123-20.017-31.935-27.893l6.347-8.713c11.299,8.23,22.505,18.013,33.303,29.076
			L2052.948,500.079z M1448.054,486.653c-5.362-16.038-9.781-29.115-13.907-41.154l10.196-3.495
			c4.136,12.065,8.563,25.166,13.933,41.23L1448.054,486.653z M1866.965,464.503l-6.178-8.832
			c13.257-9.274,26.646-16.143,39.798-20.414l3.329,10.252C1891.78,449.45,1879.348,455.841,1866.965,464.503z M1984.58,451.297
			c-13.35-5.631-26.864-9.116-40.165-10.359l1.002-10.733c14.4,1.345,28.986,5.1,43.352,11.159L1984.58,451.297z M1018.927,433.113
			l-10.737-0.954c1.343-15.124,2.805-29.73,4.344-43.413l10.712,1.205C1021.715,403.552,1020.262,418.073,1018.927,433.113z
			 M1419.805,404.501c-5.209-14.538-10.117-27.828-15.006-40.628l10.07-3.846c4.916,12.87,9.849,26.228,15.084,40.838
			L1419.805,404.501z M1028.733,346.971l-10.669-1.542c2.18-15.092,4.577-29.605,7.123-43.138l10.593,1.993
			C1033.263,317.667,1030.891,332.029,1028.733,346.971z M1388.786,323.627c-5.792-13.932-11.63-27.262-17.354-39.619l9.782-4.53
			c5.783,12.485,11.68,25.947,17.526,40.011L1388.786,323.627z M1044.934,262.103l-10.458-2.612
			c3.76-15.052,7.905-29.23,12.319-42.141l10.199,3.487C1052.678,233.461,1048.62,247.345,1044.934,262.103z M1352.288,245.323
			c-7.09-13.352-14.332-25.887-21.525-37.255l9.109-5.764c7.339,11.599,14.719,24.371,21.938,37.964L1352.288,245.323z
			 M1073.183,181.346l-9.666-4.771c7.078-14.341,14.927-27.021,23.329-37.689l8.467,6.67
			C1087.375,155.635,1079.929,167.676,1073.183,181.346z M1306.058,173.107c-9.419-11.807-19.14-22.267-28.894-31.087l7.231-7.995
			c10.185,9.21,20.309,20.098,30.09,32.36L1306.058,173.107z M1125.387,117.618l-5.811-9.079
			c12.769-8.172,26.838-13.487,41.815-15.794l1.641,10.653C1149.549,105.476,1136.884,110.259,1125.387,117.618z M1243.154,117.611
			c-12.557-6.769-25.636-11.397-38.876-13.755l1.89-10.613c14.37,2.559,28.535,7.565,42.102,14.879L1243.154,117.611z"/>
		<path style="fill:#EEF7FF;" d="M2295.917,1273.133c-89.45-13.259-81.353,186.001-208.858,186.001
			c-116.578,0-178.96-445.187-306.888-354.642c-514.299,364.011-114.141-255.419-459.962-267.527
			c-156.37-5.475-260.567,161.261-298.992,456.473c-55.698,266.882-184.87-203.555-317.802-159.815
			c-84.485,27.799-74.809,325.511-191.387,325.511c-127.505,0-119.105-167.556-208.556-154.297
			c-96.308,14.275-118.877,274.063-118.877,274.063h2229.896C2414.491,1578.901,2392.225,1287.408,2295.917,1273.133z"/>
		<path style="fill:#DCE6FF;" d="M2210.204,1482.271c-82.292-5.662-68.864,45.488-186.166,45.488
			c-107.249,0-104.302-114.634-176.071-138.997c-132.167-44.866-241.129,182.205-292.37,68.243
			c-97.32-302.391-381.162-454.038-512.108,0c-51.241,113.962-171.068-89.387-292.37-68.243
			c-74.666,13.015-68.823,138.997-176.071,138.997c-117.302,0-103.873-51.15-186.165-45.488
			c-88.601,6.096-115.065,96.63-115.065,96.63h2051.451C2325.269,1578.901,2298.805,1488.366,2210.204,1482.271z"/>
	</g>
	<g id="_x36_">
		<path style="fill:#9358E0;" d="M718.909,829.426c-6.11-8.329,66.324-75.716,79.927-80.115
			c-12.579-3.742-27.033-9.396-42.552-17.876c-2.604,10.77-92.646,70.721-98.728,62.109c-4.652-9.281,79.729-63.717,93.433-65.09
			c-12-6.959-24.563-15.629-37.341-26.427c-0.197,9.572-105.758,54.917-109.215,44.895c-3.579-9.906,95.34-50.882,106.251-47.44
			c-8.869-7.706-17.824-16.425-26.751-26.341c-6.695,9.778-106.947,43.647-110.854,33.892
			c-2.034-10.144,92.674-40.629,106.637-38.679c-7.384-8.469-15.013-18.306-22.076-28.164
			c-8.644,8.584-111.916,26.702-114.395,16.51c-0.388-10.251,95.898-25.792,110.236-22.19
			c-7.537-10.237-14.803-19.804-21.787-28.731c-9.648,8.454-111.116,26.241-113.754,16.134
			c-0.344-10.125,93.651-25.408,108.896-22.305c-8.47-10.67-16.503-20.372-24.101-29.212c-9.1,8.526-111.568,26.5-114.125,16.345
			c-0.344-10.131,93.757-25.425,108.962-22.3c-8.556-9.769-16.51-18.381-23.852-25.975c-6.139,8.876-113.637,27.703-115.618,17.335
			c-0.439-10.312,97.167-26.012,110.95-22.115c-10.098-10.213-18.924-18.379-26.437-24.872
			c-6.821,8.208-116.145,15.17-116.917,4.639c0.762-10.045,94.981-14.951,110.14-10.347c-23.745-20.818-33.881-15.016-67.711-33.611
			c-68.875-34.545-61.406-49.401,7.332-14.532c35.4,17.837,40.515,24.759,61.303,40.275c-10.822-13.684-45.301-95.352-36.887-99.92
			c9.417-4.867,53.841,101.653,47.083,108.366c7.187,6.202,15.536,13.912,25.016,23.434
			c-8.262-14.152-27.626-104.569-18.241-107.749c10.204-2.857,33.315,109.58,25.596,115.267c7.092,7.38,14.745,15.71,22.943,25.086
			c-5.039-16.126-5.861-106.829,3.834-107.985c10.515,0.535,10.535,107.195,3.252,116.194c7.204,8.451,14.798,17.681,22.775,27.752
			c-3.682-15.062,7.975-109.639,18.083-109.592c10.431,1.621-4.219,109.762-12.869,116.229c6.994,8.966,14.269,18.566,21.822,28.839
			c-0.617-16.367,24.966-105.254,34.743-103.63c9.705,3.885-19.748,102.391-29.294,111.09c7.03,9.769,14.364,18.965,21.581,27.163
			c-3.891-11.651,24.548-112.268,34.806-110.108c10.31,2.419-22.182,111.787-31.681,113.627c8.482,9.377,16.981,17.659,25.397,24.99
			c-3.228-12.664,24.629-111.136,34.871-109.182c10.037,3.261-21.121,107.531-30.671,112.768
			c12.631,10.567,25.024,19.011,36.823,25.741c-4.718-11.476,15.486-113.704,25.882-112.412
			c10.263,2.456-12.411,108.813-21.507,114.846c15.078,8.174,29.074,13.58,41.219,17.147c-4.38-13.654,7.536-111.685,17.831-111.565
			c10.083,2.488-3.395,102.125-11.269,113.37c36.411,9.331,61.945,4.681,62.254,4.623l1.242,6.444
			c-1.14,0.22-27.692,5.127-66.2-4.985C804.333,762.24,726.434,836.807,718.909,829.426z"/>
		<path style="fill:#8A9EDD;" d="M766.572,620.151c2.201-10.092,100.656-0.382,112.956,6.905
			c-5.519-11.907-10.845-26.484-14.758-43.732c-9.798,5.175-114.33-22.657-111.899-32.916c3.879-9.63,100.531,17.608,110.629,26.974
			c-2.724-13.602-4.537-28.758-4.898-45.483c-7.306,6.187-111.159-42.947-105.932-52.17c5.058-9.238,101.24,37.806,105.88,48.264
			c-0.092-11.748,0.519-24.232,2.045-37.487c-11.761,1.451-103.496-51.295-98.768-60.68c6.259-8.238,91.788,42.592,99.566,54.351
			c1.463-11.141,3.789-23.37,6.506-35.188c-12.156-0.8-94.08-66.234-88.08-74.837c7.429-7.075,82.798,54.827,89.586,67.961
			c2.687-12.425,5.051-24.203,7.122-35.347c-12.723-1.639-93.206-65.94-87.374-74.606c7.363-6.958,81.023,53.397,88.785,66.88
			c2.394-13.411,4.352-25.854,5.951-37.4c-12.414-1.18-93.698-66.107-87.777-74.745c7.368-6.962,81.107,53.465,88.826,66.933
			c1.662-12.879,2.855-24.542,3.69-35.072c-10.717,1.272-95.97-66.862-89.508-75.209c7.441-7.153,83.803,55.633,90.002,68.546
			c0.974-14.329,1.256-26.351,1.151-36.28c-10.668,0.318-88.233-77.037-80.849-84.584c8.035-6.076,74.064,61.314,80.644,75.726
			c-0.106-31.579-11.163-35.338-19.61-73.007c-19.68-74.497-3.599-78.729,15.747-4.12c10.053,38.344,8.249,46.759,10.374,72.613
			c3.097-17.169,41.509-97.063,50.501-93.778c9.881,3.839-40.58,107.636-50.086,107.012c0.106,9.492-0.148,20.854-1.014,34.262
			c5.142-15.56,60.115-89.911,68.709-84.98c8.895,5.759-60.107,97.493-69.478,95.469c-0.84,10.201-2.02,21.451-3.624,33.802
			c8.755-14.45,76.213-75.089,83.495-68.586c6.557,8.237-73.394,78.836-84.961,79.331c-1.569,10.994-3.463,22.794-5.734,35.44
			c8.855-12.728,87.476-66.576,94.129-58.967c5.688,8.892-85.081,69.473-95.655,67.268c-2.094,11.177-4.476,22.984-7.18,35.445
			c11.862-11.294,95.432-50.936,100.685-42.531c3.509,9.847-89.833,52.953-102.671,51.553c-2.672,11.736-4.713,23.319-6.083,34.155
			c6.161-10.627,100.414-55.891,105.583-46.771c5.01,9.33-98.487,57.346-106.153,51.443c-1.417,12.564-2.002,24.418-1.929,35.578
			c7.358-10.801,99.619-55.081,104.932-46.11c4.197,9.683-94.594,55.325-104.84,51.631c0.436,16.463,2.307,31.342,5.07,44.641
			c5.481-11.132,95.494-63.635,101.404-54.986c4.95,9.319-89.791,62.703-100.334,59.877c3.85,16.713,9.059,30.784,14.422,42.249
			c7.338-12.319,88.719-68.259,95.442-60.461c4.808,9.206-78.811,65.037-92.452,66.576c17.1,33.473,37.483,49.539,37.732,49.732
			l-4.01,5.195c-0.919-0.709-22.169-17.368-40.071-52.93C873.473,639.733,766.019,630.677,766.572,620.151z"/>
		<path style="fill:#EB5648;" d="M1486.603,706.598c69.416-41.254,128.123-87.832,176.238-132.682
			c-9.484,2.131-46.379-7.504-44.503-15.481c2.218-8.924,47.179,1.876,50.698,9.656c3.244-3.072,6.441-6.134,9.585-9.184
			c-9.177,1.676-46.73-14.148-43.631-22.184c3.566-8.474,46.308,9.107,48.603,17.334c3.944-3.875,7.806-7.728,11.587-11.556
			c-9.448,1.178-45.789-14.34-42.707-22.182c3.606-8.307,44.784,8.54,48.173,16.606c3.752-3.853,7.442-7.684,11.027-11.474
			c-8.514,2.012-46.415-21.229-41.837-29.037c4.846-7.893,45.058,16.852,45.339,25.305c3.447-3.678,6.83-7.329,10.118-10.934
			c-9.117,0.713-44.701-21.39-40.298-28.971c4.881-7.596,42.614,15.461,44.825,23.967c3.917-4.349,7.717-8.637,11.397-12.856
			c-9.215,0.477-44.33-21.412-39.954-28.93c4.854-7.516,41.942,15.066,44.609,23.567c2.812-3.267,5.532-6.477,8.199-9.65
			c-8.968-0.251-41.253-28.617-35.561-35.453c5.996-6.53,38.262,21.379,39.901,30.258c3.765-4.543,7.29-8.849,10.826-13.268
			c-9.127-0.9-40.383-28.542-34.788-35.264c5.856-6.396,37.089,20.381,39.508,29.335c2.674-3.384,5.281-6.726,7.822-10.023
			c-8.597-0.74-35.635-37.184-28.377-42.719c7.156-5.027,32.203,28.295,32.388,37.48c3.104-4.08,6.1-8.084,8.995-12.008
			c-8.626-1.058-35.348-37.117-28.139-42.651c7.067-4.983,31.753,27.701,32.286,36.99c3.08-4.235,6.033-8.365,8.861-12.382
			c-8.685-3.986-31.567-35.908-24.892-40.987c5.999-4.75,28.072,22.775,30.825,32.466c2.726-3.961,5.321-7.793,7.783-11.486
			c-8.169-3.897-27.094-41.928-19.295-46.089c6.804-3.654,23.953,27.575,24.91,37.567c2.205-3.388,4.281-6.632,6.236-9.726
			c-8.237-2.299-26.245-44.706-17.821-48.362c7.43-3.159,22.862,30.941,22.562,40.762c2.922-4.742,5.494-9.03,7.72-12.818
			c-8.053-3.597-25.124-44.115-16.909-47.792c6.865-3.216,21.773,28.381,22.273,38.478c1.94-3.446,3.36-6.063,4.269-7.766
			c-2.192-8.869,13.951-47.596,22.149-44.462c3.785,1.55,2.358,13.782-3.187,27.319c-6.189,16.106-11.934,17.087-17.647,28.622
			c8.231-5.938,41.627-14.28,43.402-7.026c2.616,8.876-42.52,22.207-49.072,16.844c-2.075,3.518-4.435,7.446-7.077,11.739
			c8.859-4.493,45.281-6.028,45.723,1.841c0.517,9.104-44.617,12.375-50.85,6.379c-2.304,3.646-4.781,7.502-7.426,11.546
			c9.264-3.651,45.47-1.996,45.208,5.841c-0.327,8.993-44.245,8.456-50.635,2.358c-2.478,3.7-5.086,7.537-7.821,11.494
			c9.425-2.98,45.962,1.902,45.041,9.808c-1.146,8.878-44.387,4.448-50.429-2.089c-2.575,3.651-5.253,7.396-8.032,11.223
			c9.391-2.277,46.706,7.388,44.844,15.441c-2.285,8.674-44.752-1.367-49.807-8.663c-2.564,3.471-5.205,7.003-7.93,10.596
			c9.123-1.771,46.891,14.111,43.786,22.178c-3.604,8.287-44.61-8.472-48.109-16.521c-2.865,3.723-5.808,7.501-8.841,11.334
			c8.878-2.174,47.568,13.958,44.434,22.15c-3.583,8.418-45.794-8.915-48.463-17.094c-3.323,4.159-6.632,8.203-10.148,12.457
			c9.176-1.677,46.733,14.148,43.633,22.184c-3.604,8.323-44.929-8.594-48.218-16.677c-2.501,2.984-5.063,6.008-7.693,9.075
			c9.428,0.102,43.383,21.471,39.066,28.818c-4.787,7.382-40.807-14.401-44.212-22.863c-3.197,3.675-6.463,7.39-9.839,11.164
			c9.25-0.391,44.193,21.421,39.826,28.915c-4.856,7.521-41.986-15.092-44.622-23.593c-3.453,3.81-7.001,7.666-10.633,11.56
			c8.892-1.23,45.428,21.328,40.96,29.016c-4.884,7.731-43.727-16.098-45.093-24.599c-3.362,3.565-6.812,7.165-10.321,10.788
			c9.139,0.266,42.151,26.07,36.958,33.135c-5.628,6.94-39.993-19.422-41.793-28.164c-3.792,3.865-7.689,7.763-11.647,11.679
			c8.624-1.235,44.025,26.09,38.612,33.372c-5.683,7.254-42.453-21.216-42.302-29.728c-4.179,4.095-8.464,8.216-12.824,12.352
			c8.786,0.296,39.636,31.894,33.317,38.332c-6.594,6.183-37.622-25.476-37.628-34.248
			c-48.925,45.914-108.922,93.769-180.093,136.066L1486.603,706.598z"/>
		<path style="fill:#FCB4B4;" d="M1422.331,881.982c83.797-31.877,156.898-71.621,218.084-111.495
			c-10.782,0.521-49.295-17.057-45.722-25.425c4.128-9.338,51.245,11.055,53.61,20.235c4.135-2.741,8.215-5.479,12.236-8.216
			c-10.358,0.082-48.412-24.392-43.489-32.59c5.517-8.588,48.912,18.797,49.853,28.233c5.053-3.486,10.012-6.963,14.878-10.428
			c-10.56-0.514-47.345-24.422-42.478-32.412c5.529-8.397,47.353,17.886,49.522,27.355c4.839-3.498,9.606-6.984,14.25-10.445
			c-9.696,0.575-46.717-32.077-40.22-39.743c6.807-7.708,46.067,27.029,44.762,36.33c4.472-3.365,8.869-6.713,13.153-10.029
			c-10.109-0.96-44.811-31.926-38.549-39.378c6.788-7.377,43.659,25.042,44.455,34.768c5.114-4.01,10.089-7.974,14.919-11.887
			c-10.171-1.237-44.4-31.879-38.18-39.267c6.743-7.295,43,24.483,44.295,34.289c3.699-3.037,7.287-6.028,10.809-8.991
			c-9.76-1.985-39.661-39.172-32.131-45.564c7.805-5.997,37.771,30.686,37.869,40.71c4.983-4.252,9.666-8.282,14.368-12.449
			c-9.812-2.73-38.718-38.923-31.317-45.206c7.625-5.878,36.675,29.366,37.615,39.622c3.573-3.194,7.05-6.347,10.462-9.472
			c-9.261-2.459-31.872-47.467-22.879-52.137c8.784-4.133,29.817,37.08,28.273,47.165c4.169-3.867,8.214-7.674,12.126-11.41
			c-9.233-2.809-31.575-47.341-22.635-52.018c8.68-4.101,29.442,36.352,28.255,46.616c4.177-4.045,8.192-7.997,12.052-11.85
			c-40.016-46.864-15.297-78.529,8.116-8.19c3.735-3.81,7.308-7.508,10.704-11.075c-8.19-5.822-21.633-51.028-12.308-54.092
			c8.138-2.698,20.935,34.723,20.077,45.836c3.056-3.283,5.947-6.434,8.674-9.443c-8.569-4.09-20.171-53.903-10.261-56.295
			c8.728-2.037,19.101,38.199,16.9,48.886c4.096-4.624,7.734-8.828,10.889-12.543c-8.121-5.472-19.061-53.046-9.374-55.501
			c8.123-2.207,18.399,35.198,17.018,46.337c2.793-3.415,4.834-5.993,6.151-7.68c-0.705-10.119,24.342-49.397,32.71-44.405
			c3.844,2.418-0.05,15.524-8.699,29.272c-9.843,16.435-16.314,16.412-24.765,27.939c10.136-4.924,48.256-7.676,48.814,0.598
			c1.169,10.207-50.752,16.177-56.89,9.057c-2.942,3.455-6.271,7.295-9.984,11.492c10.547-3.226,50.682,2.046,49.664,10.738
			c-1.171,10.057-51.171,5.021-56.839-2.729c-3.223,3.555-6.651,7.288-10.324,11.214c10.83-2.226,50.115,6.494,48.334,15.015
			c-2.073,9.775-50.018,0.805-55.837-7.087c-3.419,3.577-7.002,7.274-10.751,11.084c10.877-1.464,49.917,10.848,47.402,19.322
			c-2.947,9.492-49.4-3.605-54.761-11.909c-3.511,3.501-7.163,7.088-10.931,10.743c10.705-0.701,49.682,16.992,46.108,25.447
			c-4.155,9.051-48.693-10.037-52.826-18.982c-3.465,3.306-7.041,6.67-10.705,10.077c10.314-0.204,48.608,24.381,43.672,32.614
			c-5.524,8.378-47.187-17.785-49.471-27.257c-3.848,3.53-7.777,7.098-11.831,10.716c10.125-0.686,49.366,24.344,44.375,32.706
			c-5.524,8.526-48.399-18.496-49.748-27.951c-4.421,3.924-8.818,7.711-13.475,11.696c10.357-0.084,48.417,24.392,43.493,32.591
			c-5.531,8.416-47.503-17.974-49.558-27.442c-3.305,2.787-6.684,5.605-10.146,8.458c10.293,1.911,43.354,31.763,37.23,38.975
			c-6.645,7.16-41.886-23.539-43.996-33.443c-4.198,3.409-8.479,6.849-12.892,10.334c10.192,1.338,44.25,31.863,38.043,39.227
			c-6.746,7.3-43.044-24.519-44.305-34.321c-4.503,3.508-9.121,7.049-13.836,10.615c9.96,0.35,45.618,31.996,39.265,39.553
			c-6.817,7.523-44.756-25.951-44.627-35.511c-4.357,3.258-8.818,6.537-13.348,9.83c9.946,2.035,41.128,36.558,34.101,43.295
			c-7.48,6.517-40.037-28.874-40.338-38.78c-4.885,3.504-9.891,7.024-14.968,10.552c9.669,0.295,43.175,36.937,35.864,43.87
			c-7.6,6.85-42.385-31.306-40.596-40.588c-5.352,3.682-10.826,7.371-16.383,11.063c9.554,2,37.267,42.448,29.127,48.284
			c-8.392,5.505-36.289-35.044-34.621-44.64c-62.275,40.884-137.029,81.778-222.945,114.46L1422.331,881.982z"/>
	</g>
	<g id="_x35_">
		<path style="fill:#7689D6;" d="M1643.645,1687.31l-773.662,19.218c-51.223,0-84.858-34.677-86.425-54.713L693.488,538.57
			c-1.75-22.376,27.136-60.716,86.425-60.716l773.662,19.218c20.097,0,36.812,15.459,38.379,35.494l90.071,1113.246
			C1683.774,1668.188,1666.089,1687.31,1643.645,1687.31z"/>
		<path style="fill:#8A9EDD;" d="M1691.692,1706.528H869.984c-20.097,0-36.812-15.459-38.379-35.494L741.534,519.351
			c-1.75-22.375,15.935-41.497,38.379-41.497h821.708c20.097,0,36.812,15.459,38.379,35.494l90.071,1151.683
			C1731.82,1687.406,1714.135,1706.528,1691.692,1706.528z"/>
		<path style="fill:#FFFFFF;" d="M1642.17,1659.49H916.48c-19.97,0-36.61-15.29-38.3-35.19l-19.99-235.66l-69.58-820.05
			c-1.9-22.43,15.79-41.68,38.3-41.68h725.69c19.97,0,36.61,15.29,38.3,35.18l12.35,145.61l77.22,910.1
			C1682.37,1640.23,1664.68,1659.49,1642.17,1659.49z"/>
		<path style="fill:#EB5648;" d="M1182.86,1659.49H916.48c-19.97,0-36.61-15.29-38.3-35.19l-19.99-235.66
			c15.6-43.68,43.42-107.76,79.65-134.57c57.46-42.52,17.94,93.82,0.17,168.89c-17.78,75.06,9.29,88.7,50.14,48.94
			c40.85-39.75,76.08-116.27,112.85-106.35c36.77,9.92-116.43,170.77-84.26,206c32.17,35.24,226.73-137.87,310.98-114.89
			C1399.76,1476.31,1270.3,1608.39,1182.86,1659.49z"/>
		<path style="fill:#CE4ABF;" d="M1603.25,707.7c-156.88,27.04-184.38,131.67-228.04,114.04
			c-51.06-20.62-87.064,27.171-101.79,139.877c-14.607,111.793,49.502,226.185-6.463,232.325
			c-49.021,5.378-35.083-97.058-31.157-155.052c8.696-128.482-136.33-233.29-64.84-378.6c30.53-62.05,86.92-104.79,141.51-133.38
			h240.13c19.97,0,36.61,15.29,38.3,35.18L1603.25,707.7z"/>
		<path style="fill:#3A72AA;" d="M958.532,866.495c0,0,54.429-32.609,91.915-9.233c64.634,40.306,37.611,118.813,59.234,181.628
			c31.66,91.97-81.702,95.308-87.83,40.138c-6.582-59.26,20.426-142.595,9.192-181.461
			C1019.808,858.702,958.532,866.495,958.532,866.495z"/>
		
			<ellipse transform="matrix(0.1602 -0.9871 0.9871 0.1602 467.4571 1623.4182)" style="fill:#EB5648;" cx="1187.778" cy="536.994" rx="31.179" ry="31.179"/>
	</g>
	<g id="_x34_">
		<path style="fill:#5770B5;" d="M1740.946,1526.668v216.048c0,31.398-28.473,56.851-63.587,56.851h-104.536
			c-35.121,0-63.587-25.453-63.587-56.851v-216.048c0-16.136,7.517-30.7,19.593-41.049c18.717-16.032,30.684-37.336,33.791-60.345
			l4.165-30.906h116.605l4.172,30.906c3.1,23.009,15.074,44.313,33.785,60.345
			C1733.423,1495.968,1740.946,1510.533,1740.946,1526.668z"/>
		<path style="fill:#8A9EDD;" d="M1720.594,1526.668v216.048c0,31.398-28.473,56.851-63.587,56.851h-84.184
			c-35.121,0-63.587-25.453-63.587-56.851v-216.048c0-16.136,7.517-30.7,19.593-41.049c18.717-16.032,30.684-37.336,33.791-60.345
			l4.165-30.906h96.252l4.172,30.906c3.1,23.009,15.074,44.313,33.785,60.345C1713.07,1495.968,1720.594,1510.533,1720.594,1526.668
			z"/>
		<rect x="1509.236" y="1576.997" style="fill:#5770B5;" width="231.707" height="115.39"/>
		<path style="fill:#1D3F70;" d="M1687.521,1412.27H1562.66c-7.369,0-13.342-5.973-13.342-13.342v-19.16
			c0-7.369,5.974-13.342,13.342-13.342h124.861c7.369,0,13.342,5.973,13.342,13.342v19.16
			C1700.863,1406.296,1694.889,1412.27,1687.521,1412.27z"/>
	</g>
	<g id="_x33_">
		<path style="fill:#F49F9F;" d="M1478.618,1577.534v175.782c0,25.546-23.166,46.251-51.735,46.251h-85.055
			c-28.57,0-51.735-20.705-51.735-46.251v-175.782c0-13.13,6.126-24.977,15.947-33.393c15.225-13.053,24.961-30.379,27.487-49.097
			l3.391-25.155h94.875l3.391,25.155c2.526,18.718,12.262,36.043,27.487,49.097
			C1472.502,1552.557,1478.618,1564.404,1478.618,1577.534z"/>
		<path style="fill:#FCB4B4;" d="M1459.622,1577.534v175.782c0,25.546-23.166,46.251-51.736,46.251h-66.059
			c-28.57,0-51.735-20.705-51.735-46.251v-175.782c0-13.13,6.126-24.977,15.947-33.393c15.225-13.053,24.961-30.379,27.487-49.097
			l3.391-25.155h75.879l3.391,25.155c2.526,18.718,12.262,36.043,27.487,49.097
			C1453.506,1552.557,1459.622,1564.404,1459.622,1577.534z"/>
		<path style="fill:#1D3F70;" d="M1435.151,1484.459h-101.589c-5.995,0-10.855-4.86-10.855-10.855v-15.589
			c0-5.995,4.86-10.855,10.855-10.855h101.589c5.995,0,10.855,4.86,10.855,10.855v15.589
			C1446.006,1479.599,1441.146,1484.459,1435.151,1484.459z"/>
		<ellipse style="fill:#FFD2D2;" cx="1384.357" cy="1649.51" rx="61.65" ry="55.124"/>
	</g>
	<g id="_x32_">
		<path style="fill:#F99370;" d="M1727.544,1129.863c0,0-8.789-3.734-10.844-18.805l9.658-17.498l10.889,6.185l5.086,22.046
			L1727.544,1129.863z"/>
		<path style="fill:#F99370;" d="M2098.742,1786.465l67.795-34.723c-0.681-4.191-12.421-18.874-14.858-25.242
			c-2.167-3.625-21.624-54.882-23.796-60.112l-38.923,19.935l31.94,46.87c3.788,5.559,3.087,13.013-1.645,17.792
			c-10.063,11.17-25.521,16.163-28.495,30.097C2090.38,1785.389,2094.895,1788.435,2098.742,1786.465z"/>
		<path style="fill:#EB5648;" d="M2165.255,1744.169c0.897,2.431,1.404,4.979,1.284,7.574l-68.354,35.009
			c-3.324,1.702-7.406-0.338-7.91-4.039c-1.159-8.658,2.401-23.911,33.064-41.696c0,0,12.354-2.299,28.342-14.516
			C2151.681,1726.501,2161.633,1734.306,2165.255,1744.169z"/>
		<path style="fill:#CE3932;" d="M2090.257,1782.58l74.998-38.412c0.897,2.431,1.404,4.979,1.284,7.574l-68.354,35.009
			C2094.817,1788.482,2090.674,1786.344,2090.257,1782.58z"/>
		<path style="fill:#F99370;" d="M1872.217,1793.269l76.163-1.015c1.25-4.058-2.751-22.426-2.107-29.214
			c-0.332-4.21,4.99-58.777,5.365-64.428l-43.728,0.583l7.811,56.177c0.927,6.663-3.011,13.031-9.373,15.213
			c-13.976,5.542-30.044,3.152-38.894,14.318C1865.201,1788.592,1867.894,1793.326,1872.217,1793.269z"/>
		<path style="fill:#EB5648;" d="M1950.593,1784.898c-0.276,2.577-0.953,5.085-2.212,7.356l-76.791,1.023
			c-3.734,0.05-6.486-3.59-5.295-7.13c2.805-8.273,12.767-20.359,48.138-22.683c0,0,12.09,3.425,31.84-0.424
			C1946.274,1763.041,1951.726,1774.452,1950.593,1784.898z"/>
		<path style="fill:#CE3932;" d="M1866.338,1786.021l84.255-1.123c-0.276,2.577-0.953,5.085-2.212,7.356l-76.791,1.023
			C1867.804,1793.333,1865.041,1789.578,1866.338,1786.021z"/>
		<path style="fill:#9358E0;" d="M1859.129,1722.496c1.055,9.559,1.806,14.771,1.806,14.771
			c33.679,16.634,83.801,12.922,116.844,4.496c-0.454-2.839-0.889-5.671-1.316-8.484c-0.359-2.397-0.709-4.786-1.051-7.157
			c0,0,0,0-0.009,0c-26.124-181.729-5.806-308.928-5.806-308.928c13.337,87.501,26.861,147.947,92.203,300.667
			c2.212,5.165,4.488,10.436,6.845,15.822c38.782-6.675,84.483-29.342,113.283-51.763c-3.044-5.031-5.964-10.063-8.759-15.088
			c-83.709-150.007-65.039-297.654-108.156-376.709c0,0-172.336,11.85-174.385,17.852
			C1830.717,1483.653,1852.999,1667.024,1859.129,1722.496z"/>
		<path style="fill:#1D3F70;" d="M1926.303,996.731c0,0,26.613-35.105,67.345-2.338c19.285,15.514,35.903,50.435,48.099,63.201
			c41.297,43.228,13.719,88.617-12.66,97.941c-25.895,9.153-92.527,43.223-130.521,3.764c-25.036-26.001-4.154-58.72,4.632-80.649
			C1911.982,1056.721,1926.303,996.731,1926.303,996.731z"/>
		<path style="fill:#1D3F70;" d="M1940.297,1000.242c0,0-19.687-11.486-35.277,7.053c-15.589,18.539,0.257,62.184,0.257,62.184
			L1940.297,1000.242z"/>
		<path style="fill:#F99370;" d="M1930.839,1111.962l1.074,10.402c-5.811,6.448,2.137,15.916,7.513,15.605
			c8.184-0.474,22.221-13.533,24.66-17.584c0,0-1.733-9.879-1.969-14.494L1930.839,1111.962z"/>
		<path style="fill:#F99370;" d="M1902.787,1137.233c-27.894,21.738-51.371,46.342-87.379,53.571
			c-27.054,6.912-40.874-24.358-52.552-44.481c-4.709-8.76-9.335-17.892-14.385-27.036c-6.761-12.442-26.182-3.602-21.267,9.637
			c7.093,19.537,12.47,39.224,21.997,58.541c26.808,57.851,80.699,53.138,130.548,28.504c19.245-9.33,34.91-22.599,52.399-33.619
			C1964.125,1162.966,1933.547,1115.819,1902.787,1137.233z"/>
		<path style="fill:#EB5648;" d="M1728.558,1145.312c0.58,6.836,2.333,16.87,6.763,30.899
			c10.042,31.815,37.962,64.483,78.737,69.837c10.022,1.318,20.933,0.844,31.535-0.796h0.008
			c23.282-3.593,45.088-12.803,52.819-21.113c1.109-1.192,2.155-3.114,3.134-5.609c8.975-22.82,12.671-93.603,12.671-93.603
			c-1.708,2.067-14.259,5.271-45.447,33.33c-26.28,23.649-60.989,29.307-80.454,5.673c-9.936-12.078-20.878-26.671-29.348-35.185
			c0,0,0,0-0.008,0c-3.67-3.695-6.88-6.256-9.333-6.956c0,0-7.948,10.772-20.654,11.323
			C1728.98,1133.113,1727.819,1136.637,1728.558,1145.312z"/>
		<path style="fill:#E57D61;" d="M1962.47,1073.138c-0.032,0.555-0.082,1.119-0.165,1.666c-0.774-0.424-1.16,19.635,0.032,34.071
			c-13.051,7.305-28.405,5.859-31.222,5.523c-1.829-18.26-1.546-35.058,0.263-45.744
			C1935.394,1050.493,1963.742,1054.612,1962.47,1073.138z"/>
		<path style="fill:#F99370;" d="M1981.574,1055.416c-0.554,14.354-3.376,30.801-13.363,41.466l-0.018,0.002
			c-4.038,4.279-9.225,7.321-14.889,9.169c-31.395,13.369-75.109-20.616-52.638-51.248c8.281-9.755,8.4-25.267,14.793-34.746
			c8.906-17.01,32.74-19.084,47.116-7.849C1975.567,1022.37,1981.472,1037.835,1981.574,1055.416z"/>
		<path style="fill:#CE3932;" d="M1845.601,1245.251c23.282-3.593,45.088-12.803,52.819-21.113c1.109-1.192,2.155-3.114,3.134-5.609
			l-22.959-30.107c0,0-5.561,12.718-8.454,26.948C1867.239,1229.593,1859.468,1238.869,1845.601,1245.251z"/>
		<path style="fill:#C16256;" d="M1926.775,1053.277c-1.587-2.29,2.047-4.728,3.566-2.393
			C1931.927,1053.175,1928.293,1055.613,1926.775,1053.277z"/>
		<path style="fill:#C16256;" d="M1908.487,1052.448c-1.587-2.29,2.047-4.728,3.566-2.393
			C1913.64,1052.345,1910.005,1054.783,1908.487,1052.448z"/>
		<path style="fill:#C16256;" d="M1916.277,1070.232c1.314-0.15,4.262-0.007,3.969-1.779c-0.187-0.408-0.674-0.586-1.078-0.399
			c-2.6,1.195-6.595,0.306-7.266-0.854c-0.236-0.409,0.292-0.905,0.777-1.25c4.245-2.822,8.553-16.252,4.782-12.789
			c-0.02,0.088-1.965,8.795-5.723,11.464C1907.584,1068.31,1912.608,1070.156,1916.277,1070.232z"/>
		<path style="fill:#EB5648;" d="M1891.991,1301.106c75.838,25.729,171.83-20.853,171.83-20.853s-13.593-20.013-20.633-40.882
			c-1.672-4.95-2.974-9.958-3.64-14.756c-3.457-24.967,4.793-78.561-57.296-105.857c0,0-7.809,1.701-18.162,1.632
			c0,0-14.218,24.043-32.355,15.451c-7.023-3.326,0.179-13.479,0.179-13.479c-9.551,4.712-17.69,2.563-17.69,2.563
			c-24.131,28.789-36.758,56.282-37.564,76.634C1875.4,1233.402,1895.937,1255.92,1891.991,1301.106z"/>
		<path style="fill:#E57D61;" d="M1981.574,1055.416c-0.554,14.354-3.376,30.801-13.363,41.466l-0.018,0.002
			c5.232-8.401,6.991-25.987,6.991-25.987l-3.841-7.259c-50.817-9.822-51.408-49.589-51.408-49.589
			C1948.412,987.877,1984.074,1022.392,1981.574,1055.416z"/>
		<path style="fill:#1D3F70;" d="M1924.706,1009.924c0,0,0.782,39.19,46.475,49.752l14.649-10.578
			C1997.488,1017.181,1964.371,976.46,1924.706,1009.924z"/>
		<path style="fill:#F99370;" d="M1991.385,1061.439c-1.24,16.309-21.811,14.515-20.203-1.765
			C1972.422,1043.366,1992.992,1045.161,1991.385,1061.439z"/>
		<path style="fill:#C16256;" d="M1986.613,1065.37c2.889-3.88,0.73-10.711-1.151-11.702c-3.498-2.141-9.023-0.078-8.403,1.479
			c1.21,1.475,4.026-2.323,7.453-0.16C1987.992,1056.953,1984.547,1064.263,1986.613,1065.37z"/>
		<path style="fill:#C16256;" d="M1978.944,1065.16c1.638-0.29,1.512-6.359,7.771-7.771c0.441-0.083,0.731-0.509,0.647-0.95
			C1982.506,1053.634,1975.973,1065.862,1978.944,1065.16z"/>
		<path style="fill:#F4D4BE;" d="M1983.467,1069.893c0.32,2.345-3.37,2.794-3.622,0.441
			C1979.524,1067.99,1983.215,1067.54,1983.467,1069.893z"/>
		<path style="fill:#CE3932;" d="M1984.888,1193.942c0,0,18.557,33.297,20.978,60.189c2.115,23.487-20.978,40.324-20.978,40.324
			l37.113,3.753l-3.984-87.104L1984.888,1193.942z"/>
		<path style="fill:#CE3932;" d="M1932.256,1160.942c0.83,2.328,3.39,3.542,5.718,2.712c2.328-0.83,3.542-3.39,2.712-5.718
			c-0.83-2.328-3.39-3.542-5.718-2.712C1932.64,1156.054,1931.426,1158.614,1932.256,1160.942z"/>
		<path style="fill:#CE3932;" d="M1926.784,1179.638c0.83,2.328,3.39,3.542,5.718,2.712c2.328-0.83,3.542-3.39,2.712-5.718
			c-0.83-2.328-3.39-3.542-5.718-2.712C1927.168,1174.751,1925.954,1177.31,1926.784,1179.638z"/>
		<path style="fill:#7640CC;" d="M2173.168,1666.832c0,0-55.566,43.795-111.369,51.028c2.212,5.165,4.488,10.436,6.845,15.822
			c38.782-6.675,84.483-29.342,113.283-51.763C2178.884,1676.889,2175.964,1671.857,2173.168,1666.832z"/>
		<path style="fill:#7640CC;" d="M1859.129,1722.496c1.055,9.559,1.806,14.771,1.806,14.771
			c33.679,16.634,83.801,12.922,116.844,4.496c-0.84-5.255-1.626-10.474-2.367-15.641c0,0,0,0-0.009,0
			C1974.511,1726.399,1917.173,1743.767,1859.129,1722.496z"/>
		<path style="fill:#7640CC;" d="M1962.219,1734.768l14.243-1.489c-0.359-2.397-0.709-4.786-1.051-7.157c0,0,0,0-0.009,0
			c-26.124-181.729-5.806-308.928-5.806-308.928c-0.469,2.125-8.651,10.366-15.021,42.582
			C1948.205,1492,1943.678,1632.318,1962.219,1734.768z"/>
		<path style="fill:#A523A2;" d="M1728.558,1145.312c3.805-0.419,4.202-5.849,7.458-7.242c3.256-1.393,5.605,1.081,9.437-0.123
			c3.84-1.204,3.206-5.24,4.975-8.47c1.724-3.161,8.281-0.825,8.539-0.73c-3.67-3.695-6.88-6.256-9.333-6.956
			c0,0-7.948,10.772-20.654,11.323C1728.98,1133.113,1727.819,1136.637,1728.558,1145.312z"/>
		<path style="fill:#7640CC;" d="M2162.531,1685.705c0.535-0.007,1.075-0.156,1.562-0.461c1.412-0.886,1.838-2.749,0.953-4.16
			c-0.536-0.854-53.785-86.604-71.985-189.591c-18.339-103.768-46.015-199.739-46.293-200.696c-0.464-1.601-2.138-2.52-3.738-2.059
			c-1.601,0.464-2.523,2.138-2.059,3.739c0.276,0.954,27.866,96.628,46.146,200.066c18.412,104.184,72.274,190.885,72.816,191.749
			C2160.514,1685.218,2161.514,1685.719,2162.531,1685.705z"/>
		<path style="fill:#7640CC;" d="M2131.759,1706.141c0.497-0.006,0.999-0.135,1.46-0.4c1.446-0.829,1.945-2.673,1.117-4.119
			c-0.344-0.599-34.643-61.252-60.753-176.641c-26.255-116.029-58.756-225.789-59.081-226.884c-0.474-1.597-2.154-2.51-3.752-2.033
			c-1.597,0.474-2.508,2.154-2.034,3.752c0.325,1.093,32.771,110.669,58.981,226.498c26.332,116.371,61.057,177.706,61.405,178.312
			C2129.665,1705.609,2130.699,1706.154,2131.759,1706.141z"/>
		<path style="fill:#7640CC;" d="M2092.574,1720.43c-0.796-2.233-79.804-224.498-96.357-327.948
			c-5.296-33.097-14.107-89.031-13.617-91.785c0.293-1.642,1.858-2.736,3.5-2.443c1.489,0.265,2.526,1.579,2.488,3.045
			c0.041,0.948,0.796,10.281,13.588,90.229c16.465,102.902,95.288,324.646,96.082,326.874c0.56,1.569-0.259,3.296-1.829,3.856
			c-0.322,0.115-0.651,0.172-0.974,0.176C2094.2,1722.452,2093.019,1721.679,2092.574,1720.43z M1988.542,1301.755
			c0-0.003,0.001-0.006,0.001-0.009C1988.543,1301.749,1988.542,1301.752,1988.542,1301.755z M1988.544,1301.745
			c0-0.002,0.001-0.004,0.001-0.006C1988.545,1301.74,1988.544,1301.743,1988.544,1301.745z M1988.587,1301.256
			c0-0.001,0-0.001,0-0.002C1988.587,1301.255,1988.587,1301.255,1988.587,1301.256z"/>
		<path style="fill:#7640CC;" d="M1944.946,1742.48c0.131-0.002,0.264-0.012,0.398-0.031c1.65-0.24,2.793-1.77,2.553-3.42
			c-5.057-34.865-15.132-175.977-14.182-240.52c0.926-62.942,27.241-188.333,27.507-189.592c0.344-1.631-0.699-3.231-2.33-3.576
			c-1.63-0.345-3.231,0.698-3.576,2.329c-0.267,1.265-26.702,127.224-27.636,190.749c-0.953,64.783,9.165,206.462,14.244,241.476
			C1942.144,1741.411,1943.455,1742.499,1944.946,1742.48z"/>
		<path style="fill:#7640CC;" d="M1913.114,1742.895c0.141-0.002,0.285-0.013,0.428-0.036c1.647-0.257,2.774-1.799,2.518-3.446
			c-0.179-1.151-17.865-116.172-13.791-211.404c4.077-95.306,28.669-217.125,28.917-218.345c0.332-1.633-0.723-3.226-2.356-3.558
			c-1.631-0.332-3.226,0.722-3.559,2.356c-0.249,1.223-24.935,123.511-29.032,219.289c-4.1,95.836,13.677,211.433,13.857,212.589
			C1910.33,1741.844,1911.636,1742.914,1913.114,1742.895z"/>
		<path style="fill:#7640CC;" d="M1883.5,1734.327c0.117-0.002,0.235-0.01,0.354-0.025c1.653-0.215,2.818-1.729,2.603-3.382
			c-0.154-1.185-15.389-119.659-11.359-218.395c4.025-98.598,34.941-201.666,35.253-202.695c0.483-1.595-0.418-3.279-2.013-3.763
			c-1.597-0.484-3.28,0.418-3.763,2.013c-0.314,1.036-31.449,104.814-35.507,204.199c-4.052,99.259,11.249,218.229,11.404,219.42
			C1880.672,1733.233,1881.991,1734.347,1883.5,1734.327z"/>
		<path style="fill:#7640CC;" d="M2059.868,1272.436c0,0-91.817,40.733-168.85,21.423c0,0-3.745,5.344-0.391,14.115
			c0,0,58.329,31.582,174.385-17.852C2065.012,1290.123,2065.709,1279.495,2059.868,1272.436z"/>
		<path style="fill:#C16256;" d="M1906.591,1046.882c0.162,0,0.327-0.046,0.472-0.141c4.122-2.714,7.878-1.661,7.916-1.65
			c0.454,0.134,0.933-0.128,1.067-0.584c0.134-0.456-0.128-0.934-0.584-1.067c-0.184-0.054-4.565-1.283-9.344,1.864
			c-0.397,0.261-0.507,0.795-0.245,1.191C1906.037,1046.746,1906.312,1046.882,1906.591,1046.882z"/>
		<path style="fill:#C16256;" d="M1934.589,1049.16c0.232,0,0.463-0.093,0.633-0.277c0.322-0.349,0.3-0.893-0.049-1.215
			c-0.187-0.172-4.644-4.209-10.568-3.5c-0.472,0.056-0.808,0.484-0.752,0.956c0.056,0.472,0.482,0.806,0.956,0.752
			c5.141-0.611,9.157,3.021,9.198,3.057C1934.171,1049.085,1934.38,1049.16,1934.589,1049.16z"/>
		<path style="fill:#C16256;" d="M1918.597,1076.382c7.471,0,10.561-4.986,10.697-5.213c0.245-0.407,0.113-0.935-0.294-1.18
			c-0.407-0.244-0.934-0.114-1.18,0.292c-0.137,0.224-3.176,5.021-10.72,4.31c-0.476-0.044-0.892,0.304-0.936,0.776
			c-0.044,0.473,0.303,0.892,0.776,0.936C1917.515,1076.357,1918.068,1076.382,1918.597,1076.382z"/>
		<path style="fill:#F99370;" d="M1742.332,1122.649c0.02,0,0.04,0,0.06-0.001c2.136-0.032,3.843-1.785,3.814-3.921
			c-0.008-0.608-0.294-15.062-8.375-30.04c-1.015-1.884-3.363-2.587-5.248-1.57c-1.883,1.016-2.585,3.365-1.57,5.247
			c7.142,13.24,7.444,26.343,7.447,26.475C1738.496,1120.954,1740.223,1122.649,1742.332,1122.649z"/>
		<path style="fill:#23659B;" d="M2222.12,1594.46c-0.12,6.41-2.6,12.79-7.43,17.71c-9.85,10.05-25.9,10.46-36.26,0.93
			l-533.37-491.01l-160.68-147.92l15.04-15.36l62.29-63.6l151.22,157.59l501.95,523.09
			C2219.85,1581.07,2222.26,1587.79,2222.12,1594.46z"/>
		<path style="fill:#3A72AA;" d="M2222.12,1594.46c-9.9,7.76-24.19,7.38-33.69-1.36l-533.37-491.01l-155.64-143.28l62.29-63.6
			l151.22,157.59l501.95,523.09C2219.85,1581.07,2222.26,1587.79,2222.12,1594.46z"/>
		<path style="fill:#7640CC;" d="M1561.713,895.213c0,0,12.869-112.46-77.337-140.775c-90.206-28.315-136.099,36.781-209.29-46.016
			c0,0-34.384,287.815,209.29,265.745L1561.713,895.213z"/>
		<path style="fill:#F99370;" d="M1929.508,1333.148c0.086,1.322,1.227,2.324,2.549,2.238l0.169-0.011
			c1.074-0.07,2.141-0.171,3.208-0.217c1.069-0.003,2.131-0.085,3.192-0.026c1.924,0.018,3.827,0.205,5.704,0.451
			c-4.88,5.465-11.379,9.561-11.384,9.61c-1.294,0.519-2.609,1.03-3.91,1.526c-2.382,0.903-4.781,1.78-7.195,2.616
			c-4.828,1.678-9.71,3.227-14.635,4.646l-0.009,0.002c-1.15,0.33-1.9,1.473-1.709,2.685c0.207,1.312,1.438,2.207,2.75,2
			c5.155-0.814,10.293-1.767,15.41-2.861c2.559-0.545,5.111-1.133,7.662-1.753c1.003-0.246,1.997-0.495,2.991-0.751
			c0.02,0.041,0.042,0.081,0.062,0.122c-2.427,1.626-4.883,3.211-7.369,4.748c-2.791,1.734-5.627,3.393-8.497,4.988
			c-2.864,1.613-5.789,3.092-8.734,4.541l-0.053,0.026c-1.092,0.542-1.616,1.833-1.176,2.998c0.468,1.241,1.854,1.867,3.095,1.399
			c3.165-1.195,6.324-2.429,9.415-3.798c3.101-1.351,6.171-2.772,9.2-4.271c2.987-1.471,5.946-2.998,8.874-4.591
			c0.017,0.015,0.034,0.03,0.051,0.045c-0.835,0.789-1.678,1.575-2.546,2.34c-1.959,1.731-3.975,3.42-6.06,5.023
			c-2.084,1.604-4.209,3.169-6.404,4.635c-2.179,1.493-4.433,2.868-6.711,4.219l-0.047,0.028c-1.033,0.611-1.469,1.913-0.971,3.038
			c0.537,1.213,1.956,1.762,3.169,1.225c2.522-1.116,5.038-2.269,7.489-3.551c2.468-1.255,4.878-2.621,7.262-4.043
			c2.385-1.42,4.714-2.94,7.01-4.528c1.149-0.793,2.281-1.616,3.408-2.457c0.508-0.386,1.001-0.763,1.497-1.151
			c0.032,0.017,0.064,0.033,0.096,0.05c-0.44,0.555-0.876,1.111-1.333,1.66c-1.365,1.633-2.803,3.23-4.28,4.8
			c-1.483,1.567-3.013,3.101-4.582,4.603c-1.567,1.505-3.182,2.967-4.816,4.416l-0.023,0.02c-0.881,0.779-1.079,2.106-0.416,3.119
			c0.728,1.11,2.219,1.421,3.33,0.692c1.881-1.233,3.754-2.49,5.592-3.805c1.841-1.313,3.657-2.67,5.443-4.08
			c1.783-1.416,3.541-2.876,5.259-4.414c0.858-0.772,1.71-1.554,2.549-2.373l1.256-1.251c0.157-0.164,0.306-0.319,0.456-0.476
			c2.393-0.99,10.542-5.167,19.29-18.82c2.867-4.474-3.225-17.495-8.152-19.217c-5.541-1.937-14.371-0.501-16.741-0.059
			c-1.259-0.109-2.514-0.171-3.765-0.193c-2.395,0.011-4.772,0.111-7.112,0.423c-1.175,0.107-2.328,0.358-3.486,0.532
			c-1.151,0.216-2.288,0.49-3.426,0.734C1930.254,1330.891,1929.43,1331.944,1929.508,1333.148z"/>
		<path style="fill:#F99370;" d="M2019.179,1141.534c22.979,29.752,47.837,61.171,54.828,99.558
			c12.487,52.047-26.762,80.55-69.941,96.513c-9.596,3.879-19.014,7.428-28.105,11.227c-5.973,2.535-12.878-0.276-15.378-6.265
			c-2.252-5.388-0.171-11.503,4.646-14.475c8.884-5.493,17.777-10.563,26.295-15.698c20.325-12.88,51.914-29.531,41.068-57.115
			c-8.712-33.528-35.132-56.689-57.032-82.197C1952.687,1143.517,1998.197,1110.477,2019.179,1141.534z"/>
		<path style="fill:#EB5648;" d="M2084.039,1213.092c20.249,66.321-21.78,105.952-52.449,121.568
			c-15.906,8.097-29.896,11.403-39.686,12.708c-9.093,1.217-14.552,0.71-14.552,0.71c0.913-14.215-9.286-21.04-9.286-21.04
			c-0.235-3.765,2.261-8.108,6.281-12.743c13.238-15.24,37.619-30.286,39.808-46.634c2.88-21.513-6.317-49.82-29.266-73.72
			c-30.822-32.087-22.288-57.677-22.288-57.677s1.172-12.746,19.652-17.506C2003.402,1113.313,2060.242,1135.155,2084.039,1213.092z
			"/>
		<path style="fill:#CE3932;" d="M1974.347,1314.296c2.74,4.425-1.277,6.686-0.022,10.077c1.255,3.399,8.536,1.978,8.752,5.441
			c0.215,3.456-4.161,7.592,1.971,9.916c5.976,2.258,6.818,7.391,6.856,7.638c-9.093,1.217-14.769,0.976-14.769,0.976
			c0.913-14.215-9.529-21.46-9.529-21.46C1967.371,1323.119,1970.327,1318.93,1974.347,1314.296z"/>
		<path style="fill:#CE3932;" d="M1982.248,1118.76c0,0,3.139,10.455-6.556,15.174c-9.695,4.719-5.106,15.651-16.971,16.868
			c-11.865,1.216-13.93-10.089-24.852-3.164c-11.782,7.471-18.704-3.187-15.791-9.54c2.913-6.353-6.844-4.068-3.852-13.172
			c0,0,10.113-7.545,17.687-2.563c0,0,1.984,9.916,9.22,10.578c4.751,0.435,16.646-6.895,22.953-12.557
			C1964.086,1120.385,1973.549,1115.336,1982.248,1118.76z"/>
		<path style="fill:#F99370;" d="M1717.418,1188.077c-6.945,6.198-13.835-3.566-3.782-5.189l-0.124,0.104
			C1717.323,1179.699,1721.062,1185.08,1717.418,1188.077z"/>
		<path style="fill:#F99370;" d="M1712.157,1184.66c-9.13,5.514-12.455-7.039-3.279-5.793c-0.203,0.024,0.855-0.257,0.666-0.225
			C1713.983,1176.151,1716.11,1182.575,1712.157,1184.66z"/>
		<path style="fill:#F99370;" d="M1706.531,1181.255l-3.453,0.841c-4.864,1.003-4.562-6.174-0.486-6.888
			c-0.001,0,3.453-0.841,3.453-0.841C1710.909,1173.363,1710.607,1180.541,1706.531,1181.255z"/>
		<path style="fill:#F99370;" d="M1702.109,1177.533l-3.454,0.841c-4.864,1.003-4.562-6.174-0.486-6.888
			c0,0,3.453-0.842,3.453-0.842C1706.487,1169.641,1706.185,1176.819,1702.109,1177.533z"/>
		<path style="fill:#9358E0;" d="M1502.807,960.357c-0.14,0-0.279-0.006-0.421-0.017c-3.977-0.331-97.911-8.692-143.898-59.413
			c-45.665-50.366-56.701-116.679-57.148-119.477c-0.436-2.727,1.421-5.291,4.148-5.727c2.726-0.437,5.29,1.422,5.727,4.148
			c0.105,0.655,11.067,66.234,54.682,114.339c43.319,47.779,136.387,56.086,137.321,56.164c2.751,0.231,4.796,2.648,4.566,5.399
			C1507.564,958.383,1505.379,960.357,1502.807,960.357z"/>
		<path style="fill:#9358E0;" d="M1522.535,940.206c-0.797,0-1.604-0.19-2.355-0.593c-60.711-32.495-118.638-91.41-119.216-92.001
			c-1.931-1.975-1.895-5.14,0.08-7.07c1.974-1.93,5.14-1.894,7.07,0.08c0.567,0.581,57.452,58.419,116.784,90.175
			c2.435,1.303,3.352,4.333,2.049,6.768C1526.046,939.248,1524.319,940.206,1522.535,940.206z"/>
		<path style="fill:#9358E0;" d="M1540.671,921.691c-2.233,0-4.268-1.507-4.843-3.771c-0.097-0.38-10.153-38.799-41.214-77.98
			c-33.696-42.504-100.697-47.693-101.37-47.74c-2.755-0.194-4.83-2.585-4.636-5.339c0.193-2.755,2.59-4.824,5.339-4.636
			c2.927,0.206,72.098,5.583,108.503,51.504c32.462,40.948,42.653,80.085,43.071,81.731c0.679,2.676-0.939,5.397-3.616,6.077
			C1541.492,921.642,1541.078,921.691,1540.671,921.691z"/>
		<polygon style="fill:#1D3F70;" points="1561.713,895.213 1712.933,1052.798 1645.057,1122.093 1484.376,974.167 		"/>
	</g>
	<g id="_x31_">
		<path style="fill:#F99370;" d="M574.595,1000.508c0,0-20.222,22.032-3.851,47.561l22.071-7.18L574.595,1000.508z"/>
		<path style="fill:#F99370;" d="M725.133,1145.566c27.574-14.075,117.063-57.495,126.816-86.746
			c6.331-20.919,4.047-45.914,0.924-67.965c-0.417-8.276-7.633-22.069,4.335-24.943c7.319-1.443,10.193,6.158,12.965,11.278
			c44.057,83.577,0.401,158.026-80.835,199.134c-14.111,7.877-28.59,15.139-43.669,21.001
			C711.607,1209.861,691.745,1159.774,725.133,1145.566z"/>
		<path style="fill:#F99370;" d="M830.824,941.921c0,0,31.209-4.014,37.198,31.172l-19.59,7.781L830.824,941.921z"/>
		<path style="fill:#F99370;" d="M835.045,1795.953l-71.559-2.814c-6.235-0.496-5.94-6.856-4.593-11.747
			c4.639-17.63-0.719-60.746-1.291-79.088c-0.212-3.363,2.534-6.171,5.905-6.038l31.582,1.242c3.423,0.135,5.953,3.236,5.393,6.611
			l-7.543,45.514c-3.212,20.832,19.001,25.86,33.125,29.2c5.604,1.646,11.438,4.077,14.029,8.409
			C842.52,1791.121,839.62,1796.133,835.045,1795.953z"/>
		<path style="fill:#1D3F70;" d="M756.005,1785.418c0.055,3.512,1.638,7.578,5.705,7.651c0,0,74.226,2.919,74.226,2.919
			c3.836,0.156,6.708-3.577,5.486-7.211c-2.563-8.206-14.023-21.367-46-25.155c-5.029-0.596-19.276,3.74-34.671-0.854
			C760.752,1762.769,754.904,1772.132,756.005,1785.418z"/>
		<path style="fill:#E8C0A6;" d="M818.637,1785.259c-0.197-0.008-0.398-0.052-0.589-0.139c-0.794-0.36-1.146-1.292-0.788-2.088
			c3.715-8.205,10.138-10.526,10.409-10.619c0.826-0.283,1.722,0.147,2.01,0.968c0.288,0.819-0.142,1.715-0.962,2.005l0,0
			c-0.221,0.08-5.449,2.03-8.579,8.948C819.864,1784.936,819.26,1785.284,818.637,1785.259z"/>
		<path style="fill:#E8C0A6;" d="M806.438,1783.299c-0.154-0.006-0.31-0.035-0.464-0.089c-0.822-0.291-1.252-1.192-0.963-2.013
			c3.279-9.27,11.45-13.197,11.795-13.358c0.793-0.375,1.727-0.034,2.098,0.751c0.373,0.786,0.037,1.725-0.75,2.099
			c-0.074,0.033-7.339,3.564-10.164,11.559C807.752,1782.915,807.112,1783.325,806.438,1783.299z"/>
		<path style="fill:#E8C0A6;" d="M792.559,1781.039c-0.172-0.007-0.346-0.043-0.516-0.109c-0.812-0.318-1.209-1.233-0.891-2.044
			c3.678-9.36,11.307-14.063,11.631-14.258c0.742-0.451,1.711-0.216,2.165,0.527c0.452,0.743,0.216,1.714-0.526,2.167
			c-0.07,0.043-7.056,4.377-10.333,12.717C793.837,1780.681,793.211,1781.064,792.559,1781.039z"/>
		<path style="fill:#10325B;" d="M841.423,1788.778l-85.417-3.359c0.212,2.616,0.833,5.174,2.051,7.507l77.881,3.063
			c3.783,0.149,6.64-3.468,5.526-7.082C841.45,1788.864,841.436,1788.821,841.423,1788.778z"/>
		<path style="fill:#1D3F70;" d="M810.749,1731.434c-2.901,9.434-4.76,14.907-4.76,14.907s-30.912,12.652-59.522,1.397
			c0,0,0.135-2.072,0.386-5.82c0.019-0.443,0.057-0.906,0.086-1.397c0.096-1.474,0.202-3.161,0.318-5.04
			c2.505-40.057,7.661-157.992,5.358-187.652c-2.958-38.11-17.807-70.411-33.909-93.103c-5.589-7.863-11.322-14.57-16.767-19.966
			c-31.972-31.712-65.631-30.527-53.798-86.136c1.744-8.181,74.005-4.587,74.005-4.587l81.54,13.144
			c0,0,35.942,87.736,42.61,170.577C851.625,1594.025,821.869,1695.261,810.749,1731.434z"/>
		<path style="fill:#103663;" d="M758.956,1741.919h-12.103c0.019-0.443,0.057-0.906,0.086-1.397
			c0.096-1.474,0.202-3.161,0.318-5.04c2.505-40.057,7.661-157.992,5.358-187.652c-2.958-38.11-17.807-70.411-33.909-93.103
			l1.831-21.903c0,0,31.24,44.287,39.238,84.633C767.772,1557.813,758.956,1741.919,758.956,1741.919z"/>
		<path style="fill:#103663;" d="M810.751,1731.431c-2.902,9.433-4.762,14.911-4.762,14.911s-30.915,12.655-59.527,1.396
			c0,0,0.306-4.528,0.791-12.256l0.01-0.007C747.264,1735.476,780.417,1745.144,810.751,1731.431z"/>
		<path style="fill:#F99370;" d="M450.715,1703.002l-24.113-67.432c-1.101-3.08,0.612-6.431,3.739-7.375
			c16.307-2.119,39.69-13.35,54.557-20.523c0,0,19.422,31.334,16.082,32.075l-36.26,14.822c-6.461,6.85-5.088,4.239-4.082,14.293
			c0.747,12.815,6.284,25.061,0.046,35.571C457.989,1708.132,452.257,1707.313,450.715,1703.002z"/>
		<path style="fill:#1D3F70;" d="M430.97,1625.747c-3.238,1.363-6.418,4.349-4.967,8.15l25.012,69.946
			c1.287,3.616,5.823,4.886,8.738,2.396c6.655-5.443,15.419-18.156,5.464-51.874c-2.158-4.581-8.554-16.149-12.032-32.576
			C453.185,1621.789,442.883,1619.764,430.97,1625.747z"/>
		<path style="fill:#E8C0A6;" d="M454.507,1683.787c-0.066-0.186-0.1-0.388-0.091-0.599c0.038-0.871,0.771-1.545,1.642-1.51
			c8.998,0.381,13.55,5.473,13.738,5.69c0.571,0.661,0.507,1.652-0.147,2.226c-0.652,0.573-1.645,0.509-2.22-0.143l0,0
			c-0.156-0.175-3.918-4.297-11.504-4.617C455.266,1684.805,454.717,1684.375,454.507,1683.787z"/>
		<path style="fill:#E8C0A6;" d="M451.77,1671.74c-0.052-0.145-0.083-0.3-0.091-0.464c-0.037-0.871,0.638-1.606,1.508-1.645
			c9.824-0.42,16.519,5.693,16.797,5.953c0.644,0.596,0.677,1.589,0.086,2.227c-0.589,0.64-1.586,0.678-2.228,0.088
			c-0.059-0.056-6.047-5.477-14.518-5.112C452.617,1672.815,451.997,1672.374,451.77,1671.74z"/>
		<path style="fill:#E8C0A6;" d="M448.683,1658.02c-0.058-0.163-0.089-0.337-0.092-0.519c-0.008-0.871,0.693-1.582,1.563-1.59
			c10.057-0.084,17.268,5.237,17.57,5.464c0.696,0.52,0.839,1.507,0.32,2.206c-0.521,0.697-1.509,0.841-2.207,0.322
			c-0.066-0.049-6.696-4.91-15.656-4.835C449.493,1659.072,448.903,1658.635,448.683,1658.02z"/>
		<path style="fill:#103663;" d="M793.407,1742.289l-3.803-0.743c0.302-1.546,30.189-155.383,26.681-222.046
			c-3.501-66.531-44.711-158.669-45.126-159.591l3.533-1.593c0.419,0.93,41.924,93.72,45.464,160.981
			C823.688,1586.436,793.711,1740.739,793.407,1742.289z"/>
		<path style="fill:#10325B;" d="M459.753,1706.239l-28.783-80.492c-1.51,0.755-2.934,1.657-4.214,2.738
			c-1.243,1.05-1.699,2.768-1.151,4.301l25.41,71.057c1.275,3.565,5.697,4.865,8.633,2.481
			C459.683,1706.296,459.718,1706.268,459.753,1706.239z"/>
		<path style="fill:#1D3F70;" d="M748.436,1362.18c-23.039,87.282-41.332,155.242-107.759,222.407
			c-43.75,44.236-111.95,64.846-141.074,69.289c-9.819,1.492-15.736,1.885-15.736,1.885s-29.491-24.891-18.939-62.036
			c0,0,4.958-1.388,12.751-3.945c24.333-7.968,74.664-28.456,91.859-50.882c53.813-70.189,28.881-129.596,56.047-190.975
			L748.436,1362.18z"/>
		<path style="fill:#103663;" d="M499.603,1653.876c-9.819,1.492-15.736,1.885-15.736,1.885s-29.491-24.891-18.939-62.036
			c0,0,4.958-1.388,12.751-3.945C477.679,1589.78,473.725,1630.242,499.603,1653.876z"/>
		<path style="fill:#F99370;" d="M732.065,1140.147c1.797-15.621-0.661-38.215-2.836-47.444
			c-3.933-18.293-32.979-11.214-28.152,6.768c0.936-0.588,3.934,32.562,1.865,41.763
			C675.685,1149.402,757.664,1176.258,732.065,1140.147z"/>
		<path style="fill:#E57D61;" d="M700.799,1097.963c0.034,0.211,0.059,0.43,0.101,0.641c0.051,0.295,0.109,0.582,0.177,0.868
			c0.675-0.447,2.566,17.843,2.582,31.118c12.49,5.672,26.377,3.093,28.925,2.57c0.557-14.033-1.591-31.345-2.731-37.852
			c-0.338-1.526-0.582-2.419-0.625-2.604c-0.101-0.413-0.219-0.818-0.354-1.214c-1.392-4.164-4.548-7.324-8.414-8.85
			c-0.008,0-0.008,0-0.008,0c-2.684-1.054-5.696-1.315-8.709-0.59c-2.979,0.725-5.519,2.318-7.409,4.45
			c-0.085,0.084-0.161,0.177-0.236,0.261C701.55,1089.787,700.25,1093.824,700.799,1097.963z"/>
		<path style="fill:#8E4A35;" d="M750.021,1064.134c0,0-2.772-15.388-9.319-25.243l-8.122,5.759L750.021,1064.134z"/>
		<path style="fill:#F99370;" d="M757.61,1109.241c-8.755,12.358-24.456,18.015-37.851,17.329
			c-4.171-0.151-8.244-0.941-12.013-2.515l-0.005,0.001c-1.274-0.531-2.497-1.139-3.684-1.836l-0.015,0.005
			c-57.312-41.58-3.6-133.614,38.433-67.743C756.032,1072.75,775.732,1080.522,757.61,1109.241z"/>
		<path style="fill:#103663;" d="M726.845,1413.886c-0.061,0-0.105-0.001-0.133-0.003c-0.536-0.023-1.038-0.268-1.387-0.675
			c-0.348-0.408-0.513-0.941-0.454-1.474l2.969-26.714c0.119-1.063,1.083-1.822,2.14-1.712c1.063,0.119,1.83,1.076,1.712,2.14
			l-2.657,23.906c0.767-0.395,1.682-1.026,2.647-2.038c4.022-4.221,8.553-14.54,7.3-39.732c-0.053-1.069,0.77-1.978,1.839-2.031
			c1.057-0.059,1.978,0.77,2.031,1.839c1.339,26.912-3.944,38.156-8.611,42.849C730.833,1413.668,727.607,1413.886,726.845,1413.886
			z"/>
		<path style="fill:#C16256;" d="M729.861,1072.488c0.337-1.052-0.243-2.177-1.295-2.513c-1.053-0.336-2.179,0.244-2.517,1.296
			c-0.337,1.052,0.243,2.177,1.295,2.513C728.397,1074.12,729.524,1073.54,729.861,1072.488z"/>
		<path style="fill:#103663;" d="M481.551,1639.427l-0.851-3.781c0.917-0.206,92.339-21.186,141.978-64.865
			c51.349-45.184,68.051-141.599,80.245-211.998l3.819,0.661c-12.294,70.967-29.13,168.16-81.504,214.246
			C574.85,1618.027,482.478,1639.218,481.551,1639.427z"/>
		<path style="fill:#C16256;" d="M746.022,1067.012c0.337-1.052-0.243-2.177-1.295-2.513c-1.053-0.336-2.18,0.244-2.517,1.295
			c-0.337,1.052,0.243,2.177,1.295,2.513C744.558,1068.643,745.685,1068.063,746.022,1067.012z"/>
		<path style="fill:#C16256;" d="M743.645,1084.938c-1.135,0.325-2.327,0.453-3.377,0.295c-0.414-0.061-0.698-0.448-0.636-0.86
			c0.061-0.416,0.455-0.695,0.861-0.636c2.635,0.396,5.982-1.432,6.286-2.646c0.106-0.427-0.494-0.735-1.017-0.916
			c-4.61-1.607-8.75-9.161-8.923-9.481c-0.199-0.368-0.064-0.827,0.305-1.026c0.38-0.208,0.828-0.062,1.027,0.304
			c0.04,0.073,4.033,7.359,8.09,8.774c2.211,0.771,2.126,2.152,1.988,2.71C747.887,1082.912,745.871,1084.301,743.645,1084.938z"/>
		<path style="fill:#E57D61;" d="M739.391,1049.957c-11.63-3.904-30.221,4.393-39.77,5.868c0,0,4.677,15.979-9.898,30.273
			c1.045,15.222-0.358,22.17,18.024,37.958l-0.005,0.001c-1.274-0.531-2.497-1.139-3.684-1.836l-0.015,0.005
			C648.927,1082.653,697.584,991.91,739.391,1049.957z"/>
		<path style="fill:#8E4A35;" d="M742.208,1016.143c-8.119-11.122-27.427-14.747-40.736,2.797
			c-10.247,13.509-23.353,15.546-21.111,27.654c-22.525,14.995-6.101,39.816-6.101,39.816l11.954-3.424
			c12.094-13.531,8.979-30.023,8.979-30.023l-0.004-0.002c3.13-0.352,6.378-1.017,9.153-2.227c8.599-3.75,21.694-7.017,32.417-4.938
			C747.482,1047.875,751.283,1028.573,742.208,1016.143z"/>
		<path style="fill:#F99370;" d="M674.121,1096.517c2.335,6.045,8.175,9.421,13.045,7.541c4.869-1.88,6.924-8.304,4.589-14.349
			c-2.335-6.045-8.176-9.421-13.045-7.541C673.84,1084.048,671.785,1090.472,674.121,1096.517z"/>
		<path style="fill:#C16256;" d="M684.74,1086.281c-0.207-0.044-5.119-1.077-7.326,1.75c-0.563,0.719-0.87,1.618-0.954,2.671
			c0,0.002,0,0.005,0,0.007c-0.008,0.098-0.027,0.188-0.031,0.29c0,0.002-0.001,0.003-0.001,0.004c0,0.001,0.001,0.001,0,0.001
			c-0.068,1.945,0.629,4.417,2.093,7.4c0.165,0.332,0.543,0.493,0.889,0.394c0.042-0.012,0.083-0.029,0.126-0.048
			c0.375-0.184,0.531-0.64,0.347-1.014c-1.189-2.418-1.82-4.438-1.919-6.025c4.434,0.071,7.379,4.544,7.408,4.592
			c0.184,0.291,0.534,0.414,0.85,0.323c0.067-0.019,0.132-0.05,0.195-0.09c0.355-0.222,0.459-0.689,0.237-1.043
			c-0.143-0.224-3.369-5.233-8.58-5.345c0.109-0.452,0.274-0.857,0.529-1.183c1.621-2.078,5.776-1.212,5.814-1.204
			c0.414,0.086,0.81-0.174,0.901-0.582C685.407,1086.772,685.148,1086.37,684.74,1086.281z"/>
		<path style="fill:#CE4ABF;" d="M805.005,1344.609c-0.287,4.608-0.727,8.843-1.319,12.572c0,0-94.302,29.665-178.106-9.254
			c-4.112-19.308-0.388-33.358,9.558-72.122c6.235-21.778,5.926-64.902,7.628-75.657c9.55-52.396,43.412-54.529,60.299-60.001
			c8.656,22.072,34.072,16.111,29.015,0.019C804.887,1158.782,805.642,1274.038,805.005,1344.609z"/>
		<path style="fill:#C16256;" d="M720.537,1070.844c-0.138,0-0.278-0.03-0.411-0.093c-0.482-0.227-0.687-0.802-0.46-1.283
			c0.119-0.252,2.991-6.182,9.431-7.364c0.529-0.094,1.026,0.251,1.122,0.774c0.096,0.523-0.25,1.026-0.773,1.122
			c-5.479,1.006-8.013,6.24-8.037,6.293C721.244,1070.64,720.898,1070.844,720.537,1070.844z"/>
		<path style="fill:#C16256;" d="M746.117,1061.924c-0.131,0-0.266-0.027-0.395-0.085c-4.389-1.974-7.79-0.12-7.931-0.04
			c-0.464,0.26-1.05,0.097-1.312-0.365c-0.261-0.462-0.102-1.047,0.359-1.31c0.174-0.1,4.361-2.431,9.675-0.042
			c0.485,0.218,0.702,0.789,0.483,1.274C746.836,1061.712,746.485,1061.924,746.117,1061.924z"/>
		<path style="fill:#103663;" d="M651.207,1380.707c-0.146,0-0.293-0.017-0.441-0.052c-24-5.581-23.431-20.996-23.395-21.649
			c0.033-0.611,0.354-1.17,0.863-1.508c0.51-0.339,1.148-0.417,1.725-0.21c22.79,8.158,46.157,12.408,46.391,12.45
			c1.053,0.189,1.753,1.197,1.564,2.25c-0.189,1.053-1.203,1.749-2.25,1.565c-0.226-0.041-21.921-3.986-44.037-11.574
			c1.076,4.04,5.098,11.434,20.017,14.903c1.042,0.242,1.691,1.284,1.449,2.326C652.884,1380.102,652.087,1380.707,651.207,1380.707
			z"/>
		<path style="fill:#CE4ABF;" d="M800.37,1193.68c0,0,0,0,0,0.01c-3.76,2.1-7.5,3.99-11.18,5.64c-2.02,0.92-4.03,1.76-6.01,2.52
			l-51.11-61.7c15.16-12.13,103.29-54.5,113.79-78.45c5.81-10.42,9.98-49.3,6.72-73.43c0.21,0,9.7-0.06,17.74-10.8
			c9.82,17.69,20.14,38.79,26.54,72.95C909.06,1095.04,852.5,1164.53,800.37,1193.68z"/>
		<path style="fill:#A523A2;" d="M874.982,986.127c-9.545,11.207-21.624,10.077-21.624,10.077c-0.203-2.687-0.46-5.424-0.781-7.938
			c0,0,9.608,0.061,17.742-10.795C870.319,977.471,872.169,980.581,874.982,986.127z"/>
		<path style="fill:#A523A2;" d="M805.005,1344.609c-0.287,4.608-0.727,8.843-1.319,12.572c0,0-94.302,29.665-178.106-9.254
			c0,0-1.63-3.654-1.649-12.516c0,0,41.419,17.497,90.797,20.757C743.772,1358.08,780.053,1350.871,805.005,1344.609z"/>
		<path style="fill:#F4D4BE;" d="M950.363,874.439c1.554,10.081-5.058,19.964-15.619,23.129
			c-17.515,5.249-32.359,16.734-42.42,32.005c-0.771,1.171-1.584,2.328-2.43,3.471c-10.897,14.641-27.83,26.225-48.419,31.614
			l-36.963,9.38l-173.849,44.117l-87.023,22.073l-32.818-165.007l88.853-12.895l177.496-25.768l37.737-5.472
			c22.778-3.136,44.361,2.057,60.502,13.036c15.078,10.253,33.179,15.112,51.32,13.268l0.03-0.005
			c5.628-0.574,10.974,0.889,15.175,3.793c4.201,2.904,7.247,7.241,8.279,12.424C950.267,873.877,950.321,874.162,950.363,874.439z"
			/>
		<polygon style="fill:#3A72AA;" points="630.662,1018.152 599.671,862.323 777.173,836.562 804.514,974.038 		"/>
		<path style="fill:#D1A68F;" d="M512.806,1034.919l-29.805-141.807c-0.935-4.449,0.921-9.02,4.692-11.558l24.675-16.609
			c6.614-4.452,15.628-0.736,17.184,7.084l32.506,163.449c1.538,7.735-5.212,14.584-12.968,13.158l-27.376-5.033
			C517.257,1042.784,513.738,1039.353,512.806,1034.919z"/>
		<path style="fill:#1D3F70;" d="M950.363,874.439c1.554,10.081-5.058,19.964-15.619,23.129
			c-15.015-19.298-8.014-40.178-8.014-40.178l0.03-0.005c5.628-0.574,10.974,0.889,15.175,3.793
			c4.201,2.904,7.247,7.241,8.279,12.424C950.267,873.877,950.321,874.162,950.363,874.439z"/>
		<path style="fill:#F99370;" d="M851.609,982.851c-10.27-2.601-16.616-11.055-19.562-19.393c-0.892-2.493-2.37-6.348,1.117-7.448
			c1.513-0.453,3.098,0.264,3.785,1.628c2.865,6.826,8.625,12.844,15.84,14.712C859.452,974.321,858.208,985.016,851.609,982.851z"
			/>
		<path style="fill:#F99370;" d="M587.899,1048.826c11.202-10.669,7.147-26.144,2.57-33.711c-1.362-2.271-3.404-5.859-6.466-3.861
			c-1.31,0.883-1.761,2.563-1.143,3.958c3.459,6.544,4.457,14.815,1.325,21.578C581.482,1043.192,587.899,1048.826,587.899,1048.826
			z"/>
		<path style="fill:#F99370;" d="M683.353,1197.979c-131.75,3.636-172.647-36.624-109.93-160.573
			c4.185-8.101,17.236-3.473,15.481,5.37c-0.056,0.181-1.148,6.984-1.201,7.203c-2.78,23.298-12.941,69.297-0.398,88.63
			c28.887,11.542,62.419,7.658,93.166,7.175C714.426,1144.837,717.189,1195.169,683.353,1197.979z"/>
		<path style="fill:#CE4ABF;" d="M710.84,1182.45c0.34,13.27-18.44,41.61-53.84,42.64c-4.66,0.13-10-0.33-15.79-1.35
			c-16.91-2.96-37.56-10.63-55.72-21.89c-0.01,0-0.01,0-0.02-0.01c-22.83-14.15-41.7-33.97-44.16-57.18
			c-3.87-36.34,13.09-72.57,21.56-88.04c0,0,0,0,0.01,0c2.72-4.97,4.56-7.79,4.56-7.79c14.04-1.37,19.91,3.91,19.91,3.91
			s0.03,2.94,0.12,7.73c0.18,10,0.64,28.05,1.69,44.11c1.55,23.74,15.3,35.48,56.56,33.44c41.26-2.04,57.35,2.13,57.35,2.13
			S710.5,1169.17,710.84,1182.45z"/>
		<path style="fill:#A523A2;" d="M587.47,1060.47c-13.85-5.7-24.18-3.92-24.59-3.85c2.72-4.97,4.56-7.79,4.56-7.79
			c14.04-1.37,19.91,3.91,19.91,3.91S587.38,1055.68,587.47,1060.47z"/>
		<path style="fill:#A523A2;" d="M646.02,1192.15c-3.83,16.34-4.81,31.59-4.81,31.59c-16.91-2.96-37.56-10.63-55.72-21.89
			C627.59,1216.91,646.02,1192.15,646.02,1192.15z"/>
		<path style="fill:#A523A2;" d="M800.37,1193.68c0,0,0,0,0,0.01c-3.76,2.1-7.5,3.99-11.18,5.64v-0.01
			c-3.58-10.93-12.93-26.33-13.22-26.81C792.8,1181.7,800.37,1193.68,800.37,1193.68z"/>
		<path style="fill:#F9F8F3;" d="M746.385,1094.27l-16.332-7.328c0,0-0.506,8.733,5.912,10.77
			C742.098,1099.659,746.385,1094.27,746.385,1094.27z"/>
		<path style="fill:#C16256;" d="M746.502,1094.957c-0.132,0.023-0.271,0.007-0.402-0.051l-16.332-7.329
			c-0.352-0.157-0.508-0.57-0.351-0.921c0.156-0.35,0.571-0.507,0.92-0.35l16.332,7.329c0.352,0.157,0.508,0.569,0.351,0.921
			C746.922,1094.775,746.722,1094.92,746.502,1094.957z"/>
	</g>
</g>
</svg>
