<svg width="1328" height="300" viewBox="0 0 1328 300" fill="none" xmlns="http://www.w3.org/2000/svg">
<g clip-path="url(#clip0_0_1)">
<path d="M546.848 100.408C547.787 102.797 547.403 104.931 545.696 106.808L523.552 128.696C522.784 129.635 522.784 130.403 523.552 131L545.44 153.016C547.317 154.893 547.787 157.027 546.848 159.416C546.421 160.44 545.696 161.293 544.672 161.976C543.648 162.659 542.539 163 541.344 163H536.48C534.773 163 533.408 162.403 532.384 161.208L506.784 135.736C505.675 134.627 505.12 133.261 505.12 131.64V128.056C505.12 126.605 505.675 125.24 506.784 123.96L532.384 98.488C533.408 97.2933 534.773 96.696 536.48 96.696H541.472C542.667 96.696 543.733 97.0373 544.672 97.72C545.696 98.4027 546.421 99.2987 546.848 100.408ZM615.479 154.936C616.332 156.899 616.204 158.691 615.095 160.312C613.815 162.104 612.194 163 610.231 163H606.391C605.282 163 604.172 162.659 603.063 161.976C602.039 161.293 601.314 160.44 600.887 159.416L588.855 130.616C588.428 129.592 587.66 129.08 586.551 129.08H574.647C573.538 129.08 572.983 129.635 572.983 130.744V157.112C572.983 158.733 572.386 160.141 571.191 161.336C570.082 162.445 568.716 163 567.095 163H563.511C561.89 163 560.524 162.445 559.415 161.336C558.391 160.141 557.879 158.733 557.879 157.112V82.36C557.879 80.6533 558.391 79.2453 559.415 78.136C560.524 77.0267 561.89 76.472 563.511 76.472H598.199C601.271 76.472 604.087 77.24 606.647 78.776C609.207 80.312 611.255 82.36 612.791 84.92C614.327 87.48 615.095 90.3387 615.095 93.496V112.184C615.095 115.512 614.199 118.541 612.407 121.272C610.7 123.917 608.439 125.965 605.623 127.416C605.282 127.501 605.026 127.8 604.855 128.312C604.684 128.739 604.727 129.165 604.983 129.592L615.479 154.936ZM599.863 112.184V93.496C599.863 92.3013 599.308 91.704 598.199 91.704H574.647C573.538 91.704 572.983 92.2587 572.983 93.368V112.184C572.983 113.293 573.538 113.848 574.647 113.848H598.199C599.308 113.848 599.863 113.293 599.863 112.184ZM692.671 155.32C693.183 157.283 692.884 159.075 691.775 160.696C690.666 162.232 689.087 163 687.039 163H683.327C682.132 163 680.98 162.616 679.871 161.848C678.847 161.08 678.122 160.141 677.695 159.032L672.831 144.312C672.49 143.203 671.764 142.648 670.655 142.648H648.767C647.658 142.648 646.932 143.203 646.591 144.312L641.727 159.032C641.3 160.141 640.575 161.08 639.551 161.848C638.527 162.616 637.375 163 636.095 163H632.383C630.335 163 628.756 162.232 627.647 160.696C626.452 158.989 626.196 157.197 626.879 155.32L651.711 80.44C652.138 79.2453 652.82 78.3067 653.759 77.624C654.783 76.856 655.892 76.472 657.087 76.472H662.335C663.53 76.472 664.639 76.856 665.663 77.624C666.687 78.3067 667.37 79.2453 667.711 80.44L692.671 155.32ZM666.815 125.88L660.415 106.296C659.988 105.699 659.519 105.699 659.007 106.296L652.607 125.88C652.436 126.307 652.479 126.691 652.735 127.032C652.991 127.373 653.332 127.544 653.759 127.544H665.663C666.09 127.544 666.431 127.373 666.687 127.032C666.943 126.691 666.986 126.307 666.815 125.88ZM753.921 84.152L729.089 159.032C728.748 160.141 728.022 161.08 726.913 161.848C725.889 162.616 724.78 163 723.585 163H718.337C717.142 163 716.033 162.616 715.009 161.848C714.07 161.08 713.388 160.141 712.961 159.032L688.129 84.152C687.446 82.2747 687.702 80.5253 688.897 78.904C690.006 77.2827 691.585 76.472 693.633 76.472H697.345C700.161 76.472 702.038 77.7947 702.977 80.44L720.257 133.176C720.769 133.773 721.238 133.773 721.665 133.176C723.457 127.629 725.292 121.955 727.169 116.152C729.132 110.264 730.966 104.76 732.673 99.64C734.38 94.4347 735.788 90.1253 736.897 86.712L738.945 80.44C739.372 79.2453 740.097 78.3067 741.121 77.624C742.23 76.856 743.382 76.472 744.577 76.472H748.289C750.337 76.472 751.916 77.2827 753.025 78.904C754.22 80.44 754.518 82.1893 753.921 84.152ZM819.922 157.112C819.922 158.733 819.325 160.141 818.13 161.336C817.021 162.445 815.698 163 814.162 163H770.13C768.594 163 767.229 162.445 766.034 161.336C764.925 160.141 764.37 158.733 764.37 157.112V82.36C764.37 80.6533 764.925 79.2453 766.034 78.136C767.229 77.0267 768.594 76.472 770.13 76.472H814.162C815.698 76.472 817.021 77.0267 818.13 78.136C819.325 79.2453 819.922 80.6533 819.922 82.36V85.816C819.922 87.4373 819.325 88.8453 818.13 90.04C817.021 91.1493 815.698 91.704 814.162 91.704H781.138C780.114 91.704 779.602 92.2587 779.602 93.368V110.392C779.602 111.587 780.114 112.184 781.138 112.184H809.554C811.261 112.184 812.669 112.739 813.778 113.848C814.887 114.957 815.442 116.323 815.442 117.944V121.528C815.442 123.149 814.887 124.557 813.778 125.752C812.669 126.861 811.261 127.416 809.554 127.416H781.138C780.114 127.416 779.602 127.928 779.602 128.952V146.232C779.602 147.341 780.114 147.896 781.138 147.896H814.162C815.698 147.896 817.021 148.451 818.13 149.56C819.325 150.669 819.922 152.077 819.922 153.784V157.112ZM888.744 157.112C888.744 158.733 888.147 160.141 886.952 161.336C885.843 162.445 884.477 163 882.856 163H879.144C876.84 163 875.133 162.019 874.024 160.056L846.76 112.824C846.589 112.483 846.333 112.397 845.992 112.568C845.651 112.653 845.48 112.824 845.48 113.08V157.112C845.48 158.733 844.883 160.141 843.688 161.336C842.579 162.445 841.256 163 839.72 163H836.136C834.515 163 833.107 162.445 831.912 161.336C830.803 160.141 830.248 158.733 830.248 157.112V82.36C830.248 80.6533 830.803 79.2453 831.912 78.136C833.107 77.0267 834.515 76.472 836.136 76.472H839.848C842.152 76.472 843.859 77.4533 844.968 79.416L872.232 126.648C872.488 126.989 872.744 127.117 873 127.032C873.341 126.947 873.512 126.733 873.512 126.392V82.36C873.512 80.6533 874.067 79.2453 875.176 78.136C876.371 77.0267 877.779 76.472 879.4 76.472H882.856C884.477 76.472 885.843 77.0267 886.952 78.136C888.147 79.2453 888.744 80.6533 888.744 82.36V157.112ZM941.36 131.64C941.36 133.347 940.805 134.712 939.696 135.736L914.224 161.208C912.859 162.403 911.451 163 910 163H905.008C903.899 163 902.832 162.659 901.808 161.976C900.869 161.293 900.144 160.44 899.632 159.416C898.693 157.112 899.12 154.979 900.912 153.016L922.8 131C923.739 130.403 923.739 129.635 922.8 128.696L900.912 106.808C899.035 105.101 898.608 102.968 899.632 100.408C900.059 99.2987 900.784 98.4027 901.808 97.72C902.832 97.0373 903.899 96.696 905.008 96.696H910C911.451 96.696 912.859 97.2933 914.224 98.488L939.696 123.96C940.805 125.069 941.36 126.435 941.36 128.056V131.64ZM993.473 100.408C994.412 102.797 994.028 104.931 992.321 106.808L970.177 128.696C969.409 129.635 969.409 130.403 970.177 131L992.065 153.016C993.942 154.893 994.412 157.027 993.473 159.416C993.046 160.44 992.321 161.293 991.297 161.976C990.273 162.659 989.164 163 987.969 163H983.105C981.398 163 980.033 162.403 979.009 161.208L953.409 135.736C952.3 134.627 951.745 133.261 951.745 131.64V128.056C951.745 126.605 952.3 125.24 953.409 123.96L979.009 98.488C980.033 97.2933 981.398 96.696 983.105 96.696H988.097C989.292 96.696 990.358 97.0373 991.297 97.72C992.321 98.4027 993.046 99.2987 993.473 100.408ZM1059.03 84.92L1018.97 159.928C1017.86 161.976 1016.15 163 1013.85 163H1009.88C1007.66 163 1006 162.061 1004.89 160.184C1003.86 158.307 1003.82 156.344 1004.76 154.296L1044.82 79.544C1045.93 77.496 1047.64 76.472 1049.94 76.472H1053.91C1056.13 76.472 1057.79 77.4107 1058.9 79.288C1060.01 81.08 1060.06 82.9573 1059.03 84.92ZM1126.83 146.104C1126.83 149.176 1126.06 151.992 1124.53 154.552C1122.99 157.112 1120.94 159.16 1118.38 160.696C1115.82 162.232 1113.01 163 1109.93 163H1075.76C1074.14 163 1072.73 162.445 1071.53 161.336C1070.42 160.141 1069.87 158.733 1069.87 157.112V82.36C1069.87 80.6533 1070.42 79.2453 1071.53 78.136C1072.73 77.0267 1074.14 76.472 1075.76 76.472H1109.93C1113.01 76.472 1115.82 77.24 1118.38 78.776C1120.94 80.312 1122.99 82.36 1124.53 84.92C1126.06 87.48 1126.83 90.3387 1126.83 93.496V146.104ZM1111.6 146.104V93.496C1111.6 92.3013 1111.04 91.704 1109.93 91.704H1086.89C1085.78 91.704 1085.23 92.2587 1085.23 93.368V146.232C1085.23 147.341 1085.78 147.896 1086.89 147.896H1109.93C1110.36 147.896 1110.74 147.725 1111.09 147.384C1111.43 146.957 1111.6 146.531 1111.6 146.104ZM1192.8 157.112C1192.8 158.733 1192.2 160.141 1191.01 161.336C1189.9 162.445 1188.57 163 1187.04 163H1143.01C1141.47 163 1140.1 162.445 1138.91 161.336C1137.8 160.141 1137.25 158.733 1137.25 157.112V82.36C1137.25 80.6533 1137.8 79.2453 1138.91 78.136C1140.1 77.0267 1141.47 76.472 1143.01 76.472H1187.04C1188.57 76.472 1189.9 77.0267 1191.01 78.136C1192.2 79.2453 1192.8 80.6533 1192.8 82.36V85.816C1192.8 87.4373 1192.2 88.8453 1191.01 90.04C1189.9 91.1493 1188.57 91.704 1187.04 91.704H1154.01C1152.99 91.704 1152.48 92.2587 1152.48 93.368V110.392C1152.48 111.587 1152.99 112.184 1154.01 112.184H1182.43C1184.14 112.184 1185.54 112.739 1186.65 113.848C1187.76 114.957 1188.32 116.323 1188.32 117.944V121.528C1188.32 123.149 1187.76 124.557 1186.65 125.752C1185.54 126.861 1184.14 127.416 1182.43 127.416H1154.01C1152.99 127.416 1152.48 127.928 1152.48 128.952V146.232C1152.48 147.341 1152.99 147.896 1154.01 147.896H1187.04C1188.57 147.896 1189.9 148.451 1191.01 149.56C1192.2 150.669 1192.8 152.077 1192.8 153.784V157.112ZM1269.17 84.152L1244.34 159.032C1244 160.141 1243.27 161.08 1242.16 161.848C1241.14 162.616 1240.03 163 1238.84 163H1233.59C1232.39 163 1231.28 162.616 1230.26 161.848C1229.32 161.08 1228.64 160.141 1228.21 159.032L1203.38 84.152C1202.7 82.2747 1202.95 80.5253 1204.15 78.904C1205.26 77.2827 1206.84 76.472 1208.88 76.472H1212.6C1215.41 76.472 1217.29 77.7947 1218.23 80.44L1235.51 133.176C1236.02 133.773 1236.49 133.773 1236.92 133.176C1238.71 127.629 1240.54 121.955 1242.42 116.152C1244.38 110.264 1246.22 104.76 1247.92 99.64C1249.63 94.4347 1251.04 90.1253 1252.15 86.712L1254.2 80.44C1254.62 79.2453 1255.35 78.3067 1256.37 77.624C1257.48 76.856 1258.63 76.472 1259.83 76.472H1263.54C1265.59 76.472 1267.17 77.2827 1268.28 78.904C1269.47 80.44 1269.77 82.1893 1269.17 84.152ZM1321.86 131.64C1321.86 133.347 1321.31 134.712 1320.2 135.736L1294.72 161.208C1293.36 162.403 1291.95 163 1290.5 163H1285.51C1284.4 163 1283.33 162.659 1282.31 161.976C1281.37 161.293 1280.64 160.44 1280.13 159.416C1279.19 157.112 1279.62 154.979 1281.41 153.016L1303.3 131C1304.24 130.403 1304.24 129.635 1303.3 128.696L1281.41 106.808C1279.53 105.101 1279.11 102.968 1280.13 100.408C1280.56 99.2987 1281.28 98.4027 1282.31 97.72C1283.33 97.0373 1284.4 96.696 1285.51 96.696H1290.5C1291.95 96.696 1293.36 97.2933 1294.72 98.488L1320.2 123.96C1321.31 125.069 1321.86 126.435 1321.86 128.056V131.64ZM544.928 187.32L536.416 224.696C536.245 225.379 535.883 225.933 535.328 226.36C534.816 226.787 534.219 227 533.536 227H531.232C530.592 227 530.016 226.808 529.504 226.424C528.992 226.04 528.629 225.549 528.416 224.952L528.16 224.12C527.605 222.371 526.965 220.344 526.24 218.04C525.557 215.736 524.832 213.325 524.064 210.808C524.021 210.637 523.915 210.552 523.744 210.552C523.616 210.552 523.531 210.637 523.488 210.808C522.891 212.685 522.315 214.563 521.76 216.44C521.205 218.275 520.693 219.939 520.224 221.432C519.797 222.925 519.435 224.099 519.136 224.952C518.965 225.507 518.603 225.997 518.048 226.424C517.536 226.808 516.96 227 516.32 227H513.952C513.269 227 512.651 226.787 512.096 226.36C511.584 225.933 511.264 225.379 511.136 224.696L502.624 187.32C502.453 186.467 502.624 185.635 503.136 184.824C503.477 184.483 503.84 184.227 504.224 184.056C504.608 183.843 505.035 183.736 505.504 183.736H507.296C507.979 183.736 508.576 183.949 509.088 184.376C509.643 184.803 510.005 185.336 510.176 185.976L515.36 209.144C515.403 209.272 515.509 209.336 515.68 209.336C515.851 209.336 515.979 209.272 516.064 209.144C516.064 209.144 516.192 208.675 516.448 207.736C516.747 206.797 517.131 205.56 517.6 204.024C518.069 202.445 518.603 200.696 519.2 198.776C519.797 196.856 520.395 194.915 520.992 192.952C521.205 192.355 521.547 191.864 522.016 191.48C522.485 191.053 523.061 190.84 523.744 190.84C524.469 190.84 525.067 191.053 525.536 191.48C526.048 191.864 526.389 192.376 526.56 193.016L531.488 209.144C531.573 209.272 531.701 209.336 531.872 209.336C532.043 209.336 532.149 209.272 532.192 209.144C532.747 206.627 533.301 204.131 533.856 201.656C534.411 199.181 534.923 196.877 535.392 194.744C535.904 192.611 536.331 190.776 536.672 189.24C537.013 187.704 537.248 186.616 537.376 185.976C537.547 185.336 537.888 184.803 538.4 184.376C538.955 183.949 539.573 183.736 540.256 183.736H542.048C542.517 183.736 542.944 183.843 543.328 184.056C543.712 184.227 544.053 184.483 544.352 184.824C544.949 185.592 545.141 186.424 544.928 187.32ZM592.619 224.056C592.619 224.867 592.32 225.571 591.723 226.168C591.168 226.723 590.507 227 589.739 227H567.723C566.955 227 566.272 226.723 565.675 226.168C565.12 225.571 564.843 224.867 564.843 224.056V186.68C564.843 185.827 565.12 185.123 565.675 184.568C566.272 184.013 566.955 183.736 567.723 183.736H589.739C590.507 183.736 591.168 184.013 591.723 184.568C592.32 185.123 592.619 185.827 592.619 186.68V188.408C592.619 189.219 592.32 189.923 591.723 190.52C591.168 191.075 590.507 191.352 589.739 191.352H573.227C572.715 191.352 572.459 191.629 572.459 192.184V200.696C572.459 201.293 572.715 201.592 573.227 201.592H587.435C588.288 201.592 588.992 201.869 589.547 202.424C590.101 202.979 590.379 203.661 590.379 204.472V206.264C590.379 207.075 590.101 207.779 589.547 208.376C588.992 208.931 588.288 209.208 587.435 209.208H573.227C572.715 209.208 572.459 209.464 572.459 209.976V218.616C572.459 219.171 572.715 219.448 573.227 219.448H589.739C590.507 219.448 591.168 219.725 591.723 220.28C592.32 220.835 592.619 221.539 592.619 222.392V224.056ZM640.918 218.552C640.918 220.088 640.534 221.496 639.766 222.776C638.998 224.056 637.974 225.08 636.694 225.848C635.414 226.616 634.006 227 632.47 227H615.382C614.571 227 613.867 226.723 613.27 226.168C612.715 225.571 612.438 224.867 612.438 224.056V186.68C612.438 185.827 612.715 185.123 613.27 184.568C613.867 184.013 614.571 183.736 615.382 183.736H631.574C633.152 183.736 634.56 184.12 635.798 184.888C637.078 185.656 638.102 186.68 638.87 187.96C639.638 189.24 640.022 190.669 640.022 192.248V199.864C640.022 201.016 639.808 202.083 639.382 203.064C639.168 203.533 639.211 204.003 639.51 204.472C640.448 205.88 640.918 207.459 640.918 209.208V218.552ZM632.47 199.864V192.248C632.47 191.992 632.363 191.779 632.15 191.608C631.979 191.437 631.787 191.352 631.574 191.352H620.95C620.395 191.352 620.118 191.629 620.118 192.184V199.864C620.118 200.419 620.395 200.696 620.95 200.696H631.574C631.787 200.696 631.979 200.611 632.15 200.44C632.363 200.269 632.47 200.077 632.47 199.864ZM633.302 218.552V209.208C633.302 208.611 633.024 208.312 632.47 208.312H620.95C620.395 208.312 620.118 208.589 620.118 209.144V218.616C620.118 219.171 620.395 219.448 620.95 219.448H632.47C632.683 219.448 632.875 219.363 633.046 219.192C633.216 218.979 633.302 218.765 633.302 218.552ZM718.795 218.552C718.795 220.088 718.411 221.496 717.643 222.776C716.875 224.056 715.851 225.08 714.571 225.848C713.291 226.616 711.883 227 710.347 227H693.259C692.448 227 691.744 226.723 691.147 226.168C690.592 225.571 690.315 224.867 690.315 224.056V186.68C690.315 185.827 690.592 185.123 691.147 184.568C691.744 184.013 692.448 183.736 693.259 183.736H710.347C711.883 183.736 713.291 184.12 714.571 184.888C715.851 185.656 716.875 186.68 717.643 187.96C718.411 189.24 718.795 190.669 718.795 192.248V218.552ZM711.179 218.552V192.248C711.179 191.651 710.902 191.352 710.347 191.352H698.827C698.272 191.352 697.995 191.629 697.995 192.184V218.616C697.995 219.171 698.272 219.448 698.827 219.448H710.347C710.56 219.448 710.752 219.363 710.923 219.192C711.094 218.979 711.179 218.765 711.179 218.552ZM766.499 224.056C766.499 224.867 766.2 225.571 765.603 226.168C765.048 226.723 764.387 227 763.619 227H741.603C740.835 227 740.152 226.723 739.555 226.168C739 225.571 738.723 224.867 738.723 224.056V186.68C738.723 185.827 739 185.123 739.555 184.568C740.152 184.013 740.835 183.736 741.603 183.736H763.619C764.387 183.736 765.048 184.013 765.603 184.568C766.2 185.123 766.499 185.827 766.499 186.68V188.408C766.499 189.219 766.2 189.923 765.603 190.52C765.048 191.075 764.387 191.352 763.619 191.352H747.107C746.595 191.352 746.339 191.629 746.339 192.184V200.696C746.339 201.293 746.595 201.592 747.107 201.592H761.315C762.168 201.592 762.872 201.869 763.427 202.424C763.981 202.979 764.259 203.661 764.259 204.472V206.264C764.259 207.075 763.981 207.779 763.427 208.376C762.872 208.931 762.168 209.208 761.315 209.208H747.107C746.595 209.208 746.339 209.464 746.339 209.976V218.616C746.339 219.171 746.595 219.448 747.107 219.448H763.619C764.387 219.448 765.048 219.725 765.603 220.28C766.2 220.835 766.499 221.539 766.499 222.392V224.056ZM815.63 218.552C815.63 220.088 815.246 221.496 814.478 222.776C813.71 224.056 812.686 225.08 811.406 225.848C810.126 226.616 808.718 227 807.182 227H794.894C793.358 227 791.928 226.616 790.606 225.848C789.326 225.08 788.302 224.056 787.534 222.776C786.766 221.496 786.382 220.088 786.382 218.552V216.632C786.382 215.821 786.659 215.139 787.214 214.584C787.811 213.987 788.515 213.688 789.326 213.688H791.118C791.886 213.688 792.547 213.987 793.102 214.584C793.699 215.139 793.998 215.821 793.998 216.632V218.552C793.998 218.765 794.083 218.979 794.254 219.192C794.467 219.363 794.68 219.448 794.894 219.448H807.182C807.395 219.448 807.587 219.363 807.758 219.192C807.928 218.979 808.014 218.765 808.014 218.552V212.728C808.014 212.259 807.8 211.96 807.374 211.832L792.014 206.072C790.307 205.475 788.942 204.429 787.918 202.936C786.894 201.443 786.382 199.8 786.382 198.008V192.248C786.382 190.669 786.766 189.24 787.534 187.96C788.302 186.68 789.326 185.656 790.606 184.888C791.928 184.12 793.358 183.736 794.894 183.736H807.182C808.718 183.736 810.126 184.12 811.406 184.888C812.686 185.656 813.71 186.68 814.478 187.96C815.246 189.24 815.63 190.669 815.63 192.248V193.976C815.63 194.787 815.331 195.469 814.734 196.024C814.179 196.579 813.496 196.856 812.686 196.856H810.958C810.147 196.856 809.443 196.579 808.846 196.024C808.291 195.469 808.014 194.787 808.014 193.976V192.248C808.014 191.651 807.736 191.352 807.182 191.352H794.894C794.68 191.352 794.467 191.437 794.254 191.608C794.083 191.779 793.998 191.992 793.998 192.248V198.008C793.998 198.52 794.211 198.84 794.638 198.968L810.062 204.728C811.726 205.325 813.07 206.371 814.094 207.864C815.118 209.357 815.63 210.979 815.63 212.728V218.552ZM843.218 224.056C843.218 224.867 842.919 225.571 842.322 226.168C841.767 226.723 841.084 227 840.274 227H838.546C837.735 227 837.031 226.723 836.434 226.168C835.879 225.571 835.602 224.867 835.602 224.056V186.68C835.602 185.827 835.879 185.123 836.434 184.568C837.031 184.013 837.735 183.736 838.546 183.736H840.274C841.084 183.736 841.767 184.013 842.322 184.568C842.919 185.123 843.218 185.827 843.218 186.68V224.056ZM892.445 218.552C892.445 220.088 892.061 221.496 891.293 222.776C890.525 224.056 889.501 225.08 888.221 225.848C886.941 226.616 885.533 227 883.997 227H871.709C870.173 227 868.743 226.616 867.421 225.848C866.141 225.08 865.117 224.056 864.349 222.776C863.581 221.496 863.197 220.088 863.197 218.552V192.248C863.197 190.669 863.581 189.24 864.349 187.96C865.117 186.68 866.141 185.656 867.421 184.888C868.743 184.12 870.173 183.736 871.709 183.736H883.997C885.533 183.736 886.941 184.12 888.221 184.888C889.501 185.656 890.525 186.68 891.293 187.96C892.061 189.24 892.445 190.669 892.445 192.248V193.976C892.445 194.787 892.146 195.469 891.549 196.024C890.994 196.579 890.311 196.856 889.501 196.856H887.773C886.962 196.856 886.258 196.579 885.661 196.024C885.106 195.469 884.829 194.787 884.829 193.976V192.248C884.829 191.651 884.551 191.352 883.997 191.352H871.709C871.495 191.352 871.282 191.437 871.069 191.608C870.898 191.779 870.813 191.992 870.813 192.248V218.552C870.813 218.765 870.898 218.979 871.069 219.192C871.282 219.363 871.495 219.448 871.709 219.448H883.997C884.21 219.448 884.402 219.363 884.573 219.192C884.743 218.979 884.829 218.765 884.829 218.552V209.976C884.829 209.464 884.573 209.208 884.061 209.208H879.517C878.706 209.208 878.002 208.931 877.405 208.376C876.85 207.779 876.573 207.075 876.573 206.264V204.472C876.573 203.661 876.85 202.979 877.405 202.424C878.002 201.869 878.706 201.592 879.517 201.592H889.501C890.311 201.592 890.994 201.869 891.549 202.424C892.146 202.979 892.445 203.661 892.445 204.472V218.552ZM941.665 224.056C941.665 224.867 941.366 225.571 940.769 226.168C940.214 226.723 939.531 227 938.721 227H936.865C935.713 227 934.859 226.509 934.305 225.528L920.673 201.912C920.587 201.741 920.459 201.699 920.289 201.784C920.118 201.827 920.033 201.912 920.033 202.04V224.056C920.033 224.867 919.734 225.571 919.137 226.168C918.582 226.723 917.921 227 917.153 227H915.361C914.55 227 913.846 226.723 913.249 226.168C912.694 225.571 912.417 224.867 912.417 224.056V186.68C912.417 185.827 912.694 185.123 913.249 184.568C913.846 184.013 914.55 183.736 915.361 183.736H917.217C918.369 183.736 919.222 184.227 919.777 185.208L933.409 208.824C933.537 208.995 933.665 209.059 933.793 209.016C933.963 208.973 934.049 208.867 934.049 208.696V186.68C934.049 185.827 934.326 185.123 934.881 184.568C935.478 184.013 936.182 183.736 936.993 183.736H938.721C939.531 183.736 940.214 184.013 940.769 184.568C941.366 185.123 941.665 185.827 941.665 186.68V224.056ZM990.885 218.552C990.885 220.088 990.501 221.496 989.733 222.776C988.965 224.056 987.941 225.08 986.661 225.848C985.381 226.616 983.973 227 982.437 227H970.149C968.613 227 967.183 226.616 965.861 225.848C964.581 225.08 963.557 224.056 962.789 222.776C962.021 221.496 961.637 220.088 961.637 218.552V216.632C961.637 215.821 961.914 215.139 962.469 214.584C963.066 213.987 963.77 213.688 964.581 213.688H966.373C967.141 213.688 967.802 213.987 968.357 214.584C968.954 215.139 969.253 215.821 969.253 216.632V218.552C969.253 218.765 969.338 218.979 969.509 219.192C969.722 219.363 969.935 219.448 970.149 219.448H982.437C982.65 219.448 982.842 219.363 983.013 219.192C983.183 218.979 983.269 218.765 983.269 218.552V212.728C983.269 212.259 983.055 211.96 982.629 211.832L967.269 206.072C965.562 205.475 964.197 204.429 963.173 202.936C962.149 201.443 961.637 199.8 961.637 198.008V192.248C961.637 190.669 962.021 189.24 962.789 187.96C963.557 186.68 964.581 185.656 965.861 184.888C967.183 184.12 968.613 183.736 970.149 183.736H982.437C983.973 183.736 985.381 184.12 986.661 184.888C987.941 185.656 988.965 186.68 989.733 187.96C990.501 189.24 990.885 190.669 990.885 192.248V193.976C990.885 194.787 990.586 195.469 989.989 196.024C989.434 196.579 988.751 196.856 987.941 196.856H986.213C985.402 196.856 984.698 196.579 984.101 196.024C983.546 195.469 983.269 194.787 983.269 193.976V192.248C983.269 191.651 982.991 191.352 982.437 191.352H970.149C969.935 191.352 969.722 191.437 969.509 191.608C969.338 191.779 969.253 191.992 969.253 192.248V198.008C969.253 198.52 969.466 198.84 969.893 198.968L985.317 204.728C986.981 205.325 988.325 206.371 989.349 207.864C990.373 209.357 990.885 210.979 990.885 212.728V218.552Z" fill="white"/>
<path d="M111.688 146H111.662C111.223 146.061 111 146.271 111 146.628L112.007 152.072C112.22 153.162 112.473 154.227 112.762 155.259C113.567 157.762 114.122 159.201 114.427 159.567C114.888 160.442 115.423 161.236 116.046 161.956C118.421 164.798 122.714 166.14 128.929 165.988C131.197 165.944 133.339 165.822 135.344 165.626L139.825 165.176C139.955 165.176 140.102 165.111 140.254 164.98C140.907 162.996 141.13 161.171 140.928 159.506C140.77 158.167 140.127 156.825 138.994 155.477C137.009 153.184 133.881 151.257 129.604 149.692C126.388 148.454 120.416 147.221 111.688 146Z" fill="white"/>
<path d="M290.587 0L290.499 0.00812898L181.134 27.4239C180.292 27.2695 180.115 26.6322 180.611 25.5006L201.779 9.61496C202.118 9.34345 202.071 8.9939 201.645 8.5777C169.921 7.00881 149.683 6.53895 140.93 7.16651C132.564 7.17464 122.607 9.59382 111.057 14.4257C101.112 19.7941 93.4689 25.3136 88.1249 30.9828L31.5995 101.703L32.268 102.923L14.7398 118.069L10.6495 125.053C1.93377 143.054 -1.43179 165.083 0.551552 191.137C5.35076 202.317 12.0452 214.769 20.6348 228.496C33.4017 196.868 41.613 179.454 45.2773 176.249C51.4452 166.586 58.0747 158.224 65.167 151.162C79.0603 137.085 95.3837 128.111 114.132 124.237C123.544 122.676 132.26 124.477 140.277 129.643C147.96 134.392 153.065 141.739 155.6 151.682C178.618 156.002 198.94 171.508 216.57 198.204C183.501 196.686 158.465 200.197 141.459 208.751L144.753 215.839C133.094 225.686 128.076 236.483 129.699 248.223C130.258 257.841 134.862 275.103 143.512 300C156.516 297.807 167.038 295.067 175.076 291.775L156.105 250.701L189.829 273.083L226.979 259.906L208.204 240.441C207.778 239.795 207.881 239.197 208.515 238.647L266.092 243.45L258.938 219.988C278.914 241.54 295.805 253.697 309.613 256.464C321.75 257.942 328.366 258.466 329.459 258.03L315.676 238.506C315.453 237.394 315.622 236.828 316.187 236.804L346.506 250.413L328.231 221.591C327.836 220.913 328.002 220.329 328.726 219.843C342.743 230.631 353.843 237.399 362.036 240.145C369.856 243.442 383.399 244.05 402.664 241.969C402.971 241.619 402.984 241.289 402.698 240.977L306.129 166.399C305.677 166.004 305.621 165.449 305.956 164.734C345.262 174.918 372.485 180.728 387.62 182.172C408.265 184.274 429.061 181.977 449.996 175.275L329.78 124.074C329.244 123.808 329.115 123.25 329.391 122.401C366.928 127.316 395.847 127.887 416.151 124.112C431.442 122.917 459.393 110.913 500 88.1019L499.667 87.2532L339.41 74.4094C338.646 73.9006 338.677 73.2145 339.504 72.3528C367.145 70.2718 388.63 67.5827 403.956 64.2823C413.967 61.99 421.658 59.6163 427.03 57.1662C439.641 51.9165 452.955 41.2253 466.971 25.0925L315.795 26.2534C314.957 25.8583 314.895 25.1755 315.6 24.2065C326.949 20.3696 334.634 17.0188 338.655 14.1509C348.732 6.71779 353.449 2.61753 352.818 1.84853L290.587 0Z" fill="white"/>
</g>
<defs>
<clipPath id="clip0_0_1">
<rect width="1328" height="300" fill="white"/>
</clipPath>
</defs>
</svg>
