<?xml version="1.0" encoding="UTF-8"?>
<svg xmlns="http://www.w3.org/2000/svg" xmlns:xlink="http://www.w3.org/1999/xlink" width="2986" height="2400" viewBox="0 0 2986 2400">

<path fill-rule="evenodd" fill="rgb(37.255859%, 65.039062%, 92.96875%)" fill-opacity="1" d="M 882.609375 1607.59375 C 1041.351562 1690.238281 1115.03125 1685.25 1188.078125 1657.96875 L 1133.660156 1769.554688 C 1034.171875 1746.699219 945.121094 1701.648438 878.683594 1645.484375 L 882.609375 1607.59375 "/>
<path fill-rule="evenodd" fill="rgb(100%, 75.78125%, 49.804688%)" fill-opacity="1" d="M 1206.488281 1689.238281 C 1204.148438 1715.726562 1177.03125 1744.84375 1145.910156 1754.269531 C 1114.789062 1763.699219 1091.460938 1749.867188 1093.800781 1723.378906 C 1096.140625 1696.890625 1123.261719 1667.777344 1154.378906 1658.347656 C 1185.5 1648.921875 1208.828125 1662.753906 1206.488281 1689.238281 "/>
<path fill-rule="evenodd" fill="rgb(100%, 82.421875%, 63.084412%)" fill-opacity="1" d="M 1130.050781 1633.304688 C 1142.238281 1629 1158.46875 1643.511719 1166.308594 1665.710938 C 1174.148438 1687.914062 1170.621094 1709.398438 1158.429688 1713.699219 C 1146.238281 1718.003906 1130.011719 1703.492188 1122.171875 1681.292969 C 1114.339844 1659.089844 1117.859375 1637.605469 1130.050781 1633.304688 "/>
<path fill-rule="evenodd" fill="rgb(100%, 75.78125%, 49.804688%)" fill-opacity="1" d="M 961.757812 1484.03125 L 900.6875 1429.6875 L 774.429688 1571.570312 L 835.5 1625.914062 L 961.757812 1484.03125 "/>
<path fill-rule="evenodd" fill="rgb(100%, 82.421875%, 63.084412%)" fill-opacity="1" d="M 1025.949219 1486.449219 C 1015.558594 1477.199219 999.636719 1478.128906 990.390625 1488.519531 C 981.144531 1498.910156 982.070312 1514.832031 992.464844 1524.078125 C 1002.851562 1533.324219 1018.78125 1532.398438 1028.019531 1522.007812 C 1037.269531 1511.613281 1036.339844 1495.695312 1025.949219 1486.449219 "/>
<path fill-rule="evenodd" fill="rgb(0%, 0%, 0%)" fill-opacity="1" d="M 1070.25 1418.648438 C 1093.730469 1458.664062 1070.058594 1482.742188 1031.058594 1493.730469 L 1013.851562 1484.519531 C 1013.851562 1484.519531 1019.121094 1442.726562 1022.238281 1437.824219 C 1025.351562 1432.925781 1070.25 1418.648438 1070.25 1418.648438 "/>
<path fill-rule="evenodd" fill="rgb(100%, 82.421875%, 63.084412%)" fill-opacity="1" d="M 1023.960938 1371.921875 L 1004.808594 1354.878906 C 969.359375 1323.339844 914.546875 1326.53125 883.003906 1361.980469 L 852.789062 1395.929688 C 821.246094 1431.386719 824.441406 1486.199219 859.890625 1517.746094 L 879.035156 1534.777344 C 914.484375 1566.324219 969.300781 1563.132812 1000.851562 1527.679688 L 1031.050781 1493.730469 C 1062.601562 1458.277344 1059.410156 1403.464844 1023.960938 1371.921875 "/>
<path fill-rule="evenodd" fill="rgb(100%, 100%, 100%)" fill-opacity="1" d="M 864.382812 1559.839844 L 836.703125 1535.207031 C 785.449219 1489.597656 706.195312 1494.21875 660.585938 1545.472656 L 567.867188 1649.664062 C 522.261719 1700.921875 526.878906 1780.175781 578.136719 1825.785156 L 605.816406 1850.414062 C 657.070312 1896.023438 736.324219 1891.40625 781.933594 1840.148438 L 874.648438 1735.957031 C 920.257812 1684.699219 915.640625 1605.449219 864.382812 1559.839844 "/>
<path fill-rule="evenodd" fill="rgb(50.193787%, 50.193787%, 50.193787%)" fill-opacity="1" d="M 562.660156 1655.917969 L 776.328125 1846.050781 C 730.058594 1891.691406 655.03125 1894.210938 605.816406 1850.414062 L 578.136719 1825.785156 C 528.921875 1781.988281 522.703125 1707.179688 562.660156 1655.917969 "/>
<path fill-rule="evenodd" fill="rgb(0%, 0%, 0%)" fill-opacity="1" d="M 955.808594 1358.449219 C 945.40625 1342.320312 924.882812 1342.171875 902.761719 1354.988281 L 898.808594 1357.28125 L 873.929688 1372.179688 L 870.625 1350.441406 C 889.964844 1322.351562 903.085938 1298.660156 935.242188 1282.660156 C 978.175781 1261.300781 1016.21875 1284.351562 1068.960938 1331.28125 L 1078.019531 1316.128906 C 1150.121094 1468.367188 1043.828125 1494.972656 955.808594 1358.449219 "/>
<path fill-rule="evenodd" fill="rgb(100%, 82.421875%, 63.084412%)" fill-opacity="1" d="M 876.96875 1353.878906 C 866.578125 1344.628906 850.65625 1345.558594 841.410156 1355.949219 C 832.164062 1366.339844 833.089844 1382.261719 843.484375 1391.511719 C 853.875 1400.753906 869.796875 1399.828125 879.039062 1389.441406 C 888.289062 1379.039062 887.359375 1363.121094 876.96875 1353.878906 "/>
<path fill-rule="evenodd" fill="rgb(37.255859%, 65.039062%, 92.96875%)" fill-opacity="1" d="M 776.328125 1846.050781 L 700.03125 1778.15625 L 835.5 1625.914062 L 879.738281 1576.203125 C 916.042969 1622.714844 915.191406 1690.398438 874.648438 1735.957031 L 781.929688 1840.148438 C 780.117188 1842.191406 778.246094 1844.15625 776.328125 1846.050781 "/>
<path fill-rule="evenodd" fill="rgb(37.255859%, 65.039062%, 92.96875%)" fill-opacity="1" d="M 774.429688 1571.570312 L 638.960938 1723.8125 L 562.660156 1655.917969 C 564.316406 1653.792969 566.054688 1651.707031 567.871094 1649.667969 L 660.585938 1545.472656 C 701.128906 1499.914062 768.253906 1491.203125 818.664062 1521.859375 L 774.429688 1571.570312 "/>
<path fill-rule="evenodd" fill="rgb(20.776367%, 38.818359%, 56.834412%)" fill-opacity="1" d="M 850.542969 1547.523438 L 830.828125 1508.191406 L 802.523438 1513.605469 L 816.203125 1565.644531 L 850.542969 1547.523438 "/>
<path fill-rule="evenodd" fill="rgb(20.776367%, 38.818359%, 56.834412%)" fill-opacity="1" d="M 850.542969 1547.523438 L 891.898438 1562.535156 L 889.8125 1591.273438 L 836.53125 1583.730469 L 850.542969 1547.523438 "/>
<path fill-rule="evenodd" fill="rgb(0%, 0%, 0%)" fill-opacity="1" d="M 702.4375 1713.960938 C 698.371094 1710.339844 698.007812 1704.109375 701.628906 1700.039062 C 705.246094 1695.96875 711.480469 1695.609375 715.550781 1699.226562 C 719.621094 1702.847656 719.980469 1709.078125 716.363281 1713.148438 C 712.742188 1717.21875 706.507812 1717.582031 702.4375 1713.960938 "/>
<path fill-rule="evenodd" fill="rgb(0%, 0%, 0%)" fill-opacity="1" d="M 746.597656 1664.335938 C 742.53125 1660.71875 742.167969 1654.484375 745.785156 1650.414062 C 749.40625 1646.347656 755.640625 1645.984375 759.707031 1649.605469 C 763.777344 1653.222656 764.140625 1659.457031 760.519531 1663.523438 C 756.898438 1667.59375 750.667969 1667.957031 746.597656 1664.335938 "/>
<path fill-rule="evenodd" fill="rgb(0%, 0%, 0%)" fill-opacity="1" d="M 792.246094 1613.035156 C 788.175781 1609.414062 787.816406 1603.183594 791.433594 1599.117188 C 795.054688 1595.046875 801.289062 1594.683594 805.355469 1598.304688 C 809.425781 1601.925781 809.789062 1608.15625 806.167969 1612.226562 C 802.546875 1616.292969 796.316406 1616.65625 792.246094 1613.035156 "/>
<path fill-rule="evenodd" fill="rgb(0%, 0%, 0%)" fill-opacity="1" d="M 794.308594 1826.238281 L 580.445312 1635.933594 L 562.660156 1655.917969 L 776.527344 1846.226562 L 794.308594 1826.238281 "/>
<path fill-rule="evenodd" fill="rgb(80.076599%, 80.076599%, 80.076599%)" fill-opacity="1" d="M 708.011719 1747.222656 L 668.949219 1712.464844 L 648.957031 1734.933594 L 688.019531 1769.691406 L 708.011719 1747.222656 "/>
<path fill-rule="evenodd" fill="rgb(50.193787%, 50.193787%, 50.193787%)" fill-opacity="1" d="M 748.882812 1783.589844 L 742.515625 1777.925781 L 722.519531 1800.394531 L 728.890625 1806.0625 L 748.882812 1783.589844 "/>
<path fill-rule="evenodd" fill="rgb(50.193787%, 50.193787%, 50.193787%)" fill-opacity="1" d="M 780.554688 1811.773438 L 774.1875 1806.109375 L 754.191406 1828.578125 L 760.5625 1834.242188 L 780.554688 1811.773438 "/>
<path fill-rule="evenodd" fill="rgb(50.193787%, 50.193787%, 50.193787%)" fill-opacity="1" d="M 635.273438 1682.496094 L 628.90625 1676.832031 L 608.914062 1699.300781 L 615.28125 1704.96875 L 635.273438 1682.496094 "/>
<path fill-rule="evenodd" fill="rgb(50.193787%, 50.193787%, 50.193787%)" fill-opacity="1" d="M 603.503906 1654.226562 L 597.140625 1648.5625 L 577.144531 1671.03125 L 583.511719 1676.695312 L 603.503906 1654.226562 "/>
<path fill-rule="evenodd" fill="rgb(100%, 75.78125%, 49.804688%)" fill-opacity="1" d="M 945.945312 1463.703125 C 944.308594 1462.886719 942.601562 1462.347656 940.882812 1462.0625 C 947.351562 1467.296875 949.550781 1476.488281 945.683594 1484.238281 C 942.210938 1491.191406 934.882812 1494.9375 927.585938 1494.179688 C 928.339844 1494.71875 929.148438 1495.210938 930.007812 1495.636719 C 938.824219 1500.039062 949.542969 1496.460938 953.945312 1487.640625 C 958.34375 1478.820312 954.765625 1468.105469 945.945312 1463.703125 "/>
<path fill-rule="evenodd" fill="rgb(37.255859%, 65.039062%, 92.96875%)" fill-opacity="1" d="M 707.828125 1514.730469 C 776.671875 1326.609375 1003.890625 1180.230469 992.117188 1180.148438 L 1049.988281 1319.75 C 1002.019531 1335.898438 822.171875 1403.429688 770.882812 1507.652344 L 707.828125 1514.730469 "/>
<path fill-rule="evenodd" fill="rgb(100%, 75.78125%, 49.804688%)" fill-opacity="1" d="M 1058.660156 1179.261719 C 1082.289062 1203.691406 1087.710938 1254.261719 1070.78125 1292.210938 C 1053.839844 1330.160156 1020.949219 1341.121094 997.320312 1316.691406 C 973.691406 1292.261719 968.269531 1241.691406 985.207031 1203.738281 C 1002.148438 1165.789062 1035.03125 1154.828125 1058.660156 1179.261719 "/>
<path fill-rule="evenodd" fill="rgb(100%, 82.421875%, 63.084412%)" fill-opacity="1" d="M 985.050781 1137.308594 C 1003.011719 1132.851562 1024.140625 1155.75 1032.261719 1188.460938 C 1040.378906 1221.171875 1032.410156 1251.289062 1014.449219 1255.75 C 996.496094 1260.210938 975.359375 1237.308594 967.238281 1204.601562 C 959.117188 1171.898438 967.09375 1141.769531 985.050781 1137.308594 "/>
<path fill-rule="evenodd" fill="rgb(100%, 82.421875%, 63.084412%)" fill-opacity="1" d="M 1120.640625 1153.300781 C 1148.609375 1186.03125 1151.53125 1250.390625 1127.160156 1297.050781 C 1102.78125 1343.710938 1060.351562 1355.011719 1032.378906 1322.28125 C 1004.410156 1289.550781 1001.488281 1225.191406 1025.859375 1178.53125 C 1050.238281 1131.871094 1092.671875 1120.570312 1120.640625 1153.300781 "/>
<path fill-rule="evenodd" fill="rgb(100%, 59.959412%, 80.076599%)" fill-opacity="1" d="M 1425.421875 1409.800781 C 1380.378906 1369.179688 1282.488281 1404.308594 1206.789062 1488.257812 C 1131.078125 1572.207031 1106.230469 1673.1875 1151.269531 1713.808594 C 1196.308594 1754.425781 1294.199219 1719.300781 1369.898438 1635.351562 C 1445.609375 1551.398438 1470.460938 1450.417969 1425.421875 1409.800781 "/>
<path fill-rule="evenodd" fill="rgb(100%, 59.959412%, 80.076599%)" fill-opacity="1" d="M 1927.808594 1543.765625 C 1986.238281 1560.050781 2008.988281 1661.527344 1978.640625 1770.417969 C 1948.289062 1879.308594 1876.320312 1954.382812 1817.890625 1938.09375 C 1759.46875 1921.808594 1736.710938 1820.332031 1767.058594 1711.441406 C 1797.421875 1602.550781 1869.378906 1527.480469 1927.808594 1543.765625 "/>
<path fill-rule="evenodd" fill="rgb(100%, 80.076599%, 90.234375%)" fill-opacity="1" d="M 2326.621094 1453.632812 L 2296.710938 1414.035156 L 2263.46875 1421.847656 L 2236.03125 1465.097656 L 2337.898438 1509.855469 L 2337.898438 1509.851562 C 2343.691406 1515.445312 2350.890625 1519.730469 2359.171875 1522.078125 C 2379.988281 1527.984375 2401.46875 1519.898438 2413.570312 1503.429688 L 2413.570312 1503.433594 L 2413.578125 1503.417969 C 2416.660156 1499.214844 2419.140625 1494.46875 2420.828125 1489.269531 L 2465.628906 1401.941406 L 2420.199219 1456.054688 C 2414.789062 1441.5 2402.761719 1429.628906 2386.679688 1425.070312 C 2362.03125 1418.078125 2336.460938 1430.699219 2326.621094 1453.632812 Z M 2381.710938 1447.191406 C 2395.851562 1451.203125 2404.058594 1465.914062 2400.050781 1480.054688 C 2396.039062 1494.199219 2381.328125 1502.410156 2367.191406 1498.402344 C 2353.039062 1494.390625 2344.828125 1479.679688 2348.839844 1465.535156 C 2352.851562 1451.394531 2367.558594 1443.183594 2381.710938 1447.191406 "/>
<path fill-rule="evenodd" fill="rgb(100%, 59.959412%, 80.076599%)" fill-opacity="1" d="M 1472.171875 936.570312 C 1453.429688 937.148438 1434.871094 942.808594 1417.601562 952.679688 C 1418.371094 948.671875 1419.261719 944.640625 1420.269531 940.601562 C 1437.039062 873.5 1482.691406 823.699219 1533.550781 809.949219 C 1533.628906 809.988281 1533.710938 810.03125 1533.789062 810.070312 C 1567.148438 841.480469 1584.199219 895.058594 1577.019531 952.621094 C 1526.628906 930.5 1472.171875 936.570312 1472.171875 936.570312 "/>
<path fill-rule="evenodd" fill="rgb(100%, 80.076599%, 90.234375%)" fill-opacity="1" d="M 1862.871094 919.628906 C 2171.011719 1007.011719 2362.820312 1282.320312 2291.300781 1534.578125 C 2219.769531 1786.828125 1912 1920.488281 1603.859375 1833.117188 C 1295.71875 1745.746094 1103.898438 1470.425781 1175.429688 1218.179688 C 1246.949219 965.921875 1554.730469 832.261719 1862.871094 919.628906 "/>
<path fill-rule="evenodd" fill="rgb(100%, 80.076599%, 90.234375%)" fill-opacity="1" d="M 2005.449219 1575.355469 C 2065.109375 1564.421875 2129.988281 1645.699219 2150.359375 1756.890625 C 2170.730469 1868.082031 2138.878906 1967.082031 2079.21875 1978.015625 C 2019.558594 1988.945312 1954.691406 1907.667969 1934.308594 1796.476562 C 1913.941406 1685.285156 1945.789062 1586.285156 2005.449219 1575.355469 "/>
<path fill-rule="evenodd" fill="rgb(100%, 80.076599%, 90.234375%)" fill-opacity="1" d="M 1463.609375 1452.773438 C 1407.839844 1428.9375 1326.621094 1493.890625 1282.199219 1597.839844 C 1237.78125 1701.789062 1246.988281 1805.378906 1302.761719 1829.210938 C 1358.539062 1853.042969 1439.761719 1788.09375 1484.179688 1684.144531 C 1528.589844 1580.191406 1519.390625 1476.605469 1463.609375 1452.773438 "/>
<path fill-rule="evenodd" fill="rgb(100%, 70.896912%, 85.546875%)" fill-opacity="1" d="M 1292.980469 1117.941406 C 1362.859375 1137.761719 1398.648438 1227.398438 1372.910156 1318.171875 C 1347.179688 1408.9375 1269.660156 1466.460938 1199.78125 1446.644531 L 1130.761719 1427.074219 L 1141.851562 1387.980469 L 1136.730469 1386.53125 L 1141.300781 1370.421875 C 1129.660156 1335.761719 1107.96875 1288.308594 1119.851562 1246.421875 C 1131.730469 1204.519531 1175.101562 1175.519531 1203.199219 1152.121094 L 1218.851562 1096.921875 L 1292.980469 1117.941406 "/>
<path fill-rule="evenodd" fill="rgb(100%, 80.076599%, 90.234375%)" fill-opacity="1" d="M 1218.851562 1096.921875 C 1288.730469 1116.738281 1324.519531 1206.378906 1298.78125 1297.148438 C 1273.039062 1387.921875 1195.53125 1445.4375 1125.648438 1425.625 C 1055.769531 1405.808594 1019.980469 1316.160156 1045.71875 1225.398438 C 1071.449219 1134.628906 1148.96875 1077.109375 1218.851562 1096.921875 "/>
<path fill-rule="evenodd" fill="rgb(100%, 70.896912%, 85.546875%)" fill-opacity="1" d="M 1135.378906 1196.519531 C 1142.308594 1198.488281 1141.25 1223.660156 1133 1252.75 C 1124.761719 1281.828125 1112.449219 1303.808594 1105.511719 1301.851562 C 1098.578125 1299.878906 1099.640625 1274.710938 1107.890625 1245.621094 C 1116.140625 1216.539062 1128.441406 1194.558594 1135.378906 1196.519531 "/>
<path fill-rule="evenodd" fill="rgb(100%, 70.896912%, 85.546875%)" fill-opacity="1" d="M 1201.199219 1215.191406 C 1208.140625 1217.148438 1207.070312 1242.328125 1198.828125 1271.410156 C 1190.578125 1300.488281 1178.269531 1322.480469 1171.339844 1320.511719 C 1164.398438 1318.539062 1165.46875 1293.371094 1173.710938 1264.289062 C 1181.960938 1235.199219 1194.269531 1213.21875 1201.199219 1215.191406 "/>
<path fill-rule="evenodd" fill="rgb(0%, 0%, 0%)" fill-opacity="1" d="M 1526.109375 1124.859375 C 1544.320312 1130.03125 1554.890625 1148.96875 1549.730469 1167.171875 C 1544.570312 1185.371094 1525.628906 1195.941406 1507.421875 1190.78125 C 1489.21875 1185.621094 1478.648438 1166.679688 1483.808594 1148.480469 C 1488.96875 1130.28125 1507.910156 1119.699219 1526.109375 1124.859375 "/>
<path fill-rule="evenodd" fill="rgb(0%, 0%, 0%)" fill-opacity="1" d="M 1355.328125 1027.828125 C 1373.53125 1032.988281 1384.101562 1051.929688 1378.941406 1070.128906 C 1373.78125 1088.339844 1354.839844 1098.910156 1336.640625 1093.75 C 1318.429688 1088.589844 1307.859375 1069.648438 1313.019531 1051.441406 C 1318.179688 1033.238281 1337.121094 1022.671875 1355.328125 1027.828125 "/>
<path fill-rule="evenodd" fill="rgb(100%, 59.959412%, 80.076599%)" fill-opacity="1" d="M 1698.160156 1035.300781 C 1714.011719 1050.871094 1725.601562 1070.71875 1732.691406 1093.199219 C 1735.25 1089.089844 1737.71875 1084.871094 1740.089844 1080.550781 C 1779.449219 1008.671875 1779.769531 928.621094 1746.570312 875.761719 C 1746.46875 875.730469 1746.359375 875.699219 1746.261719 875.679688 C 1691.980469 876.179688 1634.050781 909.101562 1594.019531 964.960938 C 1655.648438 986.230469 1698.171875 1035.300781 1698.171875 1035.300781 L 1698.160156 1035.300781 "/>
<path fill-rule="evenodd" fill="rgb(100%, 80.076599%, 90.234375%)" fill-opacity="1" d="M 1622.011719 894.859375 C 1594.230469 838.300781 1533.550781 809.941406 1533.550781 809.941406 L 1533.789062 810.070312 C 1556.640625 831.589844 1571.839844 863.519531 1576.839844 900.011719 C 1591.699219 897.769531 1606.769531 896.050781 1622.011719 894.859375 "/>
<path fill-rule="evenodd" fill="rgb(100%, 59.959412%, 80.076599%)" fill-opacity="1" d="M 1909.511719 961.429688 C 1870.480469 946.949219 1831.648438 936.199219 1794.039062 929.03125 L 1779.21875 969.011719 C 1816.820312 976.179688 1855.648438 986.929688 1894.679688 1001.410156 C 1946.128906 1020.488281 1993.101562 1044.261719 2034.011719 1070.921875 L 2048.839844 1030.929688 C 2007.929688 1004.28125 1960.960938 980.511719 1909.511719 961.429688 "/>
<path fill-rule="evenodd" fill="rgb(100%, 80.076599%, 90.234375%)" fill-opacity="1" d="M 1732.691406 1093.199219 L 1815.5 1054.988281 C 1827.359375 929.808594 1746.570312 875.761719 1746.570312 875.761719 C 1779.769531 928.621094 1760.078125 1044.039062 1740.089844 1080.550781 C 1720.089844 1117.050781 1733.328125 1092.070312 1732.691406 1093.199219 "/>
<path fill-rule="evenodd" fill="rgb(50.193787%, 50.193787%, 50.193787%)" fill-opacity="1" d="M 665.449219 1791.269531 C 808.542969 1932.164062 836.835938 1896.609375 809.859375 2093.402344 L 675.121094 2160.800781 C 756.964844 1998.527344 732.375 1972.546875 616.121094 1791.574219 L 665.449219 1791.269531 "/>
<path fill-rule="evenodd" fill="rgb(50.193787%, 50.193787%, 50.193787%)" fill-opacity="1" d="M 608.082031 1797.757812 C 486.566406 1924.171875 394.398438 2038.796875 396.589844 2137.363281 L 207.144531 2147.992188 C 258.625 2054.308594 369.925781 1931.484375 564.628906 1787.304688 L 608.082031 1797.757812 "/>
<path fill-rule="evenodd" fill="rgb(0%, 0%, 0%)" fill-opacity="1" d="M 293.851562 2074.648438 C 233.027344 2074.273438 183.507812 2108.34375 183.246094 2150.753906 C 182.777344 2226.386719 403.046875 2227.75 403.511719 2152.113281 C 403.773438 2109.707031 354.679688 2075.023438 293.851562 2074.648438 "/>
<path fill-rule="evenodd" fill="rgb(0%, 0%, 0%)" fill-opacity="1" d="M 775.054688 2084.464844 C 831.253906 2088.441406 874.570312 2123.425781 871.800781 2162.609375 C 866.855469 2232.496094 663.332031 2218.105469 668.273438 2148.21875 C 671.042969 2109.035156 718.851562 2080.492188 775.054688 2084.464844 "/>
<path fill-rule="evenodd" fill="rgb(51.367188%, 74.021912%, 96.875%)" fill-opacity="1" d="M 2437.890625 1548.191406 C 2367.480469 1383.660156 2307.328125 1340.820312 2233.53125 1315.621094 L 2346.351562 1263.800781 C 2408.820312 1344.539062 2449.140625 1435.820312 2464.941406 1521.371094 L 2437.890625 1548.191406 "/>
<path fill-rule="evenodd" fill="rgb(100%, 75.78125%, 49.804688%)" fill-opacity="1" d="M 2309.46875 1216.511719 C 2284.03125 1224.25 2261.109375 1256.769531 2258.289062 1289.171875 C 2255.460938 1321.558594 2273.789062 1341.550781 2299.230469 1333.808594 C 2324.671875 1326.078125 2347.589844 1293.550781 2350.421875 1261.148438 C 2353.238281 1228.769531 2334.910156 1208.78125 2309.46875 1216.511719 "/>
<path fill-rule="evenodd" fill="rgb(100%, 82.421875%, 63.084412%)" fill-opacity="1" d="M 2276.941406 1175.21875 C 2245.378906 1186.980469 2218.929688 1229.890625 2217.878906 1271.058594 C 2216.828125 1312.238281 2241.558594 1336.078125 2273.128906 1324.320312 C 2304.691406 1312.558594 2331.128906 1269.648438 2332.179688 1228.46875 C 2333.238281 1187.300781 2308.5 1163.449219 2276.941406 1175.21875 "/>
<path fill-rule="evenodd" fill="rgb(100%, 75.78125%, 49.804688%)" fill-opacity="1" d="M 2263.28125 1665.488281 C 2267.730469 1688.519531 2251.808594 1719.800781 2227.710938 1735.359375 C 2203.609375 1750.921875 2180.460938 1744.863281 2176.011719 1721.828125 C 2171.558594 1698.800781 2187.480469 1667.515625 2211.578125 1651.957031 C 2235.679688 1636.398438 2258.820312 1642.453125 2263.28125 1665.488281 "/>
<path fill-rule="evenodd" fill="rgb(100%, 75.78125%, 49.804688%)" fill-opacity="1" d="M 2582.679688 1402.648438 L 2649.148438 1450.234375 L 2538.589844 1604.667969 L 2472.121094 1557.078125 L 2582.679688 1402.648438 "/>
<path fill-rule="evenodd" fill="rgb(100%, 82.421875%, 63.084412%)" fill-opacity="1" d="M 2566.171875 1340.570312 C 2577.480469 1348.660156 2580.078125 1364.398438 2571.988281 1375.710938 C 2563.890625 1387.019531 2548.160156 1389.621094 2536.851562 1381.53125 C 2525.539062 1373.429688 2522.929688 1357.699219 2531.03125 1346.390625 C 2539.128906 1335.078125 2554.859375 1332.46875 2566.171875 1340.570312 "/>
<path fill-rule="evenodd" fill="rgb(0%, 0%, 0%)" fill-opacity="1" d="M 2622.539062 1282.410156 C 2578.328125 1268.320312 2560.058594 1296.71875 2557.941406 1337.191406 L 2570.71875 1351.949219 C 2570.71875 1351.949219 2610.320312 1337.589844 2614.410156 1333.46875 C 2618.511719 1329.351562 2622.53125 1282.410156 2622.539062 1282.410156 "/>
<path fill-rule="evenodd" fill="rgb(100%, 82.421875%, 63.084412%)" fill-opacity="1" d="M 2678.320312 1317.261719 L 2699.160156 1332.179688 C 2737.738281 1359.800781 2746.710938 1413.972656 2719.089844 1452.558594 L 2692.628906 1489.511719 C 2665.011719 1528.097656 2610.839844 1537.0625 2572.25 1509.441406 L 2551.421875 1494.523438 C 2512.828125 1466.898438 2503.859375 1412.730469 2531.488281 1374.140625 L 2557.941406 1337.191406 C 2585.570312 1298.609375 2639.730469 1289.640625 2678.320312 1317.261719 "/>
<path fill-rule="evenodd" fill="rgb(100%, 100%, 100%)" fill-opacity="1" d="M 2530.199219 1514.339844 L 2560.328125 1535.90625 C 2616.121094 1575.847656 2629.078125 1654.167969 2589.148438 1709.953125 L 2507.960938 1823.359375 C 2468.019531 1879.148438 2389.699219 1892.113281 2333.910156 1852.175781 L 2303.789062 1830.605469 C 2248 1790.667969 2235.03125 1712.347656 2274.96875 1656.558594 L 2356.160156 1543.152344 C 2396.101562 1487.367188 2474.421875 1474.398438 2530.199219 1514.339844 "/>
<path fill-rule="evenodd" fill="rgb(19.993591%, 19.993591%, 19.993591%)" fill-opacity="1" d="M 2503.011719 1829.820312 L 2270.449219 1663.324219 C 2236.128906 1718.523438 2250.21875 1792.257812 2303.78125 1830.605469 L 2333.910156 1852.175781 C 2387.480469 1890.523438 2461.820312 1880.09375 2503.011719 1829.820312 "/>
<path fill-rule="evenodd" fill="rgb(0%, 0%, 0%)" fill-opacity="1" d="M 2706.480469 1380.761719 C 2724.511719 1387.351562 2729.179688 1407.339844 2721.550781 1431.742188 L 2720.191406 1436.105469 L 2711.148438 1463.65625 L 2733.070312 1462.089844 C 2756.210938 1437.03125 2776.429688 1419.007812 2784.941406 1384.109375 C 2796.308594 1337.53125 2765.441406 1305.511719 2708.039062 1264.410156 L 2720.820312 1252.230469 C 2556.429688 1215.46875 2553.910156 1325.011719 2706.480469 1380.761719 "/>
<path fill-rule="evenodd" fill="rgb(100%, 82.421875%, 63.084412%)" fill-opacity="1" d="M 2728.320312 1456.65625 C 2739.640625 1464.753906 2742.238281 1480.484375 2734.140625 1491.796875 C 2726.050781 1503.105469 2710.308594 1505.710938 2699 1497.613281 C 2687.691406 1489.515625 2685.089844 1473.785156 2693.179688 1462.472656 C 2701.28125 1451.164062 2717.011719 1448.558594 2728.320312 1456.65625 "/>
<path fill-rule="evenodd" fill="rgb(51.367188%, 74.021912%, 96.875%)" fill-opacity="1" d="M 2270.449219 1663.324219 L 2353.5 1722.777344 L 2472.121094 1557.078125 L 2510.859375 1502.972656 C 2457.488281 1477.8125 2391.660156 1493.566406 2356.160156 1543.152344 L 2274.96875 1656.558594 C 2273.378906 1658.78125 2271.871094 1661.035156 2270.449219 1663.324219 "/>
<path fill-rule="evenodd" fill="rgb(51.367188%, 74.021912%, 96.875%)" fill-opacity="1" d="M 2538.589844 1604.667969 L 2419.96875 1770.367188 L 2503.011719 1829.820312 C 2504.71875 1827.734375 2506.371094 1825.578125 2507.960938 1823.359375 L 2589.148438 1709.953125 C 2624.648438 1660.367188 2618.351562 1592.972656 2577.328125 1550.558594 L 2538.589844 1604.667969 "/>
<path fill-rule="evenodd" fill="rgb(20.776367%, 38.818359%, 56.834412%)" fill-opacity="1" d="M 2545.269531 1525.125 L 2587.980469 1535.683594 L 2588.941406 1564.480469 L 2535.160156 1562.609375 L 2545.269531 1525.125 "/>
<path fill-rule="evenodd" fill="rgb(20.776367%, 38.818359%, 56.834412%)" fill-opacity="1" d="M 2545.269531 1525.125 L 2521.511719 1488.09375 L 2493.941406 1496.46875 L 2513.039062 1546.773438 L 2545.269531 1525.125 "/>
<path fill-rule="evenodd" fill="rgb(0%, 0%, 0%)" fill-opacity="1" d="M 2415.578125 1706.277344 C 2420.011719 1709.445312 2426.160156 1708.425781 2429.339844 1703.996094 C 2432.511719 1699.570312 2431.488281 1693.410156 2427.058594 1690.238281 C 2422.628906 1687.070312 2416.46875 1688.089844 2413.300781 1692.515625 C 2410.128906 1696.945312 2411.148438 1703.105469 2415.578125 1706.277344 "/>
<path fill-rule="evenodd" fill="rgb(0%, 0%, 0%)" fill-opacity="1" d="M 2454.25 1652.265625 C 2458.671875 1655.433594 2464.828125 1654.414062 2468 1649.984375 C 2471.171875 1645.558594 2470.148438 1639.398438 2465.730469 1636.226562 C 2461.300781 1633.058594 2455.140625 1634.078125 2451.96875 1638.507812 C 2448.800781 1642.933594 2449.820312 1649.09375 2454.25 1652.265625 "/>
<path fill-rule="evenodd" fill="rgb(0%, 0%, 0%)" fill-opacity="1" d="M 2494.21875 1596.429688 C 2498.648438 1599.601562 2504.808594 1598.578125 2507.980469 1594.152344 C 2511.148438 1589.722656 2510.128906 1583.5625 2505.699219 1580.394531 C 2501.269531 1577.222656 2495.109375 1578.242188 2491.941406 1582.671875 C 2488.769531 1587.101562 2489.789062 1593.257812 2494.21875 1596.429688 "/>
<path fill-rule="evenodd" fill="rgb(0%, 0%, 0%)" fill-opacity="1" d="M 2285.808594 1641.421875 L 2518.578125 1808.066406 L 2503.011719 1829.820312 L 2270.238281 1663.171875 L 2285.808594 1641.421875 "/>
<path fill-rule="evenodd" fill="rgb(80.076599%, 80.076599%, 80.076599%)" fill-opacity="1" d="M 2381.898438 1708.171875 L 2424.421875 1738.609375 L 2406.910156 1763.066406 L 2364.398438 1732.628906 L 2381.898438 1708.171875 "/>
<path fill-rule="evenodd" fill="rgb(50.193787%, 50.193787%, 50.193787%)" fill-opacity="1" d="M 2337.421875 1676.328125 L 2344.351562 1681.289062 L 2326.839844 1705.746094 L 2319.910156 1700.78125 L 2337.421875 1676.328125 "/>
<path fill-rule="evenodd" fill="rgb(50.193787%, 50.193787%, 50.193787%)" fill-opacity="1" d="M 2302.949219 1651.648438 L 2309.878906 1656.609375 L 2292.371094 1681.066406 L 2285.441406 1676.101562 L 2302.949219 1651.648438 "/>
<path fill-rule="evenodd" fill="rgb(50.193787%, 50.193787%, 50.193787%)" fill-opacity="1" d="M 2461.070312 1764.851562 L 2468 1769.8125 L 2450.5 1794.269531 L 2443.570312 1789.308594 L 2461.070312 1764.851562 "/>
<path fill-rule="evenodd" fill="rgb(50.193787%, 50.193787%, 50.193787%)" fill-opacity="1" d="M 2495.648438 1789.609375 L 2502.578125 1794.566406 L 2485.078125 1819.023438 L 2478.148438 1814.0625 L 2495.648438 1789.609375 "/>
<path fill-rule="evenodd" fill="rgb(100%, 75.78125%, 49.804688%)" fill-opacity="1" d="M 2605.988281 1413.589844 C 2607.148438 1415.007812 2608.050781 1416.550781 2608.710938 1418.164062 C 2602.179688 1413.011719 2592.730469 1412.890625 2586.019531 1418.371094 C 2580.011719 1423.289062 2577.96875 1431.265625 2580.320312 1438.21875 C 2579.621094 1437.597656 2578.96875 1436.917969 2578.359375 1436.175781 C 2572.121094 1428.546875 2573.25 1417.300781 2580.878906 1411.0625 C 2588.511719 1404.828125 2599.75 1405.957031 2605.988281 1413.589844 "/>
<path fill-rule="evenodd" fill="rgb(51.367188%, 74.021912%, 96.875%)" fill-opacity="1" d="M 2569.691406 1663.289062 C 2436.070312 1763.253906 2210.929688 1762.039062 2219.101562 1767.453125 L 2242.21875 1643.710938 C 2283.039062 1654.261719 2439.269531 1688.945312 2522.46875 1639.542969 L 2569.691406 1663.289062 "/>
<path fill-rule="evenodd" fill="rgb(19.993591%, 19.993591%, 19.993591%)" fill-opacity="1" d="M 2371.878906 1827.617188 C 2358.828125 2028.011719 2314.050781 2020.304688 2465.148438 2149.238281 L 2610.570312 2109.878906 C 2441.5 2043.222656 2442.558594 2007.464844 2408.898438 1795.019531 L 2371.878906 1827.617188 "/>
<path fill-rule="evenodd" fill="rgb(19.993591%, 19.993591%, 19.993591%)" fill-opacity="1" d="M 2317.390625 1793.246094 C 2195.691406 1919.484375 2103.359375 2033.976562 2105.410156 2132.546875 L 1915.949219 2142.902344 C 1967.558594 2049.292969 2079.039062 1926.628906 2273.949219 1782.730469 L 2317.390625 1793.246094 "/>
<path fill-rule="evenodd" fill="rgb(0%, 0%, 0%)" fill-opacity="1" d="M 2002.761719 2069.683594 C 1941.941406 2069.222656 1892.371094 2103.222656 1892.039062 2145.628906 C 1891.46875 2221.265625 2111.730469 2222.941406 2112.308594 2147.304688 C 2112.628906 2104.898438 2063.578125 2070.148438 2002.761719 2069.683594 "/>
<path fill-rule="evenodd" fill="rgb(0%, 0%, 0%)" fill-opacity="1" d="M 2522.839844 2086.914062 C 2467.960938 2099.671875 2430.679688 2141.03125 2439.570312 2179.289062 C 2455.441406 2247.535156 2654.171875 2201.335938 2638.308594 2133.09375 C 2629.421875 2094.832031 2577.71875 2074.15625 2522.839844 2086.914062 "/>
<path fill-rule="evenodd" fill="rgb(100%, 82.421875%, 63.084412%)" fill-opacity="1" d="M 2284.828125 1614.585938 C 2292.691406 1624.652344 2284.191406 1644.414062 2265.851562 1658.71875 C 2247.511719 1673.023438 2226.28125 1676.460938 2218.421875 1666.390625 C 2210.570312 1656.320312 2219.070312 1636.5625 2237.410156 1622.257812 C 2255.738281 1607.953125 2276.980469 1604.515625 2284.828125 1614.585938 "/>
<path fill-rule="evenodd" fill="rgb(100%, 82.421875%, 63.084412%)" fill-opacity="1" d="M 2290.691406 1680.09375 C 2294.53125 1709.5625 2271.960938 1747.871094 2240.28125 1765.664062 C 2208.601562 1783.460938 2179.808594 1773.996094 2175.96875 1744.53125 C 2172.128906 1715.066406 2194.699219 1676.753906 2226.378906 1658.960938 C 2258.058594 1641.164062 2286.859375 1650.625 2290.691406 1680.09375 "/>
<path fill-rule="evenodd" fill="rgb(100%, 82.421875%, 63.084412%)" fill-opacity="1" d="M 2353.621094 1226.21875 C 2345.699219 1214.109375 2321.390625 1216 2299.328125 1230.441406 C 2277.269531 1244.878906 2265.808594 1266.398438 2273.738281 1278.519531 C 2281.671875 1290.628906 2305.980469 1288.738281 2328.039062 1274.300781 C 2350.101562 1259.859375 2361.550781 1238.328125 2353.621094 1226.21875 "/>
<path fill-rule="evenodd" fill="rgb(100%, 82.421875%, 63.084412%)" fill-opacity="1" d="M 1253.589844 1712.589844 C 1248.570312 1745.894531 1212.011719 1780.59375 1171.929688 1790.089844 C 1131.851562 1799.585938 1103.429688 1780.28125 1108.449219 1746.972656 C 1113.46875 1713.667969 1150.039062 1678.96875 1190.109375 1669.472656 C 1230.191406 1659.976562 1258.609375 1679.28125 1253.589844 1712.589844 "/>
<path fill-rule="evenodd" fill="rgb(96.09375%, 72.068787%, 0%)" fill-opacity="1" d="M 2164.308594 495.421875 C 2166.5 494.871094 2168.648438 494.21875 2170.75 493.5 L 2170.761719 493.511719 L 2171.070312 493.390625 C 2172.648438 492.851562 2174.199219 492.25 2175.71875 491.621094 L 2208.070312 479.289062 L 2204.871094 471.050781 C 2232.550781 440.96875 2241.710938 389.671875 2224.671875 337.289062 C 2205.421875 278.070312 2158.609375 235.679688 2111.148438 229.601562 L 2107.621094 220.511719 L 2080.410156 230.96875 C 2079.769531 231.121094 2079.109375 231.269531 2078.46875 231.429688 C 2071.320312 233.238281 2064.640625 235.941406 2058.46875 239.410156 C 2015.441406 263.660156 1997.371094 325.808594 2018.101562 389.570312 C 2041.808594 462.46875 2107.261719 509.859375 2164.308594 495.421875 "/>
<path fill-rule="evenodd" fill="rgb(98.826599%, 82.03125%, 30.589294%)" fill-opacity="1" d="M 2193.460938 484.5 C 2250.5 470.070312 2277.53125 399.269531 2253.820312 326.371094 C 2230.121094 253.46875 2164.660156 206.070312 2107.621094 220.511719 C 2050.578125 234.941406 2023.550781 305.738281 2047.25 378.640625 C 2070.960938 451.550781 2136.410156 498.941406 2193.460938 484.5 "/>
<path fill-rule="evenodd" fill="rgb(100%, 91.40625%, 65.818787%)" fill-opacity="1" d="M 2180.679688 445.21875 C 2220.75 435.078125 2239.730469 385.351562 2223.078125 334.148438 C 2206.441406 282.941406 2160.460938 249.648438 2120.390625 259.789062 C 2080.328125 269.929688 2061.339844 319.660156 2077.988281 370.859375 C 2094.640625 422.070312 2140.621094 455.359375 2180.679688 445.21875 "/>
<path fill-rule="evenodd" fill="rgb(96.09375%, 72.068787%, 0%)" fill-opacity="1" d="M 1656.878906 602.648438 C 1658.671875 604.039062 1660.511719 605.328125 1662.371094 606.539062 L 1662.371094 606.550781 L 1662.648438 606.71875 C 1664.058594 607.628906 1665.480469 608.480469 1666.921875 609.289062 L 1696.578125 627.148438 L 1701.089844 619.550781 C 1741.828125 622.769531 1787.859375 598.339844 1818.589844 552.621094 C 1853.320312 500.941406 1857.808594 437.949219 1833.320312 396.828125 L 1838.300781 388.449219 L 1813.28125 373.488281 C 1812.761719 373.070312 1812.25 372.648438 1811.71875 372.238281 C 1805.878906 367.730469 1799.640625 364.140625 1793.101562 361.429688 L 1793.101562 361.421875 L 1793.101562 361.429688 C 1747.480469 342.519531 1687.410156 366.628906 1650.019531 422.28125 C 1607.261719 485.898438 1610.328125 566.660156 1656.878906 602.648438 "/>
<path fill-rule="evenodd" fill="rgb(98.826599%, 82.03125%, 30.589294%)" fill-opacity="1" d="M 1683.460938 618.859375 C 1730.011719 654.851562 1802.410156 632.449219 1845.160156 568.828125 C 1887.921875 505.199219 1884.839844 424.441406 1838.300781 388.449219 C 1791.75 352.460938 1719.351562 374.859375 1676.589844 438.480469 C 1633.839844 502.109375 1636.910156 582.871094 1683.460938 618.859375 "/>
<path fill-rule="evenodd" fill="rgb(100%, 91.40625%, 65.818787%)" fill-opacity="1" d="M 1706.5 584.570312 C 1739.199219 609.851562 1790.050781 594.121094 1820.078125 549.429688 C 1850.109375 504.738281 1847.949219 448.019531 1815.261719 422.738281 C 1782.558594 397.460938 1731.710938 413.191406 1701.679688 457.878906 C 1671.648438 502.570312 1673.800781 559.289062 1706.5 584.570312 "/>
<path fill-rule="evenodd" fill="rgb(90.234375%, 74.021912%, 25.097656%)" fill-opacity="1" d="M 2178 389.578125 C 2176.160156 391 2174.320312 392.238281 2172.480469 393.300781 L 2179.359375 403.550781 L 2173.078125 408.398438 L 2165.140625 396.578125 C 2161.558594 397.71875 2157.960938 398.191406 2154.359375 397.988281 C 2146.410156 397.550781 2139.519531 393.121094 2133.691406 384.71875 L 2132.710938 383.261719 L 2148.160156 371.308594 L 2143.589844 364.511719 C 2141.191406 365.308594 2138.988281 365.941406 2136.980469 366.398438 C 2132.800781 367.351562 2128.390625 367.039062 2123.730469 365.480469 C 2119.078125 363.910156 2114.761719 360.230469 2110.789062 354.449219 C 2104.148438 344.578125 2101.671875 335.359375 2103.351562 326.800781 C 2104.289062 321.988281 2106.261719 317.53125 2109.261719 313.429688 L 2100.878906 300.949219 L 2107.148438 296.101562 L 2114.71875 307.359375 C 2115.78125 306.378906 2116.921875 305.421875 2118.121094 304.488281 C 2120.941406 302.320312 2123.699219 300.46875 2126.398438 298.960938 L 2118.550781 287.289062 L 2124.828125 282.429688 L 2133.710938 295.640625 C 2137.519531 294.328125 2141.210938 293.71875 2144.78125 293.839844 C 2153.019531 294.121094 2160.871094 299.800781 2168.320312 310.890625 L 2152.28125 323.289062 L 2156.351562 329.339844 C 2157.671875 328.980469 2158.921875 328.660156 2160.109375 328.398438 C 2164.429688 327.460938 2169.019531 327.871094 2173.898438 329.640625 C 2178.78125 331.398438 2183.308594 335.398438 2187.5 341.640625 C 2193.648438 350.78125 2195.578125 359.53125 2193.308594 367.859375 C 2192.351562 371.378906 2190.890625 374.699219 2188.929688 377.820312 L 2197.03125 389.878906 L 2190.761719 394.730469 L 2183.800781 384.378906 C 2182.070312 386.191406 2180.140625 387.921875 2178 389.578125 Z M 2159.691406 374.269531 C 2161.410156 374.128906 2163.199219 373.339844 2165.050781 371.910156 C 2167.648438 369.898438 2169.300781 367.820312 2169.980469 365.699219 C 2170.140625 365.21875 2170.25 364.761719 2170.308594 364.320312 L 2165.769531 357.558594 C 2165.03125 357.410156 2164.21875 357.398438 2163.351562 357.539062 C 2160.75 357.949219 2156.96875 359.21875 2152 361.328125 L 2151.210938 361.660156 Z M 2128.011719 327.128906 L 2134.539062 336.859375 C 2136.988281 336.359375 2140.378906 335.199219 2144.699219 333.398438 C 2146.019531 332.871094 2147.300781 332.371094 2148.539062 331.910156 L 2139.710938 318.78125 C 2137.640625 319.171875 2135.328125 320.339844 2132.789062 322.300781 C 2130.738281 323.890625 2129.140625 325.5 2128.011719 327.128906 "/>
<path fill-rule="evenodd" fill="rgb(96.09375%, 72.068787%, 0%)" fill-opacity="1" d="M 1981.300781 981.128906 C 1983.511719 980.609375 1985.660156 979.988281 1987.769531 979.300781 L 1987.78125 979.308594 L 1988.089844 979.199219 C 1989.679688 978.679688 1991.238281 978.109375 1992.769531 977.5 L 2025.300781 965.648438 L 2022.21875 957.359375 C 2050.339844 927.691406 2060.25 876.53125 2043.988281 823.898438 C 2025.621094 764.410156 1979.441406 721.339844 1932.070312 714.550781 L 1928.679688 705.410156 L 1901.320312 715.46875 C 1900.671875 715.609375 1900.019531 715.75 1899.371094 715.898438 C 1892.191406 717.601562 1885.46875 720.199219 1879.261719 723.578125 L 1879.25 723.589844 C 1835.878906 747.191406 1816.890625 809.070312 1836.671875 873.128906 C 1859.300781 946.371094 1924.050781 994.71875 1981.300781 981.128906 "/>
<path fill-rule="evenodd" fill="rgb(98.826599%, 82.03125%, 30.589294%)" fill-opacity="1" d="M 2010.609375 970.640625 C 2067.859375 957.050781 2095.929688 886.660156 2073.300781 813.410156 C 2050.679688 740.171875 1985.929688 691.820312 1928.679688 705.410156 C 1871.429688 719 1843.359375 789.398438 1865.980469 862.640625 C 1888.609375 935.878906 1953.359375 984.238281 2010.609375 970.640625 "/>
<path fill-rule="evenodd" fill="rgb(100%, 91.40625%, 65.818787%)" fill-opacity="1" d="M 1998.421875 931.171875 C 2038.628906 921.628906 2058.339844 872.179688 2042.449219 820.738281 C 2026.558594 769.300781 1981.078125 735.328125 1940.871094 744.878906 C 1900.660156 754.429688 1880.941406 803.871094 1896.828125 855.308594 C 1912.730469 906.761719 1958.210938 940.71875 1998.421875 931.171875 "/>
<path fill-rule="evenodd" fill="rgb(90.234375%, 74.021912%, 25.097656%)" fill-opacity="1" d="M 1996.160156 882.710938 C 1994.039062 883.660156 1991.960938 884.449219 1989.921875 885.050781 L 1994.238281 896.609375 L 1987.011719 899.878906 L 1982.019531 886.539062 C 1978.269531 886.820312 1974.671875 886.441406 1971.210938 885.410156 C 1963.578125 883.148438 1957.898438 877.25 1954.179688 867.71875 L 1953.558594 866.070312 L 1971.359375 858.03125 L 1968.480469 850.359375 C 1965.96875 850.578125 1963.679688 850.679688 1961.621094 850.660156 C 1957.328125 850.621094 1953.109375 849.300781 1948.949219 846.699219 C 1944.78125 844.089844 1941.441406 839.519531 1938.910156 832.96875 C 1934.730469 821.828125 1934.460938 812.289062 1938.070312 804.351562 C 1940.101562 799.890625 1943.050781 796.011719 1946.921875 792.710938 L 1941.648438 778.628906 L 1948.878906 775.371094 L 1953.640625 788.070312 C 1954.898438 787.371094 1956.21875 786.699219 1957.609375 786.070312 C 1960.851562 784.609375 1963.960938 783.449219 1966.941406 782.609375 L 1962.011719 769.429688 L 1969.238281 766.160156 L 1974.820312 781.070312 C 1978.828125 780.671875 1982.558594 780.941406 1986.011719 781.878906 C 1993.960938 784.058594 2000.28125 791.398438 2004.960938 803.910156 L 1986.488281 812.261719 L 1989.039062 819.101562 C 1990.410156 819.039062 1991.699219 819.03125 1992.921875 819.050781 C 1997.339844 819.140625 2001.710938 820.601562 2006.050781 823.449219 C 2010.378906 826.300781 2013.871094 831.230469 2016.5 838.269531 C 2020.359375 848.589844 2020.21875 857.539062 2016.078125 865.128906 C 2014.328125 868.328125 2012.148438 871.21875 2009.511719 873.800781 L 2014.601562 887.410156 L 2007.371094 890.679688 L 2003 878.988281 C 2000.898438 880.359375 1998.621094 881.589844 1996.160156 882.710938 Z M 1981.890625 863.578125 C 1983.589844 863.839844 1985.511719 863.488281 1987.648438 862.519531 C 1990.648438 861.171875 1992.730469 859.53125 1993.890625 857.621094 C 1994.148438 857.191406 1994.359375 856.769531 1994.53125 856.351562 L 1991.679688 848.730469 C 1990.988281 848.410156 1990.210938 848.210938 1989.328125 848.148438 C 1986.699219 847.949219 1982.730469 848.300781 1977.398438 849.210938 L 1976.558594 849.351562 Z M 1961.980469 810.390625 L 1966.089844 821.359375 C 1968.578125 821.441406 1972.148438 821.101562 1976.769531 820.339844 C 1978.179688 820.128906 1979.539062 819.949219 1980.851562 819.789062 L 1975.300781 804.96875 C 1973.199219 804.859375 1970.679688 805.46875 1967.75 806.800781 C 1965.390625 807.871094 1963.46875 809.058594 1961.980469 810.390625 "/>
<path fill-rule="evenodd" fill="rgb(90.234375%, 74.021912%, 25.097656%)" fill-opacity="1" d="M 1744.589844 550.339844 C 1742.328125 549.769531 1740.21875 549.078125 1738.25 548.289062 L 1734.429688 560.019531 L 1726.738281 558.078125 L 1731.140625 544.53125 C 1728.039062 542.410156 1725.449219 539.878906 1723.378906 536.910156 C 1718.828125 530.390625 1718.058594 522.238281 1721.078125 512.460938 L 1721.621094 510.789062 L 1740.550781 515.589844 L 1743.089844 507.789062 C 1740.980469 506.398438 1739.128906 505.050781 1737.519531 503.75 C 1734.199219 501.050781 1731.71875 497.390625 1730.078125 492.761719 C 1728.449219 488.128906 1728.679688 482.460938 1730.78125 475.769531 C 1734.449219 464.449219 1740.179688 456.820312 1747.949219 452.859375 C 1752.308594 450.628906 1757.039062 449.429688 1762.121094 449.261719 L 1766.769531 434.96875 L 1774.460938 436.910156 L 1770.269531 449.820312 C 1771.691406 450.050781 1773.140625 450.351562 1774.621094 450.71875 C 1778.070312 451.601562 1781.21875 452.628906 1784.078125 453.828125 L 1788.429688 440.449219 L 1796.121094 442.398438 L 1791.199219 457.53125 C 1794.589844 459.71875 1797.339844 462.261719 1799.449219 465.140625 C 1804.308594 471.789062 1804.679688 481.46875 1800.550781 494.179688 L 1780.898438 489.199219 L 1778.640625 496.140625 C 1779.738281 496.949219 1780.761719 497.738281 1781.699219 498.519531 C 1785.109375 501.339844 1787.621094 505.210938 1789.238281 510.140625 C 1790.851562 515.070312 1790.5 521.101562 1788.179688 528.238281 C 1784.769531 538.71875 1779.089844 545.640625 1771.121094 548.988281 C 1767.761719 550.410156 1764.25 551.308594 1760.578125 551.691406 L 1756.089844 565.5 L 1748.398438 563.558594 L 1752.25 551.691406 C 1749.761719 551.449219 1747.210938 551 1744.589844 550.339844 Z M 1745.339844 526.480469 C 1746.511719 527.75 1748.230469 528.671875 1750.5 529.25 C 1753.691406 530.050781 1756.339844 530.070312 1758.441406 529.300781 C 1758.910156 529.121094 1759.339844 528.929688 1759.730469 528.699219 L 1762.25 520.960938 C 1761.910156 520.28125 1761.421875 519.648438 1760.769531 519.050781 C 1758.839844 517.25 1755.511719 515.050781 1750.78125 512.449219 L 1750.039062 512.03125 Z M 1762.898438 472.46875 L 1759.28125 483.621094 C 1761.179688 485.230469 1764.179688 487.179688 1768.269531 489.46875 C 1769.5 490.179688 1770.679688 490.890625 1771.800781 491.578125 L 1776.691406 476.53125 C 1775.109375 475.140625 1772.761719 474.050781 1769.648438 473.261719 C 1767.128906 472.621094 1764.878906 472.359375 1762.898438 472.46875 "/>
</svg>
